<?xml version="1.0" standalone="no"?>
<!DOCTYPE svg PUBLIC "-//W3C//DTD SVG 1.1//EN" "http://www.w3.org/Graphics/SVG/1.1/DTD/svg11.dtd" >
<svg>
<metadata>
Created by FontForge 20090622 at Tue Jun 27 19:22:26 2017
 By deploy user
Copyright (c) 2012 TypeSETit, LLC (typesetit@att.net),with Reserved Font Name "Lovers Quarrel"
</metadata>
<defs>
<font id="LoversQuarrel-Regular" horiz-adv-x="333" >
  <font-face 
    font-family="Lovers Quarrel"
    font-weight="400"
    font-stretch="normal"
    units-per-em="1000"
    panose-1="2 0 6 4 6 0 0 2 0 2"
    ascent="800"
    descent="-200"
    x-height="216"
    cap-height="594"
    bbox="-269.236 -400.241 1157 726"
    underline-thickness="6"
    underline-position="-36"
    unicode-range="U+001E-U+FB02"
  />
<missing-glyph horiz-adv-x="323" 
d="M302 329q-29 -56 -66 -53q-16 2 -41 13q-24 11 -40 13q-21 1 -34 -22q-1 -2 -9 -2q-7 0 -7 3q30 54 66 50q14 -2 41 -12q26 -11 39 -12q25 -1 37 24q0 3 8 1q8 0 6 -3z" />
    <glyph glyph-name=".notdef" horiz-adv-x="323" 
d="M302 329q-29 -56 -66 -53q-16 2 -41 13q-24 11 -40 13q-21 1 -34 -22q-1 -2 -9 -2q-7 0 -7 3q30 54 66 50q14 -2 41 -12q26 -11 39 -12q25 -1 37 24q0 3 8 1q8 0 6 -3z" />
    <glyph glyph-name=".null" horiz-adv-x="0" 
 />
    <glyph glyph-name="nonmarkingreturn" 
 />
    <glyph glyph-name="RS" 
 />
    <glyph glyph-name="US" 
 />
    <glyph glyph-name="space" unicode=" " horiz-adv-x="184" 
 />
    <glyph glyph-name="exclam" unicode="!" horiz-adv-x="277" 
d="M389 513q-197 -306 -229 -392q-6 -18 -21 -18q-12 0 -12 13q0 3 2 9q21 54 96 201q74 146 118 218q0 2 5 2q12 0 23 -10q10 -8 14 -13q6 -7 4 -10zM125 9q0 -13 -9 -20q-9 -9 -23 -9q-13 0 -22 9q-10 7 -10 20t10 22q9 9 22 9q14 0 23 -9t9 -22z" />
    <glyph glyph-name="quotedbl" unicode="&#x22;" horiz-adv-x="212" 
d="M201 447q0 -17 -27 -84q-6 -17 -35 -86h-10l19 159q1 12 11 22q10 9 23 9q19 0 19 -20zM97 448q0 -20 -26 -85q-6 -17 -35 -86h-9l18 158q2 14 11 22q12 10 23 10q18 0 18 -19z" />
    <glyph glyph-name="numbersign" unicode="#" horiz-adv-x="497" 
d="M479 310l-18 -32h-100l-55 -94h107l-19 -31h-107l-93 -153h-35l91 153h-92l-93 -153h-35l92 153h-105l20 31h104l56 94h-114l20 32h113l92 154h37l-94 -154h94l92 154h36l-92 -154h98zM325 278h-92l-57 -94h93z" />
    <glyph glyph-name="dollar" unicode="$" horiz-adv-x="299" 
d="M317 325q0 -18 -11 -31q-10 -13 -26 -13q-14 0 -21 9q-9 9 -8 21q1 28 30 28q17 0 20 -11q-5 33 -42 40l-78 -141q45 -60 45 -99q0 -60 -58 -97q-50 -32 -113 -32l-18 -36l-23 -4l23 41q-63 12 -82 35q1 5 12 16h6q28 -28 72 -37l100 181q-40 50 -40 85q0 50 50 79
q42 24 94 24l19 35l21 4l-22 -41q50 -8 50 -56zM184 116q0 29 -27 65l-94 -169q45 0 82 29q39 30 39 75zM243 371h-10q-30 0 -58 -20q-28 -22 -28 -54q0 -16 8 -28q8 -16 16 -28z" />
    <glyph glyph-name="percent" unicode="%" horiz-adv-x="414" 
d="M413 441l-410 -497h-24l-1 3q102 107 313 368q-62 -55 -106 -55q-24 0 -39 17q-29 -23 -58 -23q-47 2 -47 59q0 29 14 63q21 47 57 80q37 34 70 32q49 -2 49 -49q0 -32 -25 -84q-23 -45 -47 -67q7 -16 27 -16q32 0 89 45q20 16 68 70q50 54 53 56q4 2 9 2q8 0 8 -4z
M327 214q49 -1 49 -51q0 -54 -47 -118q-49 -66 -96 -64t-47 58q0 29 14 63q20 47 57 80q36 33 70 32zM189 466q-21 0 -45 -25q-25 -25 -43 -63q-22 -48 -22 -80q0 -29 22 -29q18 0 38 17q-10 16 -10 33q0 28 22 28q20 0 20 -20q0 -4 -1 -7q12 16 27 51q16 39 16 65
q0 30 -24 30zM358 163q0 30 -25 30q-19 0 -45 -26q-25 -27 -42 -62q-23 -51 -23 -81q0 -29 24 -29q26 0 68 52q15 18 28 55q15 37 15 61z" />
    <glyph glyph-name="ampersand" unicode="&#x26;" horiz-adv-x="476" 
d="M149 -178q33 36 62 166q-21 -2 -62 0q-23 2 -47 8.5t-51 18t-45.5 33t-22.5 49.5q-4 30 15.5 68t43.5 63q37 41 92 77q-27 18 -47 46q-62 87 -28 152q23 44 72 47q58 5 91 -52q7 -11 12 -24q17 -46 22 -103l56 31q14 80 35 105t38 23q20 -1 24 -28q2 -17 -4.5 -32
t-23.5 -29t-24.5 -19.5t-26.5 -17.5q-8 -35 -12 -100q40 15 69 43t39 61q1 4 5 3t3 -5q-10 -34 -42 -63.5t-75 -46.5q0 -5 -0.5 -15t-0.5 -15q61 39 123 32q65 -6 72 -60q6 -48 -40 -113q-61 -89 -172 -119q-6 -43 -16 -79t-28 -74t-47.5 -58.5t-68.5 -16.5q-26 3 -49 19.5
t-26 44.5q-2 4 2 4q4 -2 4 -4q11 -46 59 -51q29 -3 53 17t39.5 57.5t24 65t16.5 63.5q-38 -6 -40 -6q-31 -131 -67 -171q-5 -5 -7 1q-1 2 1 4zM175 4q13 -2 39 -2q11 49 19 120q3 27 7 85q-36 -26 -48 -59q-3 -9 -3.5 -23t6.5 -27q3 -3 -1.5 -3t-6.5 3q-13 22 -2 54
q14 36 56 72q1 18 1 55q-49 -3 -90 16q-18 -14 -50 -46q-30 -31 -52.5 -72t-18.5 -74q7 -47 51 -70.5t93 -28.5zM485 215q-6 49 -71 54q-53 5 -100 -20q-2 -26 -3.5 -73t-4 -85.5t-7.5 -71.5q100 26 151 99q40 57 35 97zM146 313l93 50q-4 58 -22 106q-26 67 -76 73
q-43 6 -67 -33q-34 -54 9 -129l15 -23q22 -29 48 -44zM263 8q10 52 29 232q-25 -12 -39 -23q-1 -17 -4.5 -50t-4.5 -45q-8 -69 -19 -119q12 1 38 5zM310 391l-53 -28q2 -47 1 -73q13 1 39 7q8 64 13 94zM205 334q-23 -15 -42 -30q38 -17 79 -15q0 23 -2 65q-17 -8 -35 -20z
M387 507q-7 0 -21 -14q-18 -20 -33 -78q16 10 40 38t22 43q-2 10 -8 11zM294 260l2 29q-18 -6 -38 -9l-3 -46q21 16 39 26z" />
    <glyph glyph-name="quotesingle" unicode="'" horiz-adv-x="145" 
d="M184 349q3 -17 -26 -57q-30 -42 -62 -60q-16 -9 -23 -9q-2 0 -2 2q0 7 12 20q28 33 50 72q-16 2 -16 27q0 12 11 23t29 10q23 0 27 -28z" />
    <glyph glyph-name="parenleft" unicode="(" horiz-adv-x="353" 
d="M407 565q-124 -50 -223 -183q-105 -141 -105 -277q0 -146 20 -172q4 -5 4 -12q0 -10 -10 -10q-8 0 -17 9q-15 15 -27 81q-9 56 -9 94q0 164 92 289q67 92 203 176q41 25 56 25q16 0 16 -20z" />
    <glyph glyph-name="parenright" unicode=")" horiz-adv-x="411" 
d="M373 397q0 -167 -92 -290q-67 -93 -202 -176q-40 -25 -56 -25t-16 19q123 52 221 184q105 141 105 276q0 148 -20 172q-5 8 -5 14q0 10 11 10q8 0 17 -9q15 -17 27 -82q10 -53 10 -93z" />
    <glyph glyph-name="asterisk" unicode="*" horiz-adv-x="287" 
d="M261 259q10 0 10 -6q0 -14 -22 -15l-88 -3q20 -43 35 -70q0 -1 0.5 -2t0.5 -2q0 -6 -5 -14q-6 -6 -11 -6q-8 0 -24 37l-20 45l-72 -79q-4 -3 -9 -3q-17 0 -17 13q0 5 6 11l67 68l-88 -4q-6 0 -9 6q-4 5 -4 12q0 12 14 12h96l-38 84q-2 4 -2 7q0 7 7 7q11 0 18 -14
q15 -26 39 -76l78 78q4 4 8 4q6 0 6 -8q0 -10 -10 -20l-56 -62h90z" />
    <glyph glyph-name="plus" unicode="+" horiz-adv-x="305" 
d="M307 159q12 0 12 -10q0 -8 -14 -8q-6 0 -17 -0.5l-32.5 -1.5t-38.5 -2q-5 -23 -16 -92q0 -4 -8 -7q-7 -4 -14 -4q-12 0 -10 11l23 90q-36 -1 -94 -6q-7 0 -7 14q0 18 15 18h39q48 -2 54 -2q4 19 23 97q3 14 14 14q8 0 5 -11q-5 -18 -20 -100h86z" />
    <glyph glyph-name="comma" unicode="," horiz-adv-x="155" 
d="M128 24q2 -19 -26 -57q-31 -42 -62 -60q-16 -10 -22 -10q-3 0 -3 2q0 6 13 21q19 19 51 71q-18 3 -18 28q0 12 11 23q11 10 31 10q22 0 25 -28z" />
    <glyph glyph-name="hyphen" unicode="-" horiz-adv-x="253" 
d="M213 125q-52 -1 -82 -6q-45 -6 -82 -7q-28 -2 -28 8q0 5 13 15q15 9 26 13q18 6 50 6q31 0 103 -9q30 -3 30 -11t-30 -9z" />
    <glyph glyph-name="period" unicode="." horiz-adv-x="160" 
d="M125 9q0 -13 -9 -20q-9 -9 -23 -9q-13 0 -22 9q-10 7 -10 20t10 22q9 9 22 9q14 0 23 -9t9 -22z" />
    <glyph glyph-name="slash" unicode="/" horiz-adv-x="365" 
d="M563 517q10 -7 10 -14q0 -5 -5 -5q-4 0 -12 5q-8 4 -17 4q-43 0 -142 -110q-59 -65 -186 -228q-114 -146 -182 -191q-7 -5 -11 -5q-5 0 -5 4q0 5 6 10q96 88 170 198l81 120q61 89 123 149q78 73 132 73q18 0 38 -10z" />
    <glyph glyph-name="zero" unicode="0" horiz-adv-x="547" 
d="M460 100q-62 -57 -144 -93q-84 -38 -155 -36q-70 2 -114 40t-44 101q0 23 6 47q23 86 90 141q47 40 128 72q89 36 152 36q15 0 22 -1q10 0 10 -7q0 -6 -12 -8q-71 -6 -137 -31q-71 -25 -119 -66q-48 -42 -77 -98q-29 -54 -29 -103q0 -47 28 -74q32 -29 96 -29
q63 0 136 35q65 31 126 86q40 37 65 81t25 83q0 80 -113 71q-110 -9 -200 -87q-2 -3 -6 -3q-12 0 -9 11q5 19 62 49q82 46 157 48q72 3 109 -26q34 -27 34 -74q0 -39 -23 -83q-24 -45 -64 -82z" />
    <glyph glyph-name="one" unicode="1" horiz-adv-x="244" 
d="M271 388q-36 -47 -101 -163q-73 -135 -109 -225q-3 -7 -14 -7t-11 10q0 2 2 8l74 155q37 79 67 158l-26 -19q-21 -15 -36 -28q-7 -6 -11 -6q-3 0 -3 4q0 7 12 17l122 120q3 1 8 1q10 0 18 -7t8 -15v-3z" />
    <glyph glyph-name="two" unicode="2" horiz-adv-x="377" 
d="M285 -33q-3 -1 -6 0q-4 3 -4 6t7 7q19 10 19 19q0 14 -37 26q-36 12 -69 12q-53 -1 -167 -42q-14 -6 -23 -6q-14 0 -14 11q0 13 17 29q18 15 37 15q65 22 156 82q103 69 156 135q41 52 41 89q0 40 -47 40q-52 0 -116.5 -43.5t-79.5 -93.5q-3 -9 -9 -9q-3 0 -3 5
q0 1 0.5 2.5t0.5 3.5q14 65 70 108.5t129 43.5q36 0 57 -21q20 -22 20 -55q0 -49 -39 -92q-33 -36 -84 -68q-15 -10 -43.5 -27t-40.5 -25q-75 -49 -90 -64q189 0 186 -55q-2 -26 -24 -33z" />
    <glyph glyph-name="three" unicode="3" horiz-adv-x="377" 
d="M72 292q3 62 75 94q101 44 199 16q75 -21 90 -69q13 -43 -34 -87q-25 -23 -59 -38.5t-59.5 -21.5t-69.5 -14q70 -3 101.5 -27t31.5 -58t-34.5 -63.5t-84 -43.5t-100 -18t-88 11t-41.5 45q-2 20 12.5 37t41.5 21q11 0 11 -4q0 -5 -12 -5q-12 2 -23 -12q-15 -17 -10 -34
q8 -26 53 -34.5t96 0t92.5 35t41.5 63.5q0 48 -81 68q-46 12 -85 10q-17 0 -17 9q0 12 23 11q59 -3 127 14t104 51q39 40 31.5 72t-43.5 52t-80 20q-69 0 -130.5 -28.5t-63.5 -72.5q0 -9 -4.5 -13t-8 0.5t-2.5 13.5z" />
    <glyph glyph-name="four" unicode="4" horiz-adv-x="368" 
d="M371 376q-13 -11 -64 -94q-54 -84 -54 -93q3 -1 8 -2q18 -5 36 -6q24 -6 24 -16q0 -9 -9 -9v2q-1 -2 -3 -2l-5 1l-17 3q-24 4 -31 4q-3 0 -7 -1h-12l-60 -122l-25 -53q0 -1 -13 -23q-12 0 -12 16t34 88q44 93 44 95q-1 1 -9 1q-91 0 -172 -26q-15 0 -15 14q0 8 26 26
q4 2 10.5 6l12 7.5t10.5 7.5l150 105q82 61 133 124q20 0 20 -38v-15zM307 352q-58 -48 -115 -90q-71 -52 -89 -67h56q7 0 18.5 -0.5t16.5 -0.5l17 -1q5 0 6 -1q14 0 90 160z" />
    <glyph glyph-name="five" unicode="5" horiz-adv-x="367" 
d="M401 361q-71 -3 -100 -6q-62 -6 -97 -20h-5l-6 -2q-6 0 -6 -2q-18 -21 -46 -72q51 16 82 16q101 0 101 -84q0 -71 -66 -142q-70 -76 -151 -76q-41 0 -72 25q-34 27 -34 71q0 4 10 32q11 24 16 24q9 0 9 -10q0 -1 -5 -16q-6 -15 -6 -24q0 -78 77 -78q40 0 77 22
q42 24 72 73q33 51 33 91q0 37 -17 52q-15 14 -55 14q-44 0 -108 -64l-4 -4q-4 -3 -11 -3q-18 0 -18 15q0 2 2 8q3 3 4 7l8 12q3 4 7.5 11t8.5 12.5t8 9.5q29 44 38 71l-10 5q-5 3 -5 12l20 16q15 12 20 12h15q9 -1 14 -1q23 0 76 6q48 7 77 7q24 0 47 -5v-15z" />
    <glyph glyph-name="six" unicode="6" horiz-adv-x="328" 
d="M305 429q-1 -6 -14 -16q-85 -57 -150 -135q-73 -89 -88 -177q-2 -16 -2 -26q0 -35 14 -58q17 -28 48 -28q46 0 88 42q39 38 58 92q7 20 7 44q0 61 -51 61q-30 0 -75 -33q-13 -7 -17 -7l-2 1q-2 4 -2 7q0 15 36 36q37 20 54 20q42 0 68 -29t26 -70q0 -63 -66 -125
q-66 -60 -130 -60q-44 0 -68 40q-21 34 -21 81q0 87 96 203q92 110 177 143q4 2 10 2q8 0 4 -8z" />
    <glyph glyph-name="seven" unicode="7" horiz-adv-x="331" 
d="M332 369q3 -20 -59 -85l-59 -60.5t-75 -79t-51 -64.5q-18 -27 -27.5 -57t-7.5 -46q-3 -8 -11 -0.5t-11 14.5q-5 12 -6 23t-1.5 17.5t6 17.5t8 14t12.5 17t13 16q11 15 70 82.5l107.5 127t48.5 71.5q0 9 -18 8q-71 -5 -131 -29t-80 -45q-6 -7 -11 6q-2 5 -2 10q0 14 9 26
q2 4 6.5 6.5t12 4.5t9.5 3q112 41 188 41q17 0 37 -12t23 -27z" />
    <glyph glyph-name="eight" unicode="8" horiz-adv-x="344" 
d="M439 397q-15 -10 -30.5 -18.5t-31.5 -16t-23 -11.5q10 -21 14 -41q1 -19 -8 -19q-6 0 -11 5q-7 5 -24 38q-13 -4 -80.5 -55.5t-72.5 -59.5q28 -55 28 -86q0 -65 -51 -115q-50 -50 -113 -47q-29 2 -43 20q-15 18 -15 44q0 47 75 117q32 28 77 64q-16 35 -16 68q0 61 45 91
q39 29 96 29q65 0 90 -37q73 39 92 45q8 3 9 -3q0 -7 -7 -12zM316 349q-15 31 -56.5 35t-77.5 -20.5t-36 -65.5q0 -24 18 -60q141 104 152 111zM167 119q0 6 -11 34q-12 34 -17 42q-57 -38 -92 -82q-9 -12 -18 -30t-16.5 -40.5t1 -38t34.5 -15.5q36 0 76 38q43 41 43 92z
" />
    <glyph glyph-name="nine" unicode="9" horiz-adv-x="340" 
d="M319 320l-4 3v-2l-2 3q-2 0 -2 5l1 1q0 2 1 7t3 11q5 18 5 28q0 37 -48 37q-60 0 -139 -74q-78 -75 -78 -135q0 -35 31 -35q23 0 63 20q35 17 57 34q15 11 39 38q34 37 37 40q1 3 6 3q8 0 17 -9q9 -10 9 -15q0 -4 -54 -88q-94 -148 -108 -219q-3 -13 -4 -17
q-3 -11 -12 -11q-8 0 -8 12q3 78 94 255q-38 -28 -70 -43q-47 -22 -78 -22q-59 0 -54 77q4 66 95 138q86 70 156 70q71 0 71 -55q0 -18 -8 -36q-9 -18 -16 -21z" />
    <glyph glyph-name="colon" unicode=":" horiz-adv-x="160" 
d="M192 148q0 -13 -9 -22q-11 -9 -23 -9t-23 9q-9 9 -9 22t9 22q11 9 23 9t23 -9q9 -9 9 -22zM131 27q0 -13 -10 -22q-9 -9 -22 -9q-14 0 -23 9t-9 22q0 12 9 21t23 9q13 0 22 -9q10 -9 10 -21z" />
    <glyph glyph-name="semicolon" unicode=";" horiz-adv-x="155" 
d="M216 169q0 -12 -9 -21q-11 -9 -23 -9t-23 9q-9 9 -9 21t9 21q11 9 23 9t23 -9q9 -9 9 -21zM128 24q2 -19 -26 -57q-31 -42 -62 -60q-16 -10 -22 -10q-3 0 -3 2q0 6 13 21q19 19 51 71q-18 3 -18 28q0 12 11 23q11 10 31 10q22 0 25 -28z" />
    <glyph glyph-name="less" unicode="&#x3c;" horiz-adv-x="219" 
d="M222 198q-8 -12 -51 -45l-57 -40l-1 -90l-3 -7l-5 -2q-1 0 -5 2q-5 13 -14 51q-9 40 -11 52q136 86 142 86l4 -2z" />
    <glyph glyph-name="equal" unicode="=" horiz-adv-x="305" 
d="M273 215q0 -8 -12 -8q-57 0 -100 -5q-10 -1 -19 -2t-15 -2t-10.5 -1.5t-6.5 -0.5h-1q-11 0 -11 19q0 13 11 13h98q66 0 66 -13zM273 148q0 -7 -12 -7q-49 0 -100 -6q-10 -1 -19 -2t-15 -2t-10.5 -1.5t-6.5 -0.5h-1q-11 0 -11 20q0 12 11 12h98q66 0 66 -13z" />
    <glyph glyph-name="greater" unicode="&#x3e;" horiz-adv-x="219" 
d="M165 100l-136 -85l-5 -1q-3 0 -5 1l-1 3q0 9 53 48l55 39l1 91l3 6l5 3l6 -3q7 -15 14 -51z" />
    <glyph glyph-name="question" unicode="?" horiz-adv-x="400" 
d="M405 473q0 -46 -44 -94q-30 -34 -96 -83q-62 -47 -94 -76q-43 -37 -43 -75v-1q0 -9 8 -9q0 -2 -1.5 -7t-1.5 -7q-1 -12 -14 -12q-12 0 -18 12q-5 10 -5 18q0 39 43 89q24 28 93 91q45 38 92 88q40 40 40 74q0 31 -32 31q-77 0 -163 -55q-65 -41 -89 -76q-4 -6 -13 -6
t-9 8t7 18q25 37 96 82q88 58 164 58q29 0 52 -16q28 -21 28 -52zM121 9q0 -13 -9 -20q-9 -9 -23 -9q-13 0 -22 9q-10 7 -10 20t10 22q9 9 22 9q14 0 23 -9t9 -22z" />
    <glyph glyph-name="at" unicode="@" horiz-adv-x="650" 
d="M578 257q-27 -48 -67 -86q-66 -60 -151 -99q-94 -40 -172 -39q-77 0 -127 44q-48 43 -48 112q0 25 6 52q24 94 99 157q51 42 142 80q98 40 214 28q116 -11 142 -67q17 -37 -14 -87q4 -40 -24 -95zM600 366q39 68 -49 102q-78 31 -186 18q-39 -4 -66 -14q-83 -30 -137 -76
q-55 -49 -88 -112q-34 -64 -34 -119t33 -85q37 -34 111 -34t155 40q75 37 138 94q45 40 71 88q11 19 19 40q-77 -90 -169 -136q-45 -24 -71 -15q-18 6 -27.5 31.5t-10 47.5t0.5 23l-2 -3q-3 -4 -7 -10l-9.5 -14.5t-12 -17.5l-13.5 -18t-15.5 -17.5t-16 -14.5t-16 -9
t-15.5 -2q-32 5 -33 43.5t24.5 87.5t63.5 84q69 65 127 33q18 -10 17 -31t-19 -24q16 27 -4 38q-27 13 -66 -20q-30 -25 -59 -65t-42 -72q-16 -39 -8 -50t42 20q15 14 74 97q22 31 29 17q3 -6 2 -18q-2 -60 1 -76q5 -32 18 -40.5t42 5.5q114 62 180 144q4 15 4 33
q0 87 -123 77q-33 -2 -36 5.5t35 8.5q77 3 115 -28q27 -21 33 -56z" />
    <glyph glyph-name="A" unicode="A" horiz-adv-x="769" 
d="M542 145q-70 -92 -159 -77q-107 -86 -186 -111q-57 -19 -102 -13q-43 5 -68.5 32t-19.5 69q6 39 36 68.5t73 43.5q50 17 125 29q-25 57 -25 113q0 152 86 223q62 50 129 32q63 -16 83 -82q26 -84 -34 -205q-14 -28 -38 -64h45q20 20 121 161q17 24 47 62q11 70 10 87
q-2 48 -40 23q-15 -10 -34 -32t-22 -29q-5 -11 -11 -7q-4 3 -1 10q6 12 25 35t41 37q32 22 56 14t24 -45q0 -25 -12.5 -134.5t-15.5 -172.5q50 3 63 12q11 7 12 2q0 -7 -10 -13q-25 -15 -65 -21q-2 -99 7 -137t25.5 -54t34.5 -10.5t36 25t31 49.5q4 9 8.5 7t1.5 -11
q-13 -37 -40.5 -62t-56 -30.5t-53.5 17t-33 71.5q-8 52 -4 130q-15 -1 -125 -1q-53 -58 -114 -109q82 -8 143 73q4 5 6 -1q1 -2 0 -4zM429 202q24 35 41 70q66 133 19 216q-31 56 -93 58q-69 2 -116 -64q-49 -68 -49 -183q0 -60 24 -111q91 13 174 14zM253 165
q-96 -19 -144 -34q-82 -28 -89 -79q-5 -35 24.5 -56.5t68.5 -25.5q117 -15 248 103l-23 9q-133 -116 -257 -82q-5 1 -2 6q1 3 4 2q117 -31 245 80q-46 27 -75 77zM653 392q-12 -21 -28.5 -46t-29 -42l-36 -49.5t-34.5 -46.5q36 -2 109 1q3 78 19 183zM418 187
q-74 -7 -152 -20q30 -49 71 -71q43 39 81 91zM475 188q-18 2 -43 0q-39 -57 -85 -98q13 -5 23 -8q21 20 56 56.5t49 49.5z" />
    <glyph glyph-name="B" unicode="B" horiz-adv-x="592" 
d="M336 585q-25 -14 -59 -72q28 4 49 5q31 46 56 57q37 18 81 -14q25 -18 19 -25q-1 -2 -4 -2t-4.5 2t-4.5 6.5t-8 8.5q-27 17 -49 12q-16 -4 -44 -44h7q102 -1 174 -33.5t67 -91.5q-5 -61 -86 -108t-147 -54q62 0 108 -16t68 -41.5t20 -58.5t-30 -65q-40 -45 -118 -79.5
t-154 -20.5q-32 6 -50.5 38t-6.5 64q1 3 -7 -7q-29 -39 -48 -75q-3 -3 -11 -0.5t-15.5 12t-6.5 17.5q7 54 30 132q-13 -1 -39 -5q-29 -80 -53 -119q-57 -94 -128 -99q-48 -3 -70 34q-25 43 15 91q27 33 80 57q66 28 148 43q21 54 54 149q-6 0 -16 -2q-95 -10 -123 38
q-25 42 20 94q64 75 213 98q2 1 4 1q35 64 66 80q4 3 5 -2q1 -3 -2 -5zM208 144q155 4 167 -94q1 -5 -4 -5q-2 0 -3 3q-15 91 -162 87q-26 -89 -35 -134q4 4 11 14.5t17 27t14 22.5q3 6 15.5 20.5t19.5 19.5q20 15 26 9q3 -2 -1 -5q-37 -32 -42.5 -72.5t27 -58.5t112.5 6
q68 24 117 65q77 64 36 116q-39 49 -155 53q-67 3 -141 -13zM274 330q88 28 157 78q12 9 12 0q1 -7 -9 -13q-97 -65 -170 -89q-21 -51 -31 -84q68 0 108 10q114 24 174 70t64 94t-57 80t-149 33h-11q-43 -68 -88 -179zM111 125q-84 -16 -139 -42q-82 -39 -93 -95
q-8 -42 24 -61q41 -24 95 17q33 25 61 71q22 35 52 110zM177 307q42 115 81 188q-119 -27 -185 -94q-49 -49 -27 -79q20 -28 100 -19q22 2 31 4zM268 498q-40 -74 -81 -189q26 4 39 8q46 116 92 189q-20 -2 -50 -8zM179 285q-45 -131 -52 -149q23 4 38 5q26 87 51 151
q-14 -3 -37 -7z" />
    <glyph glyph-name="C" unicode="C" horiz-adv-x="553" 
d="M488 414q0 50 -54 66q-68 19 -155 -30t-142 -149q-43 -80 -52 -171q25 -67 84.5 -105t139.5 -33q18 1 52 7q22 40 17.5 81.5t-32.5 56.5q-2 1 -1.5 3.5t2 3.5t3.5 0q32 -17 39 -58.5t-14 -82.5q102 31 152 111q25 40 31 38q8 -3 -11 -36l-6 -10q-25 -37 -73.5 -74
t-108.5 -56q-31 -43 -76 -59.5t-87 -7t-76 46t-44 91.5q-53 65 -53 156.5t61 180.5q57 84 165.5 125t205.5 13q48 -13 81.5 -46t32.5 -80q4 -1 12 -5q11 -6 8 -13q-1 -4 -10 1l-11 5q-7 -59 -61 -117.5t-119 -83.5q-38 -14 -73.5 -15.5t-61.5 7.5t-42 27t-18.5 40.5t12.5 51
t48 55.5q39 33 105 51t130 14zM551 390q-28 7 -55 8q-5 -27 -23 -52q-31 -46 -81 -69.5t-106 -21.5q-14 1 -15 4q0 6 17 5q55 -1 104 22t73 62q16 27 21 50q-60 0 -122.5 -19.5t-96.5 -49.5q-29 -25 -39.5 -52t-2 -46.5t29 -34t53.5 -14.5t73 12q66 23 118.5 81t51.5 115z
M77 160q11 80 51 152q70 127 186 168q87 31 144 0q42 -23 40 -67q27 -1 51 -9q-10 65 -94 96q-32 13 -75.5 13t-93 -13.5t-99 -54.5t-82.5 -104q-47 -92 -28 -181zM91 30q16 -62 61.5 -92t98 -20.5t90.5 53.5q-26 -6 -41 -7q-128 -15 -209 66z" />
    <glyph glyph-name="D" unicode="D" horiz-adv-x="724" 
d="M458 -28q-27 -53 -66 -88.5t-76.5 -46.5t-74 -3t-59.5 42.5t-31.5 89.5t8.5 138q15 71 53 168q-24 -6 -54 -10q-79 -9 -116 29t-15.5 93t91.5 90q74 37 201 45q17 37 22 69q0 6 5 0q2 -2 2 -4q1 -19 -17 -65q25 1 52 0q22 31 44 42q38 18 82 -14q25 -18 18 -25
q-1 -2 -4 -2t-4.5 2t-4.5 6.5t-8 7.5q-24 18 -49 12q-17 -3 -37 -31q96 -8 169 -40t110.5 -81t46 -106.5t-22 -121t-96.5 -120.5t-169 -76zM486 40l-11 -31q77 24 131 73q58 53 82.5 111.5t13.5 110.5t-46.5 95.5t-99 72t-143.5 34.5q-21 -31 -40 -73q31 -16 59 -46
q44 27 73 57q8 8 9.5 7t0 -6t-3.5 -7q-29 -30 -71 -61q50 -62 62 -157.5t-16 -179.5zM457 4q9 20 15 42q25 82 13.5 172.5t-57.5 150.5q-51 -34 -105 -58q-32 -90 -57 -180.5t-29 -129.5q4 4 10.5 15l15.5 26.5t14 22.5q3 6 15 20.5t19 19.5q19 15 26 9q3 -2 -1 -5
q-71 -62 -32 -95q35 -30 124 -16q14 2 29 6zM226 275q-38 -104 -51 -172q-16 -91 -6 -150.5t43 -84t73 -22.5t83 35t73 88q-78 -10 -126 11.5t-31 72.5l-5 -4q-26 -36 -48 -78q-3 -3 -11 -0.5t-15.5 12t-6.5 17.5q9 105 75 291q-32 -12 -47 -16zM222 298q28 71 65 150
q-4 1 -12 1q-61 4 -101 -37.5t-30 -74.5q1 -4 -3 -5t-5 3q-10 38 29.5 81t109.5 41q11 0 16 -1l2 5q7 13 21 45q-113 -11 -183 -52q-69 -41 -88 -95q-18 -52 28 -70q28 -12 75 -6q35 3 76 15zM297 447q-34 -69 -62 -145q24 6 48 15q23 63 52 120q-16 7 -38 10zM420 379
q-25 28 -52 43q-17 -37 -35 -86q49 21 87 43zM325 507q-2 -6 -24 -52q18 -1 38 -8q20 38 36 61q-33 0 -50 -1z" />
    <glyph glyph-name="E" unicode="E" horiz-adv-x="522" 
d="M423 -6q0 -49 -18 -86.5t-46 -56.5t-63 -21t-67.5 13t-60.5 51t-42 88q-67 35 -85 109t19 167q-6 -1 -18 -5q-7 -1 -7 6q1 15 15 25q3 1 5 2l20 4l6 12q58 110 173.5 179t231.5 48q32 -5 52 -25q27 33 43 45q9 7 13 1q2 -4 -3 -8q-23 -18 -45 -46q25 -32 12 -69
q-10 -27 -39 -35q-28 -7 -32 16q-2 7 0 16q2 14 15.5 34t23.5 30q-15 17 -44 21q-113 15 -205 -45t-152 -165q16 2 44 4q79 139 234 184q4 1 5.5 -3t-2.5 -5q-134 -36 -216 -175q35 2 254 2q11 0 12 -6q0 -7 -18 -7q-139 0 -262 -15q-48 -96 -48 -194q0 -37 4 -62
q12 -12 32 -22q54 -27 118.5 -19.5t122.5 43.5q-12 51 -52 98q-22 -13 -38 -26q-43 -34 -67 -63q-7 -8 -7 -3q0 8 4 12q36 40 75 73q21 16 23 17q-58 58 -123 59q-3 0 -4 2t0.5 4t3.5 2q69 -2 132 -61q24 15 63 32q49 15 78.5 5t29.5 -43t-35 -69q-26 -26 -66 -51
q0 -3 0.5 -9t0.5 -9zM142 -25q20 -71 65.5 -106t89.5 -30.5t77.5 46t33.5 109.5q0 7 -1 10q-61 -33 -128.5 -42.5t-126.5 9.5q-8 3 -10 4zM363 127q42 -45 55 -95q45 32 70 70q26 40 9 58t-75 -4q-24 -9 -59 -29zM115 40q-2 30 -2 48q0 96 42 187l-46 -7l-3 -7
q-29 -60 -26.5 -119.5t35.5 -101.5zM535 417q13 30 -2 61q-25 -37 -27 -64q-2 -13 7 -13q13 0 22 16z" />
    <glyph glyph-name="F" unicode="F" horiz-adv-x="534" 
d="M280 336q-71 7 -119 27q-39 17 -63 33q-59 -83 -33 -139q19 -41 71 -36q64 6 122 82q10 13 22 33zM310 562q-84 25 -170 -8q-70 -27 -78 -71q-5 -27 19 -54q83 100 229 133zM420 228q11 1 34 1q39 80 58 153q24 101 -22.5 143t-132.5 29q92 -50 92 -170q0 -82 -29 -156z
M554 218q8 -2 1 -9q-5 -6 -12 -4q-24 7 -59 7q-68 -125 -165 -229t-177 -129q-5 -2 -8 1.5t-2.5 8t5.5 6.5q74 24 160 121.5t148 219.5q-22 -2 -34 -4q-11 -25 -25.5 -49.5t-33.5 -48.5l-33 -41t-38.5 -41l-36 -34.5l-39 -35.5l-34.5 -31q-4 -4 -4 3q0 3 2 5q4 4 26.5 24.5
t33 31l32.5 33t36.5 40t32.5 41.5t33 49t27 51q-93 -18 -177.5 -58.5t-118.5 -90.5q-3 -5 -6 6q-6 23 0 34q35 53 123.5 87.5t188.5 43.5q32 78 32 160q0 120 -94 165q-65 -14 -128.5 -52.5t-103.5 -91.5q28 -19 64 -34q50 -21 115 -29q31 53 53 124q2 8 7.5 3.5t2.5 -12.5
q-20 -67 -45 -117q36 -2 53 -2q3 0 4 -2t0 -4t-4 -2q-37 0 -57 2q-12 -23 -29 -45q-64 -88 -142 -91q-61 -2 -89 46q-36 61 15 147l14 21l4 5q-57 54 -6 106q47 47 140 57q69 7 126 -14q71 11 126 -4.5t83 -64.5t8 -126q-16 -64 -56 -143q37 -3 61 -10z" />
    <glyph glyph-name="G" unicode="G" horiz-adv-x="572" 
d="M590 304q-16 -129 -65 -270q22 2 33 2q14 0 15 -6q1 -4 -5 -6q-3 -1 -7 -1q-20 0 -41 -3q-28 -80 -63 -148q-59 -112 -156 -168q-72 -42 -111 -23q-42 20 0 99q4 8 9 16q-59 7 -96 60t-29 145l4 31q-31 39 -31 114q0 65 40 134q-46 30 -57 79t8 93t62 76.5t95 33.5
q12 0 13 -7q2 -4 -5 -6h-2q-45 0 -84 -29t-58 -67.5t-10 -82t51 -69.5q48 73 125.5 134t163.5 93q51 19 99.5 20.5t79.5 -13t44.5 -40t-4.5 -65t-68 -82.5q-53 -46 -133.5 -77t-153.5 -31q-40 0 -80 7q-47 -78 -71 -161q24 -71 102 -73q73 -2 159 63q-33 75 -114 57
q-9 -2 -23.5 -17t-13.5 -30q0 -2 -2 -3.5t-4 -0.5t-2 3q-1 19 16 36.5t28 19.5q87 20 126 -57q106 85 177 222q10 15 16 10q9 1 16.5 -2.5t6.5 -9.5zM521 497q-96 0 -182 -62.5t-151 -162.5q25 -4 61 -4q138 0 260 86q51 36 72 71t11 58.5t-36.5 38t-71 12.5t-90.5 -20
q-81 -32 -152.5 -94t-111.5 -134q21 -8 46 -12q66 103 155 167t190 64q4 0 4 -4t-4 -4zM204 -196q17 27 46 62q59 71 126 114q5 47 -9 85q-97 -75 -177 -78q-66 -2 -103 35q-2 -16 -2 -22q-9 -90 26.5 -141t92.5 -55zM477 10q-45 -14 -88 -41l-1 -5q-13 -75 -59 -119
t-102 -49q-51 -90 -16 -107q30 -14 93 33q72 55 116 143q32 66 57 145zM391 -10q45 26 92 37q37 120 62 240q-70 -115 -166 -193q15 -38 12 -84zM372 -42q-73 -51 -124 -127l-16 -26q48 8 87 47t53 102v4zM96 105q24 75 65 145q-18 3 -43 13q-26 -55 -26 -108q0 -30 4 -50z
" />
    <glyph glyph-name="H" unicode="H" horiz-adv-x="833" 
d="M627 387q-30 -64 -91 -103q-11 -34 -31 -77q109 2 154 4q7 40 26 97.5t46.5 116t64 98t71.5 35.5q12 -2 14 -7q1 -2 -2 -3q-4 -1 -11 0q-37 5 -77 -63t-64 -144.5t-32 -127.5q46 5 59 13q12 8 11.5 1.5t-8.5 -11.5q-18 -13 -65 -21q-19 -147 26 -176q20 -14 58.5 6.5
t57.5 52.5q13 20 13 8q1 -8 -4 -16q-17 -28 -62 -56.5t-73 -22.5q-16 4 -26.5 12t-21 29.5t-10.5 56.5t5 93l1 9q-70 -5 -161 -5q-47 -72 -126.5 -131.5t-159.5 -85.5q-55 -19 -101 -13q-43 5 -70.5 32t-25.5 69q2 39 29.5 68.5t70.5 44.5q82 27 305 35l21 42q-24 -3 -48 -3
q-71 3 -121.5 46t-67.5 98t-4.5 112t56.5 86q24 16 52.5 22t65.5 -7t65 -51l6 -9q35 19 69 -6t42 -85q11 -69 -14 -154q55 39 81 95q2 5 6 1q3 -2 1 -5zM441 256q28 68 29 134t-30 127q-40 -47 -40 -181q0 -7 -4 -7q-6 1 -8 9q-19 143 42 195l-7 9q-27 36 -59.5 49t-58 8
t-48.5 -20q-38 -26 -48 -79.5t6.5 -107t63.5 -95.5t112 -45q29 0 50 4zM463 188q-19 2 -45 0q-55 -88 -138 -139t-169 -39q-2 0 -3 2.5t0.5 4t3.5 1.5q83 -12 162 36.5t132 133.5q-75 -3 -162.5 -16t-136.5 -29q-80 -26 -83 -79q-2 -35 29 -56t71 -26q178 -22 339 206z
M451 527q66 -114 3 -269q28 7 42 14q32 100 24 183q-4 46 -25 67t-44 5zM493 262q-28 -10 -43 -13q-9 -22 -22 -44q15 1 43 1q13 28 22 56z" />
    <glyph glyph-name="I" unicode="I" horiz-adv-x="441" 
d="M235 140q58 166 45 294q-2 19 -8 46q-125 -13 -167 -71q-32 -44 7 -83q29 -30 91 -41q7 -2 2 -6.5t-12 -2.5q-66 20 -101.5 47.5t-35.5 55t22.5 53t72 44.5t114.5 26q-29 76 -92 85q-60 8 -106 -48q-63 -76 -44 -208q15 -104 75.5 -151t136.5 -40zM295 482q6 -22 9 -50
q11 -123 -50 -289q20 4 34 10q28 85 46.5 181t19.5 148q-32 2 -59 0zM197 23q10 0 32 -2q30 46 55 119q-13 -4 -35 -8q-19 -53 -52 -109zM214 -1q-11 1 -31 1h-1q-11 -18 -27 -37q3 0 11 2q24 6 48 34zM409 27q27 -11 34 -30q6 -18 -20 -21q-15 -1 -38 4q-73 14 -138 18
q-26 -33 -51 -46q-22 -13 -52 -2q-38 -42 -77 -62q-28 -14 -53 -15t-42 18q-3 6 2 7q3 1 4 -1q26 -34 89 0q37 20 68 57q-32 14 -39 31q-2 8 5 8q3 0 4.5 -2t4.5 -6.5t8 -7.5q12 -10 25 -13q16 19 26 36q-141 -3 -141 -47q0 -10 10 -22.5t20 -18.5q8 -5 -2 -6q-8 -1 -14 3
q-41 28 -41 51q0 64 172 64q7 0 10 -1q27 46 49 107q-80 -6 -145.5 46t-79.5 156q-19 142 54 218q54 56 124 44q71 -14 103 -90h37.5t40.5 1l16 15q23 16 24 -14q95 -4 106 -14q2 -2 3 -4q1 -7 -1 -8t-10 0q-11 2 -20 2q-8 0 -38.5 0.5t-43.5 0.5q-25 -171 -70 -307
q51 36 61 90q1 5 5 1q3 -2 2 -5q-16 -65 -73 -101q-31 -89 -66 -143q68 -8 130 -23q36 -8 41 -1t-28 28q-4 3 0 5q2 1 5 0z" />
    <glyph glyph-name="J" unicode="J" horiz-adv-x="421" 
d="M281 152q37 169 -33 263q-15 18 -27 29q-56 -26 -74.5 -63.5t-3.5 -69.5t50.5 -56t78.5 -27q8 -1 2.5 -7t-13.5 -5q-68 13 -109 42t-48.5 64t16.5 72t79 65q-59 32 -117 -8q-38 -25 -52.5 -73t-5.5 -94t42 -81.5t82 -37.5q15 -1 14 -4t-15 -2q-71 3 -110 60.5t-28 128.5
t69 110q69 45 135 8q21 9 52 19q42 12 136 18l20 2l3 3q4 3 8.5 7t10 7t10 3t6.5 -4q1 -2 1 -6v-6.5t1 -2.5q94 -4 105 -14q3 -2 3 -4q1 -7 -1 -8t-10 0q-11 2 -20 2l-81 1q-18 -145 -79 -315l44 3q21 2 23 -3q2 -3 -5 -6q-5 -2 -12 -2q-27 -2 -54 -6q-110 -305 -244 -388
q-62 -39 -115.5 -51.5t-87 -1.5t-50 40t-12.5 68.5t32.5 88.5t79.5 94q120 108 304 148zM331 147q-17 -2 -41 -8q-26 -102 -82 -192t-134 -144.5t-153 -43.5q-2 0 -3 2t0.5 4t3.5 2q73 -11 147.5 42t128.5 140t79 186q-194 -50 -298 -164q-45 -48 -69 -92.5t-25.5 -76
t15 -51.5t46.5 -24t75 11t96 50q116 81 214 359zM261 422q72 -95 33 -267l42 7q62 189 74 319q-94 -7 -110 -11q-35 -9 -64 -20q17 -17 25 -28z" />
    <glyph glyph-name="K" unicode="K" horiz-adv-x="655" 
d="M376 506q18 -1 17 -11q0 -12 -22 -12q-12 -82 -28 -152q33 -2 54 -7q45 90 90 143t115 70q2 1 4.5 1.5t5.5 1t5 0.5q52 7 90.5 -26.5t44.5 -86.5q0 -15 -1 -15q-4 0 -4 12q-6 49 -45.5 72.5t-89.5 17.5q-58 -7 -106.5 -59t-95.5 -134q68 -19 100 -61.5t19 -88.5
q-16 -52 -76 -81q53 -68 85 -90q37 -24 60 -24q38 0 38 50q0 44 -28 85q-2 2 -2 4t2 2t7 -5q33 -38 33 -83q0 -32 -19.5 -54t-51.5 -22q-46 0 -97 45q-37 31 -67 79q-56 -10 -100 18q-3 2 -1 5.5t6 1.5q42 -27 90 -17q-18 30 -48 88.5l-38 73.5q-67 -247 -156 -295
q-37 -19 -81 13q-26 19 -19 26q1 2 4 2t4.5 -2t4.5 -6.5t8 -7.5q24 -18 49 -12q51 12 95 117.5t71 240.5q-27 -2 -40 -5q-27 -119 -63 -202q-39 -91 -102 -109q-50 -14 -79 25q-37 47 -2 124q9 19 22 39q31 46 105 87q-113 39 -118 97q-4 50 73 87q74 36 186 39q3 30 3 49
q0 2 2.5 3t4 -0.5t1.5 -3.5q0 -18 -3 -48h44l16 15q23 16 24 -14zM169 286l4 -1q8 -2 0 -7q-5 -4 -11 -2l-7 2q-70 -39 -103 -88q-51 -76 -26 -132q19 -40 61 -38q56 3 95 79q5 9 10 20q37 87 61 197q-42 -8 -84 -30zM281 483q-144 -4 -199 -65q-39 -42 -8 -83
q23 -32 81 -46q50 25 100 36q17 75 26 158zM447 98q53 28 67 75q12 42 -16.5 82.5t-92.5 58.5l-50 -92l38.5 -52.5zM303 331q20 97 20 151q-11 1 -34 1q-9 -80 -25 -156q24 4 39 4zM341 324q-4 -20 -14 -60l23 -36l44 89q-31 6 -53 7z" />
    <glyph glyph-name="L" unicode="L" horiz-adv-x="433" 
d="M105 315q-45 64 -33 146.5t75 114.5q51 26 96 -18.5t45 -154.5q0 -68 -22 -157q15 0 35 5q31 163 71 234q58 107 114 100q39 -5 55 -63q22 -78 -21 -166q-27 -56 -82 -103.5t-129 -69.5q-17 -56 -40 -103q18 -11 47 -27t101 -45.5t122 -34.5q70 -7 87 40q4 9 8 8t1 -9
q-14 -39 -54 -54.5t-81 -10.5q-45 5 -105.5 33.5t-98.5 54.5l-37 26q-61 -93 -157 -75q-76 13 -101 69q-20 46 9 79q30 33 91 22q38 -8 109 -43q11 22 23 58q-84 -4 -120.5 38t-7.5 106zM253 246q19 89 19 155q0 132 -58 166q-41 25 -83 -11q-49 -43 -45 -124q3 -49 28 -101
q16 27 43 45q7 5 9 1q1 -1 -1 -2q-32 -26 -43 -60q20 -31 56 -49.5t75 -19.5zM495 367q39 85 29 153q-6 43 -30 41q-46 -5 -110 -160l-21 -54q-14 -37 -28 -83q58 30 92 99q2 5 6 1q3 -2 1 -4q-38 -77 -102 -107l-17 -50q123 34 180 164zM243 71l-35 18q-45 -74 -103 -71
q-6 0 -4 5q0 3 3 3q55 -3 95 67q-54 24 -76 28q-67 12 -90 -28q-19 -33 8 -65q21 -26 64 -31q28 -3 53 3t39.5 17.5t25.5 23.5t15 21zM251 238q-82 3 -132 59q-5 -48 32.5 -77.5t86.5 -29.5q5 16 13 48zM245 172q-14 -39 -26 -64l34 -18q10 20 32 89q-14 -3 -40 -7zM299 242
q-16 -4 -35 -4q-8 -32 -13 -48q18 2 39 6z" />
    <glyph glyph-name="M" unicode="M" horiz-adv-x="833" 
d="M554 498q5 1 6 -3q-2 -7 -10 -10q-8 -1 -18 -8q73 -110 -8 -352q11 -2 31 -8l13 23q96 158 146 225q128 168 221 168q24 0 39.5 -19.5t13.5 -46.5q-1 -10 -4 -11t-4 4q-1 1 -1 3q0 44 -46 44q-17 0 -39 -9q-39 -18 -84.5 -61.5t-87.5 -100t-76 -107l-66 -100.5
q-7 -12 -11 -18q111 -45 79 -139q-1 -2 -3.5 -2.5t-4 1.5t-0.5 4q16 46 -5 79t-70 51l-2 -3q-77 -118 -101 -118q-6 0 -4 6q25 64 42 131q-10 2 -30 4q-24 -84 -73 -140.5t-106 -82.5q-52 -24 -101 -15t-63 45q-7 -1 -21 -1q-16 0 -33 2.5t-34 14t-17 29.5q0 16 12 19
q6 1 7 -3q0 -2 -2 -4q-9 -12 3.5 -24t26.5 -16q29 -8 54 -4q-7 43 38 95q50 58 159 84q14 26 24 51q5 10 27 62t43 94t42 76q-27 84 -90 124q-7 1 -21 1q-69 0 -141.5 -54t-104.5 -129q-9 -19 -16 -51q30 -59 89 -59q42 -1 78.5 24.5t40.5 59.5q0 2 2 3t4 -0.5t2 -3.5
q-4 -37 -43.5 -64.5t-83.5 -26.5q-56 0 -91 46q-5 -53 18 -88t81 -35q43 0 77.5 24.5t51.5 47.5q5 8 6 3q1 -4 -2 -10q-11 -27 -58 -57.5t-94 -30.5q-40 0 -66.5 17.5t-37 46t-10 62t10.5 66.5q-17 56 6.5 116.5t86.5 98.5q98 58 199 11l5 -3q7 1 21 1q102 0 150 -61
q13 9 28 12zM365 120q-88 -167 -222 -186q12 -32 53 -40t92 15q63 29 106 86.5t63 129.5q-44 3 -92 -5zM879 434q4 0 5 -3t-0.5 -6t-5.5 -3q-30 2 -57.5 -49.5t-43.5 -120t-25 -131t-7 -87.5q4 -48 25 -61.5t47 3t48 51.5q5 8 9 5.5t0 -10.5q-23 -45 -63.5 -64.5t-74 2
t-34.5 83.5q0 35 10.5 97t31 131t56.5 117.5t79 45.5zM339 545q-96 39 -184 -14q-50 -30 -71.5 -80t-15.5 -101l9 18q40 69 112 118t150 59zM465 370q-15 -34 -42 -107.5t-39 -100.5l-13 -30q39 5 89 2q3 12 7 36q17 109 -2 200zM139 -53q97 19 174 163q-94 -23 -137 -74
q-42 -49 -37 -89zM501 440q-12 -20 -24 -45q29 -103 0 -239q-1 -6 -5 -23l30 -3q49 203 -1 310zM467 424q7 10 25 33q-35 59 -107 72q56 -38 82 -105zM551 110l-29 8q-22 -66 -50 -121q21 10 79 113z" />
    <glyph glyph-name="N" unicode="N" horiz-adv-x="686" 
d="M320 379q-26 36 -27.5 80t17.5 72q-62 7 -123 -38t-91 -121q-10 -26 -15 -55t-3 -57t17.5 -45t43.5 -15q29 3 56.5 31t39.5 49q5 7 7 3q2 -3 0 -8q-10 -24 -47.5 -58.5t-69.5 -36.5q-43 -3 -61.5 33.5t-13.5 85t25 87.5q38 74 108.5 119.5t140.5 43.5q18 20 42 23
q30 5 56 -6t45 -36.5t33.5 -55t26 -71.5t18.5 -75t14 -75q20 -8 44 -25l16.5 76t19 72.5t26 70.5t32.5 54t44 40t55 13q38 0 61 -26t29 -53q2 -9 -4 -9q-2 0 -4 5q-5 17 -24.5 34t-47.5 17q-27 0 -50.5 -12t-41.5 -36.5t-32.5 -50.5t-27 -64.5t-20.5 -68.5t-18 -72
q20 -16 38 -40q33 -45 33 -92t-26 -59q-18 -8 -38 9.5t-37 62.5q-8 -27 -16 -43q33 -66 72 -66q16 0 32.5 10t27 20t11.5 10q2 0 2 -2t2 -3q1 -1 0 -2q-44 -46 -89 -46q-42 0 -78 49q-6 -5 -18 -5q-15 0 -15 9q0 2 3.5 3t10 2.5t10.5 3.5q-41 86 -62 221q-21 2 -42 -3
q-46 -122 -133 -218q46 -14 90 26q5 5 6 -2q1 -2 -1 -4q-46 -43 -101 -27q-30 -33 -61 -57q-87 -70 -175 -70q-29 0 -47 17t-18 46q0 34 25 66q0 3 4 3q2 0 2 -3l-8 -20q-8 -19 -8 -35q0 -25 15 -43.5t39 -18.5q110 0 217 122q-39 21 -44 63.5t37 87.5q59 58 140 75
q27 68 33 130q-38 118 -130 135q-19 -26 -18.5 -68.5t26.5 -78.5q1 -2 0 -4t-3 -2t-4 2zM411 252q-67 -18 -123 -71q-39 -42 -36 -79.5t36 -56.5q75 88 123 207zM512 266q19 -3 37 -9q-10 49 -23.5 96t-36 102t-54.5 85t-68 24q-16 -3 -33 -16q112 -12 147 -141
q16 -57 31 -141zM590 112q11 -33 24.5 -52.5t24 -24t19.5 -0.5q20 10 20.5 50t-30.5 88q-17 22 -34 36q-15 -65 -24 -97zM551 247q-16 7 -37 10q27 -136 49 -186q8 17 16 48q-12 35 -23 100zM560 243l4 -23q10 -56 19 -86q7 29 18 86q-21 14 -41 23zM441 269q12 1 37 1
q-6 30 -13 84q-10 -44 -24 -85z" />
    <glyph glyph-name="O" unicode="O" horiz-adv-x="534" 
d="M125 420q-4 103 74 140q49 23 103 3t101 -76q67 -14 111 -62.5t44 -118.5q0 -86 -51 -164q-14 -90 -68 -146t-126 -56q-62 0 -116 28q-99 1 -134.5 59t-12.5 145q-11 41 -11 95v1q-1 65 54 122q14 15 32 30zM355 319q-14 -36 -40.5 -51t-55 -10t-55.5 21.5t-46 40.5
q-63 -70 -87 -144q18 -110 93 -173q13 -3 33 -1q82 4 169 59.5t130 138.5q-2 39 -10 77q-24 117 -93 199q-17 4 -40 4q-132 0 -215 -82q5 -26 13 -45l3 -5q90 86 181 86q12 0 12 -7q0 -6 -13 -6q-78 0 -169 -93q23 -33 58.5 -50.5t71 -7.5t52.5 52q1 4 5 2.5t3 -5.5z
M380 491q-43 47 -89 64t-88 -2q-71 -35 -67 -126q91 66 217 66q9 0 27 -2zM217 -31q45 -21 97 -21q62 0 110 46t64 122q-50 -64 -122.5 -103.5t-148.5 -43.5zM418 469q61 -82 84 -192q3 -16 7 -46q15 40 15 88q0 55 -29 94.5t-77 55.5zM145 340l-5 10q-7 22 -11 39
q-27 -30 -42 -62q-17 -33 -21 -69v-36q25 62 79 118zM143 6q-55 52 -82 126q-5 -47 16.5 -80.5t65.5 -45.5z" />
    <glyph glyph-name="P" unicode="P" horiz-adv-x="606" 
d="M32 110q0 15 3 30q16 97 112 173q-11 14 -12 32.5t9 38t28.5 39t49 37t68 31t89 21t109.5 7.5q26 27 55 33q7 1 7 -4q0 -8 -10 -10q-15 -3 -31 -20q96 -4 160.5 -36t60.5 -88q-4 -45 -54.5 -86.5t-131.5 -67.5q-9 -79 -83 -112q-5 -2 -6 3q-1 3 2 4q33 15 53.5 42.5
t25.5 59.5q-61 -18 -136 -24l-9 -27q-90 -246 -278 -246q-51 0 -80 26.5t-27 64t26 79.5zM156 304q-92 -72 -107 -166l-1 -5q73 82 206 96q6 1 6 -5t-7 -8q-72 -11 -125.5 -46t-81.5 -80q3 -40 22 -62t47 -25q41 -5 77.5 22.5t62.5 77t41 88t27 79.5l7 22q-21 -5 -63 -11
q-76 -7 -111 23zM450 378q18 -8 25 -12q36 17 70 42q12 9 12 0q0 -7 -10 -13q-33 -22 -58 -37q53 -37 55 -100q71 27 108.5 64t40.5 74q4 46 -52 77.5t-139 34.5q-24 -34 -52 -130zM433 480q-24 -18 -54 -90q6 0 9 -1q14 0 26 -3q36 88 65 123q-59 -1 -116 -15.5
t-96.5 -36.5t-70.5 -47.5t-38 -48t1 -39.5q91 66 209 68q36 79 60 97q2 1 4 0t2.5 -3t-1.5 -4zM346 296l-8 -28q-8 -29 -19.5 -60t-33 -73t-45 -73t-57 -51t-68.5 -16q-28 3 -49.5 22t-29.5 52q-23 -45 -2.5 -80t78.5 -35q47 0 86 22.5t67.5 62.5t46.5 76.5t35 83.5l39 110z
M537 255q-2 63 -56 98q-30 -16 -45 -23q-26 -90 -31 -104q10 2 27.5 3.5t22.5 2.5q41 8 82 23zM364 382q-108 -3 -196 -68q26 -20 92 -11q33 3 78 13q9 27 26 66zM376 382q-16 -42 -22 -62l40 12q2 6 8 22.5l9 24.5q-14 2 -23 2q-4 1 -12 1zM467 362l-19 8l-6 -20z" />
    <glyph glyph-name="Q" unicode="Q" horiz-adv-x="535" 
d="M485 113q6 -52 -18.5 -98t-77.5 -64q-68 -23 -136 22q-28 -5 -52 -5q-73 0 -114.5 33t-44.5 84t15 112q-18 32 -18 71q0 66 54 122q19 22 48 41q22 48 58.5 82.5t75.5 48.5t76.5 14t66.5 -18.5t40 -52.5q6 -16 6 -40q94 -53 94 -159q0 -104 -73 -193zM524 319
q0 84 -63 128q-8 -34 -33.5 -58t-58.5 -25q-4 0 -4 4t4 4q31 1 55 24t30 56q-45 28 -101 28q-127 0 -209 -76q-13 -40 -17 -84q44 50 99 82t109 32q5 0 9.5 -2t3.5 -7q-1 -4 -14 -4q-49 0 -106.5 -40t-102.5 -101l2 -35q12 -148 106 -239q64 12 127 51t105 95
q-15 39 -49.5 65.5t-74.5 23t-63 -46.5q-1 -2 -3 -2t-3.5 2t-0.5 4q20 36 49.5 47t58.5 0.5t54.5 -33t38.5 -50.5q52 73 52 157zM634 -261q-17 -24 -45.5 -36.5t-55.5 -11.5t-51 6q-43 12 -91 44.5t-84 67.5t-81.5 72.5t-81.5 54.5q-57 28 -89 -10q-27 -31 -12 -72
q13 -39 59 -51q11 -3 12 -8q0 -3 -4 -4q-6 -1 -14 2q-67 23 -76 73q-7 44 31 72q43 33 106 11q42 -14 89.5 -49t83.5 -68.5t89.5 -67.5t108.5 -48q18 -8 50 -3t48 28q8 11 11 6q1 -2 -3 -8zM456 469q0 19 -6 35q-18 50 -72.5 62.5t-117 -20t-99.5 -102.5q86 49 192 49
q57 0 103 -24zM111 259q-27 -41 -41 -84q-24 -77 10.5 -127t116.5 -46q3 0 9 0.5t9 0.5q-90 90 -103 244q0 2 -0.5 6t-0.5 6zM272 -24q60 -36 115 -17q46 16 68 55t20 87q-85 -97 -203 -125zM123 382q-22 -25 -36 -55q-22 -44 -22 -91q0 -9 1 -14q15 38 45 78q1 44 12 82z
" />
    <glyph glyph-name="R" unicode="R" horiz-adv-x="688" 
d="M84 -19q47 -2 87 22t67.5 66.5t45.5 84.5t32 91q7 27 11 46q-21 -4 -60 -10q-64 -6 -98.5 14t-32.5 56q-29 11 -50 32.5t-26 48.5q-8 44 9.5 81t50 55t73 20.5t77.5 -23.5q35 -23 56 -64q75 18 162 18q26 27 55 33q7 1 7 -4q0 -8 -10 -10q-15 -3 -31 -20q96 -4 160.5 -36
t60.5 -88q-5 -62 -93.5 -114t-216.5 -65l43.5 -65l51 -75.5t46.5 -57t57 -51.5q35 -24 60 -24q38 0 38 51q0 45 -29 84q-4 6 0 6t8 -5q32 -37 32 -83q0 -32 -19.5 -53.5t-51.5 -21.5q-47 0 -97 44q-25 22 -49 55.5t-38.5 60t-36.5 70.5t-33 63h-2l-9 -27q-90 -246 -278 -246
q-79 0 -101 57q-21 56 25 121q61 85 190 107q13 3 27 4q6 1 6 -5t-7 -8q-119 -19 -187 -99q-52 -61 -39 -112t85 -51q47 0 86 22.5t67.5 62.5t46.5 76.5t35 83.5l39 109l-42 -13q-4 -25 -12 -51q-14 -48 -33.5 -91.5t-49.5 -87.5t-73 -69t-92 -23q-6 1 -4 6q1 3 4 2z
M502 508q-26 -37 -60 -158q58 26 103 58q12 9 12 0q0 -7 -10 -13q-61 -42 -111 -65l-29 -97l4 -6q43 5 44 5q113 24 173.5 70t64.5 94q4 46 -52 77.5t-139 34.5zM317 499q-19 38 -51 59q-34 22 -72 22t-66.5 -18t-44.5 -52.5t-8 -75.5q9 -49 62 -73q7 40 53.5 78t126.5 60z
M332 315q15 99 -8 167q-67 -23 -113 -59.5t-55 -68.5q59 -14 100 26q5 5 6 -2q1 -2 -1 -4q-43 -43 -107 -28q-3 -25 23.5 -37t82.5 -6q36 3 72 12zM333 485q28 -68 14 -167q20 5 47 14q45 127 85 177q-77 -1 -146 -24z" />
    <glyph glyph-name="S" unicode="S" horiz-adv-x="520" 
d="M366 -84q-4 -28 -28.5 -52.5t-57 -34t-65 -6t-56.5 34t-27 84.5q-51 8 -79.5 34t-29.5 59.5t16 70.5q9 16 25 31q-58 54 -61 133.5t61 156.5q42 46 99 68t113 18q29 22 68 35q54 18 109 8t80 -45q27 28 49 43q11 6 12 -1q1 -4 -4 -7q-26 -19 -50 -44q20 -35 2 -70
q-14 -27 -45 -33q-27 -5 -28 18q0 6 2 15q7 27 47 63q-14 36 -64 46.5t-102 -9.5q-18 -7 -43 -24q80 -18 107 -81q1 -2 -0.5 -4t-3.5 -2t-3 2q-28 63 -106 79q-21 -18 -28 -40t4 -50t42 -55l25 -20q34 20 63 24.5t46 -5.5t26 -29t6.5 -45.5t-16.5 -54.5l15 -24
q43 -82 -22.5 -155t-194.5 -98q-62 -13 -118 -10q7 -57 39 -83.5t67.5 -21.5t66 28t34.5 54q0 2 2.5 3t4 0t1.5 -4zM217 209q37 55 72 85l20 17q-36 28 -39 31q-46 47 -44 88.5t42 75.5q-109 3 -187 -83q-41 -45 -54.5 -98.5t-1 -100.5t45.5 -81q54 47 146 66zM440 183
q-10 -12 -29 -28q-89 -76 -224 -70q-7 0 -19 2q-11 -31 -16 -67q-3 -33 -3 -59q55 -10 119 7q98 24 147.5 81.5t28.5 122.5q-3 9 -4 11zM170 94l18 -2q121 -5 211 70q20 17 35 35q-26 46 -118 110q-21 -18 -22 -19q-34 -30 -66 -76q47 7 73 3q11 -2 10 -11q-1 -5 -7 -4
q-37 6 -85 -2q-31 -51 -49 -104zM131 -35q0 19 3 42q6 38 21 82q-43 9 -77 35q-4 -5 -10 -15q-25 -51 -7 -89.5t70 -54.5zM461 239q31 66 -0.5 100.5t-107.5 -7.5q80 -59 108 -93zM158 96q20 52 50 100q-84 -17 -124 -65q30 -26 74 -35zM518 424q19 27 6 60q-29 -37 -35 -62
q-3 -14 7 -14q13 1 22 16z" />
    <glyph glyph-name="T" unicode="T" horiz-adv-x="464" 
d="M324 538l19 -31q136 -35 155 -39q43 59 86 66q6 1 6 -3q-1 -8 -10 -10q-29 -5 -58 -57q161 -27 241 42q7 5 7 -3t-7 -13q-73 -64 -248 -39q-18 -37 -54 -136.5t-57 -146.5q-96 -218 -255 -242q-84 -63 -164 -52q-6 1 -3 6q1 2 4 2q73 -10 147 42q-8 -1 -25 -1
q-78 0 -96 56q-18 55 32 120q67 86 198 109l28 4q6 1 6 -5q0 -7 -7 -8q-123 -19 -197 -102q-56 -62 -45 -112q11 -49 81 -49q24 0 50 7q111 94 168.5 262t8.5 283q-100 23 -135 26q-57 6 -96 -10q-14 -40 -9 -87.5t27 -81.5q6 -1 17 -1q67 0 117 30t62 61q3 10 8 5
q4 -4 1 -11q-14 -38 -64 -70.5t-124 -31.5h-4q29 -32 71 -35q4 0 3.5 -3t-4.5 -3q-49 3 -82 42q-53 5 -86.5 36t-38 68t24.5 71.5t87 44.5q13 21 34 38q21 16 49.5 21.5t65.5 -8t65 -51.5zM353 484q42 -114 -12.5 -274.5t-160.5 -258.5q98 43 181 230l39 91t48 108.5
t41 74.5q-71 12 -136 29zM323 513l-12 17q-27 36 -60 49.5t-58.5 9t-44.5 -19.5q-16 -12 -27 -29q37 5 83 -1q41 -5 119 -26zM109 337q-21 35 -25.5 78.5t8.5 83.5q-40 -19 -51 -54t8.5 -66.5t59.5 -41.5z" />
    <glyph glyph-name="U" unicode="U" horiz-adv-x="707" 
d="M127 559q-59 24 -117.5 -21t-44.5 -106q5 -15 12 -27q24 43 73 77t103 50.5t107.5 13t85.5 -31.5q26 6 55 9q31 2 60.5 -12t37 -40t-33.5 -62q-30 -26 -89 -47q-11 -43 -46 -110.5t-58 -125.5t-17 -105q30 6 60 21q29 14 51 35.5t33 43.5t15.5 42.5t0.5 36t-14 21.5
q-6 4 -1 6q2 1 4 0q17 -10 21.5 -35.5t-4 -54.5t-33.5 -59t-60 -47q-35 -18 -70 -24q9 -37 48 -37q77 0 173 161q32 53 79 165t87 233q2 11 17 14t28.5 -4t11.5 -20q-111 -262 -111 -431q0 -38 6 -61t14.5 -30t19 -6.5t18.5 5.5t14 11q26 26 40 63q1 2 4 2.5t5 -1.5t1 -4
q-16 -45 -42 -72q-39 -43 -79.5 -22t-42.5 95q-3 59 13 173q-47 -85 -65 -114q-109 -177 -194 -177q-60 0 -79 54q-45 -1 -84 16.5t-64 50t-35.5 73.5t0 91t42.5 99q-55 12 -88 41l-2 -4q-7 -16 -10 -33t-0.5 -35t16 -34t37.5 -25q5 -2 1.5 -6t-9.5 -1q-60 31 -68 74
q-8 42 13 87q-12 17 -16 34q-10 42 16 80t70.5 54t85.5 0q5 -2 3 -6q-1 -2 -5 -1zM105 329q-56 -87 -54.5 -157.5t50 -114.5t120.5 -41l-1 4q-9 49 9 104t54.5 123t48.5 102q-128 -34 -218 -21q-3 1 -9 1zM-2 382q34 -28 90 -41q20 27 26 34q80 92 204 131q-27 26 -73 24
t-93 -20.5t-90 -53.5t-64 -74zM110 337q9 -2 30 -4q89 -5 195 26q17 49 10 94q-4 25 -19 45q-115 -39 -196 -136zM378 372q57 22 81 43q47 45 22 74t-77 26q-32 -4 -50 -9q21 -25 27 -58q7 -34 -3 -76z" />
    <glyph glyph-name="V" unicode="V" horiz-adv-x="543" 
d="M247 545q-10 10 -27 22q-58 38 -100 5.5t-28 -99.5q73 65 155 72zM338 336q-18 125 -78 195q-7 1 -22 1q-74 0 -142 -75q21 -68 90.5 -99.5t151.5 -21.5zM274 528q60 -72 78 -190q24 4 34 8q-14 156 -112 182zM536 518q10 -9 11.5 -27t-5.5 -34q-31 -74 -120 -109
q4 -86 -19 -186t-56 -165q9 5 24 25t27 40l27 46.5l18 31.5l28 47.5l40 67l46 73t53.5 78.5t56 70.5t59.5 62t57 39.5t55 16t40 -19.5t14 -46.5q-1 -11 -5.5 -11t-4.5 7q0 43 -46 43q-20 0 -39 -8q-34 -16 -74 -54.5t-86.5 -102.5l-74 -104t-74.5 -115.5l-50 -80.5
q-2 -2 -9 -12.5l-13.5 -20l-15.5 -22.5t-17.5 -23l-17 -19.5t-16 -15t-12.5 -5.5q-8 0 -4 6q26 62 43 161.5t11 185.5q-9 -2 -34 -7q15 -114 -11.5 -230.5t-83.5 -184.5q-5 -5 -7 1q-1 2 1 4q52 63 76.5 179t10.5 229q-84 -9 -157 22t-97 94q-27 -33 -42 -71
q-14 -37 -16 -74t17.5 -66.5t62.5 -29.5q34 0 62 21.5t40 40.5q6 9 6 1q0 -3 -2 -7q-10 -24 -47 -50.5t-73 -26.5q-49 0 -72 36.5t-19.5 83.5t24.5 87q22 41 53 72q-12 48 8 86t56.5 45t80.5 -19q19 -12 34 -28h5q76 1 114 -50.5t44 -136.5q81 35 110 102q7 16 6.5 31
t-6.5 21q-5 4 1 6q2 1 4 0z" />
    <glyph glyph-name="W" unicode="W" horiz-adv-x="816" 
d="M543 364q0 -19 2 -59q46 92 46 134q0 23 -12 22q-18 -2 -29 -41q-7 -25 -7 -56zM273 176q-125 -62 -196 -161q-28 -40 -36 -73t4 -47.5t32 -17.5t48.5 14.5t52.5 51.5q60 85 95 233zM505 230q-50 -2 -76 -6q-30 -3 -60 -12q-33 -122 -102 -261q11 3 18 10
q60 59 124 135.5t96 132.5v1zM709 184q-60 38 -157 45q8 -68 10 -82q13 -93 -7 -147q16 23 70.5 84.5t83.5 99.5zM150 470q18 9 40 10.5t46.5 -6t43 -36t23.5 -74.5q8 -77 -11 -170v-1q21 11 42 18q24 128 -3 206q-30 84 -112 84q-79 0 -141 -65.5t-62 -143.5
q0 -38 18 -61.5t55 -23.5q35 0 70.5 24t57.5 56l4 4q2 0 2 -3q0 -2 -2 -6q-21 -34 -65 -63.5t-81 -29.5q-41 0 -61.5 27t-20.5 69q0 48 20 90q28 61 91.5 101.5t130.5 40.5q60 0 96.5 -24t48.5 -67t9.5 -92.5t-17.5 -109.5q35 11 66 14q38 5 66 5q-3 66 12 135t47 87
q8 5 16 5q27 0 27 -35q0 -48 -59 -149q0 -3 4 -43q102 -5 166 -49q121 161 119 291q-1 39 -19 63t-60 37q-9 3 -9 9q-1 8 18 2q61 -20 89 -55t27.5 -74.5t-24 -90.5t-54 -95t-74.5 -97q59 -48 48 -104q-8 -40 -52.5 -56t-69.5 18q-1 2 0 4t3 2t4 -2q20 -29 59.5 -15t47.5 50
q9 49 -48 94l-68.5 -77.5l-66.5 -74t-37 -47.5q-7 -12 -10 9q-2 10 -2 22q0 35 -14.5 110t-16.5 94q-36 -56 -103.5 -140t-118.5 -127q-31 -26 -37 -12q-2 4 2 13q59 143 82 256q-23 -8 -42 -17q-35 -147 -106 -246q-47 -66 -104 -72q-43 -4 -55 31q-14 44 35 113
q75 105 215 175q22 102 14 178q-5 44 -21 70.5t-37.5 33.5t-41 5.5t-36.5 -9.5q-5 -3 -5 2q-1 4 2 5z" />
    <glyph glyph-name="X" unicode="X" horiz-adv-x="577" 
d="M440 494q14 -28 -6.5 -69t-70.5 -67q0 -18 2 -54l169 135q78 61 119 107q34 39 55 41q6 0 6 -4q1 -10 -25 -39q-22 -24 -122 -101q-155 -117 -201 -155v-48v-30.5t1 -44.5l3 -46.5t6.5 -49.5t12 -39t19.5 -29.5t28 -8.5q25 2 50 18q21 13 34.5 26t42.5 50q6 7 10.5 3
t-2.5 -13q-39 -46 -76 -77q-55 -47 -90 -50q-20 -1 -34.5 11.5t-22.5 34.5t-13.5 50.5t-7 58.5t-2.5 59t0 52t0 38q-4 -3 -11.5 -9.5l-13.5 -12t-12 -9.5l2 -61q0 -8 1 -32.5t2 -42.5t4 -44.5t9 -45t15 -36.5t24 -27.5t34 -9.5q36 0 62 25q3 3 6 0t0 -6q-34 -29 -68 -29
q-23 0 -40.5 9t-28 27.5t-17 37t-9.5 46t-4.5 46t-1.5 45.5t-1 37q-1 16 -1 50q-209 -181 -296 -340q-21 -38 -39 -40q-4 -1 -6 1.5t-2 7.5q-2 12 10 28q108 173 333 362q0 84 -1 102q-39 -3 -81 5q-88 20 -119 101q-34 -37 -52 -82q-15 -35 -17 -71t18.5 -64.5t66.5 -28.5
q36 0 65.5 21t42.5 39q5 7 6 2q0 -3 -2 -7q-10 -23 -49.5 -49t-78.5 -26q-52 0 -76 35t-20 80t26 84q25 45 65 84q-12 44 -3.5 74.5t28 46t49.5 11.5t59 -28q14 -12 23 -24q43 6 71.5 -4.5t41.5 -38t17.5 -54t5.5 -68.5q41 26 60.5 64t9.5 56q-2 4 2 6t6 -2zM275 340
q-5 119 -46 178q-8 0 -12 -1q-73 -7 -136 -72q12 -36 41 -63t74 -37q46 -9 79 -5zM217 533q-12 14 -20 20q-51 42 -92.5 8.5t-27.5 -100.5q64 57 134 71q1 0 3 0.5t3 0.5zM238 518q37 -61 46 -177q20 3 39 9q-1 34 -4.5 58.5t-12 50.5t-26 41t-42.5 18zM323 342
q-19 -6 -38 -9q1 -14 1.5 -29.5t1 -34.5t0.5 -29l36 30q-1 20 -1 72z" />
    <glyph glyph-name="Y" unicode="Y" horiz-adv-x="707" 
d="M369 339l3 1q16 2 23 4q-5 46 -15 74q-29 90 -97 110q16 -18 24 -29q53 -77 62 -160zM247 545q-30 25 -60.5 33t-52.5 -0.5t-37.5 -27t-15 -45t14.5 -54.5q61 82 151 94zM358 338q-11 83 -66 159q-17 22 -31 36q-43 5 -86 -20.5t-71 -73.5q26 -39 80 -69q72 -41 174 -32z
M224 -116q-12 22 -31 36q-28 22 -60 24t-56.5 -13.5t-40.5 -41t-15 -61.5t23 -72q21 35 62 63q51 35 118 65zM246 -136q11 -49 -16 -97q-1 -2 -3.5 -2t-3.5 1.5t0 4.5q23 40 11 87q-69 -32 -118 -65q-41 -30 -58 -57q39 -46 105 -55q70 -9 143.5 38.5t119.5 120.5
q30 45 54 125q-140 -55 -234 -101zM496 -28q-23 -86 -55 -136q-50 -75 -128 -123.5t-152 -38.5q-68 8 -108 53q-12 -25 1 -46q19 -33 80 -37t106 11q107 28 190 118t108 216zM564 246q-13 -28 -23 -69t-21 -97.5t-19 -88.5q32 12 40 16q0 2 3.5 28l8 57t14 77.5t21 91
t30.5 95.5t42 93q-40 -48 -79 -107.5t-77.5 -125.5t-48.5 -82q-79 -119 -101 -119q-3 0 -4.5 2.5t0.5 4.5q24 59 38.5 147t7.5 167q-9 -2 -23 -4h-4q4 -50 -2 -116q-9 -99 -40 -195q-1 -5 -5 -2q-3 1 -2 4q29 89 37 194q6 65 2 114q-104 -10 -179 32q-56 32 -80 68
q-4 -6 -15 -31q-11 -28 -12 -57t14 -52t49 -23q43 0 79 49q4 6 4 1q0 -2 -2 -6q-7 -18 -35.5 -39t-57.5 -21q-38 0 -56 28.5t-15 65t19 67.5q12 22 19 31q-14 25 -15.5 51t8.5 45.5t28.5 32.5t42 16t52.5 -7.5t57 -34.5q51 2 92 -27t60 -88q11 -32 14 -79q44 15 71 39.5
t29 56.5q0 2 2 3t4 0t2 -4q-6 -70 -107 -103q4 -79 -16 -167t-51 -149q9 4 24 24t27 40.5l27 47l18 31.5q9 15 41 72.5l57 100.5t66 97.5t81 89.5q9 8 18 4.5t-1 -19.5q-47 -69 -77.5 -158t-40 -153.5t-14.5 -120t-6 -58.5q28 12 79 41q19 11 18 6q-2 -7 -22 -20
q-54 -36 -80 -48q-23 -92 -77 -178t-137 -143q-63 -43 -130 -61q-57 -17 -113.5 -6t-79.5 51q-21 34 -3 77q-24 38 -25.5 78.5t16.5 69t45 47t62 17.5t65 -24q24 -18 36 -44q35 15 75.5 30.5l92 34t79.5 29.5q10 36 23 94.5t24 101t23 69.5q5 11 9 7q3 -3 0 -10z" />
    <glyph glyph-name="Z" unicode="Z" horiz-adv-x="546" 
d="M454 433q-18 -9 -99 -88l29 -9q81 78 152 122q-30 2 -92.5 6.5t-115 7.5t-92.5 3q-35 0 -73 -16t-41 -50q-1 -8 1.5 -16.5t5 -14t2.5 -6.5q0 -6 -5 -6l-2 1q-14 24 -11 48q3 33 30.5 58t57.5 31q19 4 42 4q43 0 97.5 -6.5t119.5 -16.5t96 -14q38 21 69 21q24 0 23 -12
q-2 -22 -97 -22q-60 -45 -140 -134q93 -50 119 -155t-36 -186q47 7 76.5 47.5t8.5 84.5q-3 4 2 7q4 2 5 -1q29 -59 -16.5 -110.5t-110.5 -62.5q-56 -44 -139 -57q-75 -12 -108 24t-17 88l-44 15q-67 -56 -121 -40q-31 9 -32 33q-1 25 37 37q13 4 31 5q37 3 76 -5
q1 1 54.5 70t79.5 100q-11 0 -32 -3q-36 -45 -74 -82q-71 -67 -114 -39q-33 22 -24 80q11 74 83 125q73 52 185 52q21 0 46 -5q79 81 107 94q10 5 10 1q0 -3 -9 -8zM208 31q22 34 57 52q16 8 44 13.5t55.5 1.5t34.5 -20q2 -5 -3 -5q-3 -1 -4 2q-12 18 -54.5 16.5
t-68.5 -15.5q-35 -19 -54 -47q9 -3 30 -9.5t30 -9.5t30.5 -9.5t32 -8.5l32.5 -6.5t33 -4.5t34.5 -2t36.5 2q65 78 43.5 183.5t-111.5 152.5l-72 -81q63 -2 105 -12q5 0 5 -3q-1 -2 -5 -2h-3q-18 3 -56 3q-40 0 -60 -1q-22 -24 -47.5 -56l-55 -69.5l-43.5 -54.5q26 -7 34 -10
zM339 340q-19 3 -39 3q-141 0 -218 -92q-49 -59 -44 -114q4 -41 37 -42q34 0 83 46q23 22 67 70q-72 -13 -73 -37q-1 -2 1 -8q0 -1 1 -2t1 -2l-1 -1q-3 0 -14 11q-5 9 -4 19q4 44 112 46q68 79 91 103zM202 1q-15 -47 17 -80t100 -22q72 12 118 47q-36 -2 -83 8t-69 17.5z
M124 25q-37 10 -67 11q-50 2 -52 -18q-1 -16 24 -24q45 -17 88 23q3 4 7 8zM349 338q-24 -25 -86 -100q7 0 17 -0.5t12 -0.5q49 56 86 93q-17 6 -29 8z" />
    <glyph glyph-name="bracketleft" unicode="[" horiz-adv-x="585" 
d="M573 697q0 -9 -1 -13q-4 -1 -14 -1q-12 0 -36 2t-36 2q-43 0 -55 -7q-26 -16 -61 -60q-80 -94 -181.5 -282t-101.5 -278q0 -56 77 -56q12 0 37 2.5t38 2.5q29 0 29 -12q0 -14 -112 -14q-108 0 -108 36q0 76 61 222t146 279.5t147 178.5q25 19 70 19q101 0 101 -21z" />
    <glyph glyph-name="backslash" unicode="\" horiz-adv-x="551" 
d="M523 -84q0 -32 -26 -32q1 3 1 6t-0.5 7.5t-0.5 6.5q0 85 -51 200.5t-131 229.5t-156.5 207.5t-148.5 167.5q1 6 14 6q26 0 48 -19q27 -22 92 -106q51 -64 106 -143t115.5 -177.5t99 -194t38.5 -159.5z" />
    <glyph glyph-name="bracketright" unicode="]" horiz-adv-x="556" 
d="M538 679q0 -145 -83.5 -344t-186.5 -308q-42 -44 -175 -44q-48 0 -61 2q10 9 17 14t16 7t12.5 2.5t17.5 0t21 -0.5q48 0 82 11.5t61 43.5q79 94 159.5 281.5t80.5 298.5q0 13 -4 37q-13 9 -40 9q-17 0 -99 -5q32 32 109 32q3 0 16 0.5t17.5 0t14.5 -2.5t14 -5.5t7.5 -11
t3.5 -18.5z" />
    <glyph glyph-name="asciicircum" unicode="^" horiz-adv-x="323" 
d="M267 249q0 -4 -2 -5q-5 0 -8 1q-6 2 -7 4l-37 58l-108 -58q-4 -4 -14 -4q-8 -2 -8 2q0 1 0.5 1t0.5 1l122 86q30 4 31 0z" />
    <glyph glyph-name="underscore" unicode="_" horiz-adv-x="760" 
d="M714 -48q-200 -6 -215 -8q-10 -1 -114.5 -2l-214.5 -2t-121 -1q-28 -2 -28 8q0 5 13 15q15 9 26 13q12 4 418 4q180 0 236 -7q30 -3 30 -11q0 -7 -30 -9z" />
    <glyph glyph-name="grave" unicode="`" horiz-adv-x="245" 
d="M79 415q-6 6 -6 17q0 13 9 13q5 0 15 -8l84 -64q4 -3 4 -7q0 -7 -8 -7q-4 0 -6 1q-52 29 -92 55z" />
    <glyph glyph-name="a" unicode="a" horiz-adv-x="269" 
d="M325 67q-3 -7 -20.5 -24.5t-48.5 -34t-56 -8.5q-37 13 -37 102l-3 -6q-4 -5 -10.5 -15l-14.5 -21.5t-18 -23.5t-20 -21.5t-21 -14.5t-20 -4q-32 5 -32.5 44t25 88t62.5 84q69 63 128 33q18 -11 17 -32t-19 -24q16 28 -5 39q-26 13 -66 -21q-29 -25 -58 -64.5t-43 -72.5
q-15 -39 -7 -50t41 20q22 21 74 97q7 9 12.5 14t10 6.5t7 -4t2.5 -17.5q-4 -51 0 -76q6 -32 18.5 -40.5t41.5 5.5q8 4 15.5 10t14 12l11 10.5l8.5 8.5l4 5q1 1 3 0t3 -3z" />
    <glyph glyph-name="b" unicode="b" horiz-adv-x="259" 
d="M334 486q9 -14 1 -13q-4 0 -7 3q-23 19 -55 18q-47 -1 -111.5 -153t-69.5 -217q14 24 53 67t53 54q11 10 29.5 8t23.5 -18q6 -21 -5 -71t-36 -90q-29 -45 -80 -67.5t-86 -8.5q-24 9 -27 32t15 39q8 -70 55 -65q25 4 53.5 31.5t45.5 63.5q30 62 24 107q-1 16 -9 15
q-1 0 -2 -1q-46 -23 -79 -74.5t-34 -102.5q-1 -17 -23 6q-9 9 -11 10q0 47 24 147.5t64 176.5q45 87 98 120q5 3 27 8.5t27 3.5q28 -7 42 -29z" />
    <glyph glyph-name="c" unicode="c" horiz-adv-x="199" 
d="M202 66q-17 -21 -47.5 -44.5t-60.5 -33.5q-56 -18 -72.5 18t-2.5 90q20 76 73 133q45 46 86 10q5 -4 9.5 -15.5t1.5 -18.5t-8 3q0 1 -1 3q-6 11 -22 11q-28 0 -57 -46t-43 -87q-8 -21 -10 -41t7.5 -35.5t33.5 -10.5q55 10 112 76q7 7 7 0q0 -5 -6 -12z" />
    <glyph glyph-name="d" unicode="d" horiz-adv-x="306" 
d="M350 77q5 -9 -20 -32t-61 -39.5t-57 -7.5q-5 2 -9 8t-5.5 14.5t-2.5 19t0 21.5l2 21.5t2.5 20.5l2.5 17t2 12l1 4l-12 -14q-104 -132 -138 -126q-44 7 -29 74q16 70 73 130q71 76 134 47q2 -1 5 -2q14 31 40 106q27 81 56 96q15 8 16 -13q0 -5 -1 -10q0 -3 -14.5 -31.5
l-37.5 -77t-39 -89.5l-1 -2q-1 -1 -1 -2q11 -24 -2 -22l-6 2q-16 -44 -19.5 -104t13.5 -73q15 -7 41.5 7.5t46 30.5t20.5 14zM231 228q-26 22 -84.5 -38t-82.5 -120q-15 -39 -7 -50t41 20q24 23 58 69t56 81.5t19 37.5z" />
    <glyph glyph-name="e" unicode="e" horiz-adv-x="225" 
d="M243 70q-20 -24 -56 -46.5t-78.5 -33t-70.5 15.5q-29 27 -19 90q6 30 24.5 66.5t44.5 61.5q47 45 102 11q21 -17 18.5 -41t-21.5 -50h20q15 0 -6 -7q-11 -4 -25 -7q-10 -12 -20 -19q-16 -12 -15 -4q0 4 5 9l10 11q-81 -6 -86 -7q-10 -24 -11 -52q-2 -36 16 -50.5
t41 -10.5q64 11 124 74q6 6 8 1q2 -4 -5 -12zM181 179q6 28 -3.5 36.5t-25 1.5t-29.5 -21q-28 -26 -43 -55q74 2 86 2q12 24 15 36z" />
    <glyph glyph-name="f" unicode="f" horiz-adv-x="151" 
d="M318 452q5 17 -2 26.5t-22 9.5q-32 -1 -72 -54.5t-66 -107.5t-39 -92h88q8 0 8 -2q2 -5 -18 -9q-52 -12 -85 -12q-27 -66 -45 -194q-18 -140 -1 -187q6 -15 14 -23q5 -5 15 -10q7 -4 3 -6q-19 -7 -46 10.5t-31 52.5q-7 63 16 175.5t45 177.5q-27 -4 -35 13q-3 8 3 9
q5 1 19.5 2t18.5 2q50 129 82 181q69 115 140 94q20 -7 23 -28t-13 -28z" />
    <glyph glyph-name="g" unicode="g" horiz-adv-x="258" 
d="M260 84q-43 -43 -62 -55q11 -94 -11 -183.5t-82 -154.5q-46 -49 -105 -73q-49 -23 -108 -17t-96 43q-33 36 -30 76.5t38 78.5q39 42 98.5 80.5t144.5 84.5t124 70q-13 64 -17 68l-4 -6q-3 -5 -9.5 -15l-14.5 -21.5t-18 -23.5t-20 -21.5t-21 -14.5t-20 -4q-32 5 -32.5 44
t25 88t63.5 84q68 64 127 33q18 -11 17 -32t-19 -24q17 28 -5 39q-26 13 -66 -21q-30 -25 -58.5 -64.5t-41.5 -72.5q-16 -39 -8 -50t41 20q22 21 74 97q7 9 12.5 14t10 6.5t7 -4t2.5 -17.5q-1 -10 -0.5 -39t1.5 -47q27 18 61 48q15 13 15 8q1 -7 -13 -22zM174 16
q-284 -171 -350 -242q-67 -71 -21 -117q21 -21 57 -26.5t69.5 0.5t64.5 19q65 25 113 76q98 106 67 290z" />
    <glyph glyph-name="h" unicode="h" horiz-adv-x="242" 
d="M477 512q14 -37 0 -74t-50 -64q-40 -31 -107 -61.5t-109.5 -45l-124.5 -40.5q-16 -43 -34 -160q14 21 44 59.5l39 50.5q5 22 25 36q17 13 17 -6q0 -5 -1 -11q-12 -76 -12 -108q0 -46 11 -58.5t43 8.5q13 9 26.5 24t23.5 27.5t11 13.5q2 2 4 -4l1 -2q-8 -20 -55 -66
t-81 -29q-17 8 -22 44.5t-2 67.5t5 33q0 1 -2.5 -1.5t-8 -9l-11.5 -13.5t-14 -18t-14.5 -18.5t-15.5 -19t-13 -17.5q-3 -36 -26 -50q-10 -6 -10 0q-1 28 12.5 108t24.5 109q-31 -8 -33 -25q-2 -12 -7 -11t-4 11q1 28 51 43q26 85 76 168t111 129q43 34 94 45q44 9 83 -8
t55 -57zM468 501q-13 34 -52.5 44t-80.5 2q-30 -6 -56 -18.5t-45 -26t-37.5 -37t-29.5 -40t-24.5 -46t-19.5 -45t-17.5 -48t-15.5 -42.5q67 19 173.5 68.5t156.5 87.5q67 52 48 101z" />
    <glyph glyph-name="i" unicode="i" horiz-adv-x="142" 
d="M145 303q0 -5 -12 -19.5t-22 -17.5q-17 -4 -29 6q-4 3 -1 6q36 30 58 29q6 0 6 -4zM177 86q-15 -25 -63 -60q-44 -35 -68.5 -22.5t-18.5 78.5q3 28 33 134q2 8 22.5 7.5t20.5 -11.5t-7.5 -29.5t-17.5 -20.5q-5 -1 -15 -86q-3 -22 -1 -35.5t13 -17t34 16.5q59 48 61 51
q4 3 6.5 1t0.5 -6z" />
    <glyph glyph-name="j" unicode="j" horiz-adv-x="138" 
d="M164 303q0 -5 -12.5 -19.5t-22.5 -17.5q-14 -4 -28 6q-5 3 -2 6q37 30 60 29q5 0 5 -4zM120 220l-2 -10q-1 -11 -4 -22.5t-8.5 -22t-13.5 -11.5l-13.5 -68l-16 -78.5t-19.5 -69t-28 -63.5q-21 -34 -59 -54t-80 -6q-17 5 -12 34q1 9 5 10t4 -9q-1 -10 8.5 -20.5t26.5 -9.5
q28 1 53 31q19 22 36.5 59.5t29.5 76.5t23 82.5t16.5 75t9.5 57.5l5 25q3 10 29 1q10 -5 10 -8z" />
    <glyph glyph-name="k" unicode="k" horiz-adv-x="207" 
d="M285 486q6 -9 4.5 -11.5t-4.5 -1.5t-6 3q-21 19 -55 18q-44 0 -85 -77t-64.5 -170t-33.5 -176q13 42 31 73l-4 12q-5 22 2 25q4 1 8 -7q2 -4 4 -10v-1q27 45 59 77q37 36 82 44.5t56 -14.5q3 -5 -3 -7q-3 -1 -5 2q-6 8 -22 5t-41.5 -19.5t-51.5 -41.5q-35 -35 -62 -70
q23 -42 69 -84t81 -50q6 -1 -3 -4q-32 -9 -54 -1q-2 1 -8 3t-8.5 3t-7.5 4t-8.5 6t-8.5 8.5l-11 12.5q-31 40 -53 85q-36 -54 -45 -111v-5q0 -18 -23 5q-9 10 -11 11q0 32 17.5 123t42.5 172q44 144 126 186q63 33 96 -17z" />
    <glyph glyph-name="l" unicode="l" horiz-adv-x="166" 
d="M282 485q-1 -39 -19 -81t-55 -87.5t-59.5 -69.5t-65.5 -66q-40 -142 -11 -163q18 -13 59.5 6t63.5 48q14 17 13 5q0 -10 -6 -18q-17 -22 -63.5 -45.5t-71.5 -17.5q-58 14 -30 142q-11 -2 -10 6q1 9 18 27q60 250 158 332q17 14 36 17.5t31 -6t12 -29.5zM267 479
q1 39 -27 23q-13 -8 -26 -24q-29 -34 -69.5 -124.5t-58.5 -150.5q55 52 117.5 137.5t63.5 138.5z" />
    <glyph glyph-name="m" unicode="m" horiz-adv-x="402" 
d="M478 103q-12 -24 -67 -72t-95 -30q-22 10 -29 39.5t-4.5 53t9.5 63.5q-60 -64 -88 -102q-1 -34 -38 -55q-17 -10 -17 -4q9 27 19 94.5t10 96.5q-2 -2 -38 -48.5t-58.5 -78.5t-26.5 -45q-9 -24 -31 -30q-12 -4 -12 4q-1 2 0 4q0 1 5.5 23.5l9.5 39t9.5 48t6 50.5t-0.5 47
q-2 19 25 31q24 11 27 -2q1 -3 -1 -9q-7 -18 -18 -91t-13 -76q39 35 98 134q19 31 34.5 33.5t18.5 -45.5q0 -55 -8 -103q8 10 28 32.5t35 41.5l31 41q7 24 27 39q18 13 17 -10q0 -4 -1 -10q-15 -88 -19 -116q-5 -47 16.5 -61.5t59.5 10.5q12 8 25.5 19.5t22 21l16 18.5
t8.5 10q2 1 4 -0.5t3 -3.5v-2z" />
    <glyph glyph-name="n" unicode="n" horiz-adv-x="253" 
d="M268 24q4 4 4 -3q1 -10 -10 -21q-10 -11 -29 -19.5t-38 -5.5q-23 4 -33 25t-7 51t8.5 56.5t14 53t8.5 27.5q-9 -12 -40.5 -47.5l-56.5 -65.5t-29 -42q-9 -24 -31 -31q-12 -4 -12 4q-1 2 0 4q0 1 7 27t12 47.5t8.5 53t0.5 56.5q-2 20 23 31q23 11 28 -3q1 -3 0 -9
q-2 -10 -9 -47.5t-12.5 -64t-7.5 -30.5q59 54 127 160q5 9 23.5 7t20.5 -10q2 -6 -2 -19t-12.5 -38t-14.5 -48q-6 -25 -10 -48t-5 -44t3.5 -33t14.5 -11q29 4 56 37z" />
    <glyph glyph-name="o" unicode="o" horiz-adv-x="235" 
d="M293 185q6 0 0 -7q-2 -4 -8 -7q-19 -9 -45 -11t-37 4q2 -15 -8.5 -47.5t-27.5 -61.5q-21 -37 -46 -54t-44 -12t-33.5 22.5t-15.5 49t10 68.5q37 112 91 117q14 17 44.5 -2t33.5 -47q10 -12 23.5 -15t35 0t27.5 3zM183 169q-19 3 -30 14t-12 20l-1 9q-17 -4 -37 -39
t-31 -76q-19 -72 9.5 -86.5t65.5 44.5q17 27 28 64t8 50z" />
    <glyph glyph-name="p" unicode="p" horiz-adv-x="226" 
d="M239 149q-42 -25 -42 -26q-2 -54 -24 -85t-56 -40q-39 -9 -37 22q1 26 23 53q4 5 19 17l28 22l12 11q0 21 -16 55t-34 42q-1 1 -27 -72.5t-54 -165.5t-32 -131q0 -3 -1.5 -12l-2.5 -15.5t-1.5 -15.5t0.5 -16t3.5 -14t8 -11t13.5 -5q10 -2 10 -6q1 -5 -21 -1
q-25 4 -38.5 36.5t-5.5 68.5q10 47 39 139t53 161l25 68q-1 0 -4 1.5t-4.5 2t-3 2.5t-0.5 4q2 8 8 13.5t10.5 8t4.5 1.5l2 3q1 3 2.5 9t4 13t4.5 15.5t3 15.5v9.5t-2 7t-3 4.5t-3.5 3t-3.5 3q-7 3 1 6q4 1 9 0q20 -5 30 -16t8 -19l-19 -64q61 -39 71 -110q0 -1 6.5 2t18 10
t18.5 10q12 6 12 1q0 -7 -12 -15zM162 109q-37 -32 -53 -57q-17 -29 -0.5 -34t34.5 16l6 10q9 18 12 37.5t1 27.5z" />
    <glyph glyph-name="q" unicode="q" horiz-adv-x="232" 
d="M227 245q18 -11 17 -32t-19 -24q16 28 -5 39q-26 13 -66 -21q-29 -25 -58 -64.5t-43 -72.5q-15 -39 -7 -50t41 20q22 21 74 97q9 12 17 17t13.5 0.5t4.5 -20.5q-75 -202 -63 -287q5 -38 27 -51q16 -7 28.5 -2.5t18.5 13.5q5 9 8 6q3 -2 -1 -11q-11 -27 -29 -25
q-43 6 -64.5 40.5t-19.5 75.5q1 83 50 209l-3 -6q-4 -5 -10.5 -15l-14.5 -21.5t-18 -23.5t-20 -21.5t-21 -14.5t-20 -4q-32 5 -32.5 44t25 88t62.5 84q69 63 128 33z" />
    <glyph glyph-name="r" unicode="r" horiz-adv-x="177" 
d="M207 192q-24 47 -85 -20q-20 -22 -39 -51q-29 -44 -50 -115q-1 -6 -6 -7.5t-9 1.5t-3 8q6 25 15.5 104.5t10.5 103.5q1 17 27 25q24 7 26 -7q0 -3 -1 -6q-1 -4 -14.5 -53.5t-17.5 -58.5q24 42 61.5 82t57.5 39q27 0 35 -33q5 -19 -1 -19q-3 -1 -7 7z" />
    <glyph glyph-name="s" unicode="s" horiz-adv-x="198" 
d="M212 70l2 -1q-1 -7 -25 -24q-8 -6 -24.5 -15l-28.5 -16l-11 -7q-10 -19 -65.5 -29.5t-74.5 0.5q-6 4 -6.5 11t8 13.5t24.5 7.5q97 8 104 10q19 30 -15 59q-32 27 -48 60t0 60q39 65 94 57q31 -5 40 -26q3 -8 0 -15q-2 -5 -5 -4t-4 6q-3 26 -36 13q-36 -14 -54 -49
q-2 -4 -3 -7q-8 -22 1 -43t24.5 -34.5t24 -32.5t-0.5 -38q51 24 79 44z" />
    <glyph glyph-name="t" unicode="t" horiz-adv-x="167" 
d="M218 233q0 -2 -23.5 -4.5l-51 -5.5t-33.5 -5q-35 -86 -46 -144q-3 -16 -3 -27t3 -17t6.5 -10t12 -3t14 2t17 6.5l18 8.5t18.5 10q5 3 47 35q17 14 18 5q0 -13 -54 -51.5t-89 -37.5q-31 2 -40 17t0 66q3 19 15 54t21.5 60t8.5 25q-11 0 -74 -9q-3 -1 -5 7q-2 14 8 18
q13 5 78 8q31 106 46 137q7 16 25 -6q16 -20 10 -33l-49 -98q32 2 67 -0.5t35 -7.5z" />
    <glyph glyph-name="u" unicode="u" horiz-adv-x="281" 
d="M340 67q-2 -6 -20 -24.5t-48.5 -34.5t-55.5 -8q-18 6 -28.5 35t-12.5 54.5t-1 26.5l-4 -6q-4 -6 -10.5 -17.5t-15.5 -24.5t-19.5 -26.5t-21 -24t-22 -16.5t-20.5 -5q-33 5 -37 41.5t16 88.5t56 106q9 14 41 7q15 -6 14 -11q-24 -24 -50.5 -72t-39.5 -85q-13 -38 -2 -50
t45 19q8 7 19 22l20 27.5t22 33t19 28.5q8 12 15.5 17.5t12 1t3.5 -20.5q-3 -125 36 -131q13 -3 30 7q8 4 15.5 10t14 12l11 10.5l8.5 8.5l4 5q3 1 6 -4z" />
    <glyph glyph-name="v" unicode="v" horiz-adv-x="237" 
d="M280 197q11 -2 3 -13q-3 -6 -10 -8q-24 -7 -45 6q0 -15 -18.5 -50t-44.5 -63q-74 -82 -126 -69q-18 4 -19 29t8.5 53t18 57.5t6.5 38.5q-5 20 -14 23q-4 2 -1 10.5t13 22.5q5 7 27.5 4t22.5 -10q0 -13 -8 -47.5t-16.5 -66t-12.5 -60.5t4 -31q11 -7 35 10.5t51 48.5
q56 69 61 109q-14 16 -19 34.5t-1.5 30.5t11.5 14q17 3 23.5 -15.5t4.5 -38.5l-3 -20q16 -8 26.5 -8t16.5 4z" />
    <glyph glyph-name="w" unicode="w" horiz-adv-x="407" 
d="M459 192q6 1 6 -1q-3 -7 -40 -16q-9 -2 -16 -3q-12 -1 -46 4q9 -54 -11 -106q-11 -33 -36.5 -56t-51.5 -28.5t-48 18.5t-26 76q-1 16 -1.5 32.5t0.5 18.5q-11 -25 -24.5 -48t-33.5 -50.5t-44 -40.5t-47 -6q-21 7 -21.5 37t12.5 67t27.5 67.5t24.5 45.5q15 23 42 21
q16 -1 11 -12q-1 -1 -2 -3q-34 -38 -59.5 -116t-9.5 -87q17 -8 52 33.5t66 110.5q4 9 1 29q2 17 28 20q23 1 23 -13q0 -2 -3 -29.5t-4 -42.5t-2 -39t2 -40t10 -24q13 -13 30.5 -7.5t36 29.5t27.5 56q10 38 4 70l-12.5 17.5t-6.5 12t-3.5 14t3.5 12.5q4 8 22 9t24 -12
q6 -15 36 -19.5t60 -0.5z" />
    <glyph glyph-name="x" unicode="x" horiz-adv-x="212" 
d="M274 56q-2 -6 -17.5 -24.5t-44.5 -34.5t-55 -8q-44 14 -48 107l-42 -36q-19 -17 -31.5 -31t-17 -21.5t-6.5 -13.5t-1 -8.5t0.5 -4t-3.5 -2.5q-10 0 -10 15q0 12 7.5 25.5t22.5 27.5t25 22.5t30 23t23 16.5q-12 92 -26 98q-8 1 -20 -11q-8 -8 -11 0q-1 6 7 13
q17 15 35 22.5t26 -1.5q4 -9 9 -32.5t8 -42.5l3 -19q12 7 51.5 42t53.5 57q18 27 19 27q3 2 5 -5q4 -18 -31 -52l-95 -83q0 -2 2 -14t3.5 -18.5t4 -19t5.5 -20l7.5 -18t10 -15t12 -8.5t15.5 -2.5t19 7.5q24 14 48 46q1 1 3 0t3 -2z" />
    <glyph glyph-name="y" unicode="y" horiz-adv-x="242" 
d="M225 208q0 -28 -18 -107t-31 -108q31 7 34 24q1 6 4.5 9t6 0.5t1.5 -10.5q-4 -29 -54 -41q-30 -83 -84.5 -163.5t-117.5 -123.5q-46 -31 -96 -39q-45 -7 -82.5 11.5t-51.5 60.5q-12 38 3.5 74.5t52.5 61.5q90 61 349 128q7 17 14 49t16 79t10 53q-41 -74 -87 -128
q-6 -21 -26 -35q-18 -13 -17 7q0 5 1 11q35 152 -10 146q-8 -1 -19 -8q-9 -6 -10.5 -0.5t8.5 12.5q38 29 62 15q14 -8 17 -38.5t0 -55.5t-5 -27q0 -7 89 118q5 33 28 33q13 0 13 -8zM136 -31q-68 -16 -177 -60.5t-161 -79.5q-28 -19 -45 -45t-8 -53q12 -34 51 -46t80 -7
q30 4 56.5 15t46 23.5t39 35t31.5 38.5t27 45.5l22 44t20 47t18 42.5z" />
    <glyph glyph-name="z" unicode="z" horiz-adv-x="216" 
d="M255 227q-5 -16 -20 -30t-29 -16q-133 -113 -157 -160q106 13 141 13q24 0 34 -7.5t7 -18t-10 -20.5t-15.5 -17.5t-12.5 -7.5t-4 3q0 4 10 13.5t9 15.5q-2 11 -45 11q-51 0 -83 -2q-57 -6 -58 -6h-7q-7 5 -7 12q-2 5 2 11q7 16 45.5 55.5l84.5 85t58 58.5q-26 5 -62 2.5
t-57 -21.5l-5 -5q-26 -27 -26 -13q15 36 34 51q22 5 47 5.5t62 -0.5t48 -1q6 0 11.5 -3.5t4.5 -7.5z" />
    <glyph glyph-name="braceleft" unicode="{" horiz-adv-x="369" 
d="M423 724l-8 -3q-43 0 -73.5 -12t-46.5 -30.5t-27 -48t-15.5 -56t-11.5 -64t-14 -62.5q-18 -58 -61.5 -101t-99.5 -42h-4q46 -4 76.5 -33t30.5 -73q0 -41 -19 -121t-19 -122q0 -36 16.5 -55.5t36 -22t38.5 -4t22 -5.5q-2 -3 -12 -3q-30 0 -51 3t-41.5 12.5t-31 29
t-10.5 50.5q0 42 20 122t20 122q0 94 -117 96l5 8q85 9 117 37q23 20 36.5 53t18.5 67.5l10 72t16 70.5t31.5 59.5t61 42t100.5 15.5q4 0 6 -2z" />
    <glyph glyph-name="bar" unicode="|" horiz-adv-x="250" 
d="M59 -117q-1 0 -1 1q0 7 2 16l4.5 19.5t3.5 15.5q30 130 30 133q37 212 37 435q0 90 -6 135q-1 8 -7 31t-6 35q0 11 19 11q46 0 46 -98q0 -5 -0.5 -15.5t-0.5 -15.5q0 -90 -34 -368.5t-59 -314.5q-14 -20 -28 -20z" />
    <glyph glyph-name="braceright" unicode="}" horiz-adv-x="485" 
d="M471 296l-7 -9q-62 -1 -101.5 -24.5t-57.5 -60.5t-29.5 -81.5t-24.5 -88.5t-35 -80.5t-68 -59.5t-117 -23q-5 0 -6 2q4 3 49.5 7t71.5 23t45 63.5t29.5 90t31 95t48.5 76.5q27 26 66 45t75 23q-46 3 -78.5 25.5t-32.5 64.5q0 46 29 132.5t29 131.5q0 21 -5.5 33.5
t-17 18.5t-21.5 8t-28.5 4t-29.5 4l-2 2l7 4q28 0 45 -1.5t40.5 -8t35.5 -22.5t12 -42q0 -48 -31.5 -136.5t-31.5 -135.5q0 -42 30 -58.5t80 -21.5z" />
    <glyph glyph-name="asciitilde" unicode="~" horiz-adv-x="220" 
d="M233 21q4 4 4 -3q0 -9 -9 -18q-27 -27 -59 -22q-10 1 -16 4t-11.5 15t-3.5 34q2 18 14 50.5t23.5 57t11.5 25.5q5 16 -43 -33q-3 -4 -9 -10l-6 -6q-7 -7 -28 -24.5t-35 -31.5t-16 -23q-5 -20 -25 -26q-13 -3 -12 7q0 2 23.5 57.5t23.5 76.5q0 11 22 23q18 7 17 -5
q-4 -20 -20.5 -57.5t-23.5 -49.5q63 56 82 78q14 16 34.5 34t27.5 28q5 7 19 5t15 -9q1 -5 -7 -18t-20.5 -35.5t-20.5 -43.5q-26 -71 -15 -102q4 -11 14 -10q26 2 49 32zM259 273q-3 -10 -17 -21t-31 -15q-22 -6 -49.5 14t-42.5 20q-13 0 -25 -10.5t-16 -11.5q-26 0 11 25
q21 15 38 21q21 5 48 -17t43 -19h1q4 0 26 15q14 10 14 -1z" />
    <glyph glyph-name="nbspace" unicode="&#xa0;" horiz-adv-x="184" 
 />
    <glyph glyph-name="exclamdown" unicode="&#xa1;" horiz-adv-x="277" 
d="M237 176q0 -13 -9 -22t-23 -9q-13 0 -22 9q-10 9 -10 22t10 22q9 9 22 9q14 0 23 -9t9 -22zM168 60q-24 -59 -95 -199q-71 -139 -117 -218q-1 -4 -7 -4q-7 0 -22 10q-6 4 -14 14q-6 7 -4 9l132 196q63 96 98 196q6 17 20 17q11 0 11 -12q0 -3 -2 -9z" />
    <glyph glyph-name="cent" unicode="&#xa2;" horiz-adv-x="211" 
d="M223 550q-3 -4 -18 -43l-27 -72q35 -12 35 -50q-2 -19 -11 -30q-10 -12 -25 -12q-14 0 -23 10q-9 9 -9 22q2 32 32 30q17 0 22 -12q2 11 -3 19q-4 7 -11 9q-17 5 -41 -12q-25 -16 -45 -44q-41 -56 -38 -109q2 -44 36 -44q51 0 110 117q5 8 8 8t3 -4q0 -5 -1 -8
q-26 -60 -48 -86q-33 -37 -75 -38l-30 -70q-25 -63 -25 -94q0 -20 13 -24q7 -1 7 -6q0 -8 -10 -4q-24 7 -24 39q0 34 24 89l30 70q-56 5 -56 66q0 54 38 110q43 61 96 61h4l24 61q16 38 29 59q12 20 12 4q0 -6 -3 -12z" />
    <glyph glyph-name="sterling" unicode="&#xa3;" horiz-adv-x="382" 
d="M470 486q7 -36 -13 -88q-14 -39 -39 -69q-5 -5 -8 -5t-4 4q0 2 3 7q63 90 51 152q-6 30 -31 30q-32 0 -64 -41q-22 -30 -38 -78q-10 -33 -17 -80l-13 -82q19 -3 33 -3q10 0 19 3l12 5q3 0 5 -12q2 -6 0 -8q-14 -7 -32 -7q-20 0 -41 4q-28 -144 -100 -210q23 -19 74 -45
q44 -24 76 -33q17 -6 35 -6q33 0 51 17q25 19 17 60q0 5 2 5q3 0 4 -7l1 -2q9 -81 -78 -81q-33 0 -67 11q-31 10 -76 29q-52 23 -73 36q-25 -18 -53 -18q-26 0 -54 15q-33 19 -39 51q-6 26 9 41q12 13 33 13q27 0 61 -22q32 -24 58 -47q22 34 40 95q0 1 26 107q-18 2 -24 2
q-30 0 -47 -10l-4 -3q-3 0 -6 12q-1 5 1 7q16 13 53 13q13 0 31 -3q69 292 167 292q19 0 36 -12q18 -14 23 -39zM148 0q-38 30 -58 43q-39 29 -57 29q-21 0 -16 -26q5 -24 29 -44q20 -16 42 -19q4 -1 12 -1q28 0 48 18z" />
    <glyph glyph-name="currency" unicode="&#xa4;" horiz-adv-x="585" 
d="M400 347q11 -20 9 -43q-1 -39 -33 -72l78 -121l-113 94q-33 -18 -66 -18q-34 0 -60 17l-157 -97l131 126q-11 18 -9 41q1 42 33 75l-76 121l113 -93q30 18 66 18q35 0 59 -18l158 96zM297 367q-29 0 -51.5 -22t-23.5 -55t20 -54.5t49 -21.5q30 0 53.5 21.5t24.5 54.5
t-21 55t-51 22z" />
    <glyph glyph-name="yen" unicode="&#xa5;" horiz-adv-x="481" 
d="M485 365q0 -12 -5 -12t-5 4q0 1 0.5 2t0.5 2v3l1 1q0 14 -11 25q-10 11 -25 11q-49 0 -152 -182h70q1 0 1 -2q0 -4 -4 -8t-8 -4h-67q-4 -10 -35 -63h67q2 0 2 -2q0 -3 -4 -8q-5 -5 -8 -5h-66q-42 -63 -80 -101q-55 -55 -111 -55q-13 0 -13 4t10 4q40 0 92 57q30 35 68 91
h-152q-2 0 -2 2q0 3 5 8t7 5h152l3 5q0 26 -5 58h-94q-2 0 -2 1q0 3 5 8q4 5 7 5h82q-7 49 -29 91q-30 57 -68 57q-24 0 -41 -26q-15 -23 -15 -48q0 -16 9 -34l8 -17q0 -5 -4 -5q-2 0 -4 2q-17 25 -17 54q0 31 17 55q18 28 47 28q40 0 73 -39q27 -32 40 -74q12 -37 15 -78
l13 20q0 1 1 2.5t2.5 4t3.5 5.5q4 6 13.5 22t14.5 23q94 148 153 148q19 0 31 -13q13 -13 13 -32z" />
    <glyph glyph-name="brokenbar" unicode="&#xa6;" horiz-adv-x="323" 
d="M285 499l-62 -284l-32 3l60 281h34zM207 144l-60 -298h-35l64 301z" />
    <glyph glyph-name="section" unicode="&#xa7;" horiz-adv-x="440" 
d="M437 176q0 -64 -33 -112q-37 -55 -98 -55q-12 0 -25 3q-65 -51 -137 -51q-5 0 -17 2q16 -24 42 -32q4 -2 8 -2t7 2l8 2q4 0 4 -4q0 -8 -15 -8q-9 3 -11 4q-38 13 -51 38q-57 9 -88 40q-35 32 -35 88q0 54 31 100q32 47 80 66q34 14 68 14q53 0 84 -27q38 41 58 74v9
q0 49 12 74q-6 24 -6 38q0 32 24 32q22 0 22 -30q0 -23 -20 -71q6 -11 47 -71q28 -43 37 -80q4 -17 4 -43zM247 234q-30 27 -74 27q-63 0 -114 -55q-50 -53 -50 -119q0 -43 30 -78q31 -33 75 -36q-5 12 -5 33q0 38 19 85q-16 15 -16 37q0 7 5 20q4 13 10 13q2 0 2 -2l-6 -11
q-6 -10 -6 -21q0 -17 14 -31q31 69 116 138zM321 201q0 31 -1 52q-2 43 -3 53q-18 -28 -54 -66q22 -22 22 -59q0 -32 -18 -59t-48 -39q6 -34 40 -53q62 65 62 171zM255 26q-35 21 -42 54q-18 -6 -36 -6q-26 0 -42 11q-20 -43 -20 -76q0 -17 7 -36q77 0 133 53zM271 179
q0 28 -19 50q-84 -72 -115 -138q15 -12 36 -12t38 10q-1 3 -1 12q0 23 15 39q1 1 2 1q2 0 2 -3l-6 -11q-6 -9 -6 -26v-9q23 14 38 38q16 23 16 49zM394 179q0 49 -14 93q-1 5 -36 85q-2 -5 -11 -26l20 -82q10 -47 10 -84q0 -83 -74 -146q40 0 73 50q30 47 31 88q1 7 1 22z
M362 443q0 19 -13 19q-20 0 -20 -25q0 -24 17 -61q16 39 16 67zM341 364q-6 13 -9 26q-4 -8 -4 -21q0 -12 3 -27z" />
    <glyph glyph-name="dieresis" unicode="&#xa8;" horiz-adv-x="185" 
d="M155 309q0 -22 -21 -22q-23 0 -23 22t22 22t22 -22zM69 309q0 -22 -21 -22q-23 0 -23 22t22 22t22 -22z" />
    <glyph glyph-name="copyright" unicode="&#xa9;" horiz-adv-x="369" 
d="M375 203q0 -84 -63 -147t-147 -63q-73 0 -122 49q-49 48 -49 120q0 84 63 147q63 62 148 62q71 0 121 -48q49 -49 49 -120zM363 202q0 68 -46 114q-45 45 -114 45q-80 0 -138 -59q-60 -58 -60 -138q0 -68 46 -114t114 -46q78 0 139 59q59 59 59 139zM315 260
q0 -22 -38 -36q-29 -9 -57 -9q-55 0 -92 22q-45 -49 -45 -108q0 -32 15 -53q16 -25 47 -25q59 0 96 56q12 18 12 34q0 14 -9 23t-23 9q-29 0 -41 -28q-1 -4 -3 -4t-2 2l1 3q7 31 47 31q17 0 28 -11t11 -27q0 -37 -41 -66q-36 -26 -76 -26q-41 0 -63 23q-23 23 -23 63
q0 65 53 115q-21 18 -21 38q0 37 44 37q30 0 44 -14v-4q-23 12 -38 12q-42 0 -42 -34q0 -16 16 -32q53 48 128 48q25 0 46 -8q26 -9 26 -31zM307 263q0 31 -60 31q-64 0 -116 -54q35 -20 80 -20q32 0 56 8q40 12 40 35z" />
    <glyph glyph-name="ordfeminine" unicode="&#xaa;" horiz-adv-x="249" 
d="M176 320q-39 -41 -67 -38q-23 3 -26 39q-14 -20 -25 -28q-14 -12 -23 -12q-12 0 -12 16q0 15 9 28q21 33 49 46q13 5 21 5q19 0 19 -11q0 -2 -4 -4q-4 -1 -4 -2q-13 -22 -13 -42q0 -26 20 -26q21 0 51 33q5 4 6 2q2 -3 -1 -6zM93 364q-27 0 -48 -39q-6 -14 -6 -18
q0 -10 7 -10q5 0 15 8q17 14 23 30q3 17 9 29z" />
    <glyph glyph-name="guillemotleft" unicode="&#xab;" horiz-adv-x="301" 
d="M318 198q-8 -14 -51 -45l-56 -40l-1 -90l-3 -7l-5 -2l-5 2q-7 12 -14 50l-12 53q138 86 142 86l4 -2zM222 198q-8 -12 -51 -45l-57 -40l-1 -90l-3 -7l-5 -2q-1 0 -5 2q-5 13 -14 51q-9 40 -11 52q136 86 142 86l4 -2z" />
    <glyph glyph-name="logicalnot" unicode="&#xac;" horiz-adv-x="539" 
d="M446 185l-34 -161q-3 -15 -18 -15q-6 0 -9 5q-4 4 -4 10l28 129h-348q-14 0 -14 8q0 5 8 15q7 9 12 9h379z" />
    <glyph glyph-name="registered" unicode="&#xae;" horiz-adv-x="369" 
d="M375 203q0 -84 -63 -147t-147 -63q-73 0 -122 49q-49 48 -49 120q0 84 63 147q63 62 148 62q71 0 121 -48q49 -49 49 -120zM363 202q0 68 -46 114q-45 45 -114 45q-80 0 -138 -59q-60 -58 -60 -138q0 -68 46 -114t114 -46q78 0 139 59q59 59 59 139zM323 142
q-10 -26 -27 -44q-22 -25 -42 -25q-8 0 -16 6q-18 12 -21 51l-3 59h-8q-7 0 -10 1q-22 -53 -41 -75q-28 -35 -72 -46q-8 -2 -22 -2q-28 0 -28 18q0 19 18 19q5 0 5 -3q0 -2 -1 -2h-3q-1 1 -3 1q-10 0 -10 -13q0 -16 24 -16q41 0 76 48q14 22 43 84q33 66 75 96q-26 8 -60 8
q-93 0 -127 -58q-11 -19 -11 -38t12 -33q12 -13 32 -13q23 0 39 16q17 14 17 38q0 35 -32 35q-10 0 -20 -8q-9 -8 -9 -19q0 -9 11 -9l1 1l1 1q2 0 2 -1q0 -4 -5 -4q-13 0 -13 12q0 14 11 22q11 9 23 9q17 0 28 -11q10 -10 10 -27q0 -27 -19 -43t-46 -16q-23 0 -40 14
q-16 15 -16 38q0 18 7 32q18 35 64 53q34 14 84 14q35 0 62 -9q25 16 48 16l3 -1l-1 -1q-28 -3 -45 -16q42 -15 42 -46q0 -29 -29 -47q-24 -15 -56 -18q4 -10 7 -35q2 -26 4 -40q5 -29 15 -32q8 -2 10 -2q16 0 36 23q17 19 22 39h3zM293 255q0 27 -31 42q-28 -25 -57 -86
q12 -5 18 -16q28 5 47 18q23 17 23 42zM213 194q-4 9 -10 13l-5 -13h15z" />
    <glyph glyph-name="macron" unicode="&#xaf;" horiz-adv-x="323" 
d="M288 301l-14 -32h-155l14 32h155z" />
    <glyph glyph-name="degree" unicode="&#xb0;" 
 />
    <glyph glyph-name="plusminus" unicode="&#xb1;" horiz-adv-x="305" 
d="M311 191q12 0 12 -9t-14 -9q-28 0 -88 -4q-6 -27 -16 -91q0 -3 -8 -8q-7 -3 -14 -3q-13 0 -10 11l24 90q-37 -1 -95 -6q-7 0 -7 13q0 19 15 19q18 0 39 -1q13 0 31 -0.5t23 -0.5q4 19 23 97q3 14 14 14q6 0 5 -12q-8 -35 -20 -99q48 0 86 -1zM275 23q-108 0 -176 -8
q-4 -2 -7 6q-4 5 -4 13q0 13 11 13q4 0 13 -0.5t25 -1t30 -0.5l106 -4q14 0 14 -10q0 -8 -12 -8z" />
    <glyph glyph-name="twosuperior" unicode="&#xb2;" horiz-adv-x="238" 
d="M158 189q-5 -3 -5 3q0 3 4 4q10 5 10 11q0 8 -21 14q-20 7 -39 6q-30 0 -93 -23q-7 -3 -13 -3q-8 0 -8 6q0 8 10 16q9 9 21 9q36 13 87 46q59 39 87 75q23 31 23 50q0 23 -26 23q-15 0 -37 -9q-59 -25 -73 -68q-2 -5 -5 -5q-1 0 -1 6q6 31 43 59q36 27 69 27q19 0 31 -12
q11 -12 11 -31q0 -26 -21 -52q-17 -18 -47 -38l-21.5 -13t-25.5 -16q-29 -18 -51 -36q107 0 104 -31q0 -13 -13 -18z" />
    <glyph glyph-name="threesuperior" unicode="&#xb3;" horiz-adv-x="238" 
d="M61 364q1 30 44 48q34 15 70 15q37 0 59 -15q23 -15 23 -36q0 -44 -78 -68l-41 -8q30 0 45 -11q16 -12 16 -30q0 -24 -30 -47q-42 -30 -96 -30q-39 0 -48 21q-3 8 -3 16q0 23 27 28q5 0 5 -2q0 -3 -6 -3q-5 0 -11 -7t-6 -17q0 -8 4 -13q9 -12 34 -12q50 0 90 32
q22 18 22 34q0 18 -29 28q-23 8 -56 8q-9 -1 -9 4q0 6 33 9q45 5 51 7q68 17 68 58q0 18 -19 34q-20 14 -50 14t-61 -14q-36 -18 -39 -44q0 -6 -5 -6q-4 0 -4 7z" />
    <glyph glyph-name="acute" unicode="&#xb4;" horiz-adv-x="178" 
d="M165 335q-5 -8 -63 -35q-57 -27 -62 -25q-5 3 -2 9l82 61q14 10 27 10q4 0 12 -2q12 -6 6 -18z" />
    <glyph glyph-name="mu" unicode="&#xb5;" horiz-adv-x="216" 
d="M275 107q-51 -112 -96 -112q-35 0 -35 38q0 18 7 36q-46 -73 -85 -73q-22 0 -31 19l-86 -188q-1 -2 -9 -2q-16 0 -23 4q-3 1 -3 3l129 253l32 66q20 39 37 64h1q4 -4 11 -4q13 0 32 14l1 -1q-10 -12 -32 -51q-7 -13 -18 -31t-13 -22q-39 -66 -39 -99q0 -18 16 -18
q38 0 104 117q18 33 51 99h1q10 -5 17 -5q15 0 21 13h2l-52 -101q-46 -86 -46 -111q0 -14 11 -14q23 0 55 44q20 29 35 64h4z" />
    <glyph glyph-name="paragraph" unicode="&#xb6;" horiz-adv-x="269" 
d="M403 436l-12 -33h-14l-147 -403h-45l148 403h-33l-147 -403h-45l89 242q-74 0 -74 56q0 15 8 39q24 64 89 90q24 9 68 9h115z" />
    <glyph glyph-name="periodcentered" unicode="&#xb7;" horiz-adv-x="549" 
 />
    <glyph glyph-name="cedilla" unicode="&#xb8;" horiz-adv-x="253" 
d="M217 -77q0 -28 -34 -50q-17 -12 -51 -12q-18 0 -48 7q-36 9 -36 24q0 5 4 5q2 0 10 -8q16 -16 57 -16q49 0 64 24q10 13 10 27q0 17 -17 29q-14 9 -33 9q-13 0 -31 -8l-17 -8q-13 0 -13 10q0 3 3 6l26 21q24 18 25 18q4 0 5 -6q-29 -21 -29 -23q18 2 26 2q27 0 51 -11
q28 -15 28 -40z" />
    <glyph glyph-name="onesuperior" unicode="&#xb9;" horiz-adv-x="244" 
d="M190 445q-23 -32 -58 -94q-40 -74 -63 -130q-1 -4 -8 -4q-6 0 -6 6q0 3 1 4l43 90q23 51 38 91q-17 -8 -36 -27q-3 -4 -6 -4q-2 0 -2 2q0 7 78 80h4q7 0 12 -5q5 -6 3 -9z" />
    <glyph glyph-name="ordmasculine" unicode="&#xba;" horiz-adv-x="182" 
d="M49 321q-2 -14 -2 -18q0 -19 12 -19q16 0 28 17q-24 3 -38 20zM81 381q-15 -17 -26 -41q6 -28 36 -32q12 22 12 43q0 28 -22 30zM87 387l-2 -1q28 -9 28 -36q0 -23 -11 -41l-1 -1q31 0 51 20q2 2 3 2q2 0 2 -3q0 -2 -3 -5q-25 -22 -57 -22q-21 -25 -45 -25q-22 0 -22 26
q0 20 10 44q0 2 -0.5 6t-0.5 6q0 27 27 30q8 9 13 9q10 0 10 -6q0 -1 -2 -3z" />
    <glyph glyph-name="guillemotright" unicode="&#xbb;" horiz-adv-x="301" 
d="M165 100l-136 -85l-5 -1q-3 0 -5 1l-1 3q0 9 53 48l55 39l1 91l3 6l5 3l6 -3q7 -15 14 -51zM262 100l-137 -85l-5 -1l-5 1v6q10 14 51 44l57 40v30q-2 26 0 41q0 22 3 26l5 3l6 -3q2 -2 25 -102z" />
    <glyph glyph-name="onequarter" unicode="&#xbc;" horiz-adv-x="415" 
d="M405 229q-8 -6 -39 -58q-33 -51 -33 -56q2 -1 5 -2q14 -2 21 -4q16 -3 16 -8q0 -6 -6 -6v1q0 -1 -2 -1h-3l-11 2q-10 2 -18 2h-12q-1 -3 -13.5 -27.5t-22.5 -46.5l-16 -32q-3 -9 -8 -14q-7 0 -7 9t21 53l27 58q-2 2 -6 2q-54 0 -105 -17q-8 0 -8 9q0 5 15 16l20 12l91 64
q50 37 81 76q13 0 13 -24v-8zM415 444l-390 -507h-21l389 507h22zM227 445q-23 -32 -58 -94q-36 -63 -63 -130q-1 -4 -8 -4q-6 0 -6 6q0 3 1 4q7 13 14 28l15 33.5t13 28.5q25 53 39 91q-15 -7 -35 -27q-4 -4 -7 -4q-1 0 -1 2q0 7 77 80h4q7 0 12 -5q6 -6 3 -9zM365 214
q-26 -23 -69 -55q-41 -29 -55 -41h34q35 0 36 -1q9 0 54 97z" />
    <glyph glyph-name="onehalf" unicode="&#xbd;" horiz-adv-x="415" 
d="M415 444l-390 -507h-21l389 507h22zM370 -17q-6 -3 -6 3q0 3 4 4q11 6 11 11q0 7 -21 15q-21 6 -39 6q-35 -2 -93 -23q-10 -4 -13 -4q-8 0 -8 6q0 9 9 16q10 9 21 9q37 12 88 46q57 39 87 75q23 29 23 50q0 23 -26 23q-15 0 -38 -9q-58 -25 -72 -68q-1 -4 -5 -4
q-2 0 -1 5q6 30 42 59q36 27 70 27q19 0 31 -12q11 -11 11 -31q0 -27 -22 -52q-15 -18 -46 -38q-16 -9 -48 -29q-28 -18 -50 -36q53 0 79 -7.5t25 -23.5q-2 -14 -13 -18zM227 445q-23 -32 -58 -94q-36 -63 -63 -130q-1 -4 -8 -4q-6 0 -6 6q0 3 1 4q7 13 14 28l15 33.5
t13 28.5q25 53 39 91q-15 -7 -35 -27q-4 -4 -7 -4q-1 0 -1 2q0 7 77 80h4q7 0 12 -5q6 -6 3 -9z" />
    <glyph glyph-name="threequarters" unicode="&#xbe;" horiz-adv-x="415" 
d="M405 229q-8 -6 -39 -58q-33 -51 -33 -56q2 -1 5 -2q14 -2 21 -4q16 -3 16 -8q0 -6 -6 -6v1q0 -1 -2 -1h-3l-11 2q-10 2 -18 2h-12q-1 -3 -13.5 -27.5t-22.5 -46.5l-16 -32q-3 -9 -8 -14q-7 0 -7 9t21 53l27 58q-2 2 -6 2q-54 0 -105 -17q-8 0 -8 9q0 5 15 16l20 12l91 64
q50 37 81 76q13 0 13 -24v-8zM415 444l-390 -507h-21l389 507h22zM61 364q1 30 44 48q34 15 70 15q37 0 59 -15q23 -15 23 -36q0 -44 -78 -68l-41 -8q30 0 45 -11q16 -12 16 -30q0 -24 -30 -47q-42 -30 -96 -30q-39 0 -48 21q-3 8 -3 16q0 23 27 28q5 0 5 -2q0 -3 -6 -3
q-5 0 -11 -7t-6 -17q0 -8 4 -13q9 -12 34 -12q50 0 90 32q22 18 22 34q0 18 -29 28q-23 8 -56 8q-9 -1 -9 4q0 6 33 9q45 5 51 7q68 17 68 58q0 18 -19 34q-20 14 -50 14t-61 -14q-36 -18 -39 -44q0 -6 -5 -6q-4 0 -4 7zM365 214q-26 -23 -69 -55q-41 -29 -55 -41h34
q35 0 36 -1q9 0 54 97z" />
    <glyph glyph-name="questiondown" unicode="&#xbf;" horiz-adv-x="400" 
d="M340 176q0 -13 -9 -22q-11 -9 -23 -9t-23 9q-9 9 -9 22t9 22q11 9 23 9t23 -9q9 -9 9 -22zM332 -216q-27 -38 -96 -82q-92 -58 -164 -58q-26 0 -52 17q-29 21 -29 52q0 47 44 94q27 32 96 82q79 61 96 76q41 38 41 75v3q0 8 -8 8q3 7 3 13q3 13 16 13q11 0 18 -12
q4 -8 4 -18q0 -39 -43 -89q-29 -34 -93 -91q-59 -54 -92 -88q-41 -44 -41 -75t32 -31q76 0 163 55q65 42 89 76q5 7 13 7q10 0 10 -10q0 -7 -7 -17z" />
    <glyph glyph-name="Agrave" unicode="&#xc0;" horiz-adv-x="769" 
d="M542 145q-70 -92 -159 -77q-107 -86 -186 -111q-57 -19 -102 -13q-43 5 -68.5 32t-19.5 69q6 39 36 68.5t73 43.5q50 17 125 29q-25 57 -25 113q0 152 86 223q62 50 129 32q63 -16 83 -82q26 -84 -34 -205q-14 -28 -38 -64h45q20 20 121 161q17 24 47 62q11 70 10 87
q-2 48 -40 23q-15 -10 -34 -32t-22 -29q-5 -11 -11 -7q-4 3 -1 10q6 12 25 35t41 37q32 22 56 14t24 -45q0 -25 -12.5 -134.5t-15.5 -172.5q50 3 63 12q11 7 12 2q0 -7 -10 -13q-25 -15 -65 -21q-2 -99 7 -137t25.5 -54t34.5 -10.5t36 25t31 49.5q4 9 8.5 7t1.5 -11
q-13 -37 -40.5 -62t-56 -30.5t-53.5 17t-33 71.5q-8 52 -4 130q-15 -1 -125 -1q-53 -58 -114 -109q82 -8 143 73q4 5 6 -1q1 -2 0 -4zM429 202q24 35 41 70q66 133 19 216q-31 56 -93 58q-69 2 -116 -64q-49 -68 -49 -183q0 -60 24 -111q91 13 174 14zM253 165
q-96 -19 -144 -34q-82 -28 -89 -79q-5 -35 24.5 -56.5t68.5 -25.5q117 -15 248 103l-23 9q-133 -116 -257 -82q-5 1 -2 6q1 3 4 2q117 -31 245 80q-46 27 -75 77zM653 392q-12 -21 -28.5 -46t-29 -42l-36 -49.5t-34.5 -46.5q36 -2 109 1q3 78 19 183zM418 187
q-74 -7 -152 -20q30 -49 71 -71q43 39 81 91zM475 188q-18 2 -43 0q-39 -57 -85 -98q13 -5 23 -8q21 20 56 56.5t49 49.5zM599 648q-6 6 -6 17q0 13 9 13q5 0 15 -8l84 -64q4 -3 4 -7q0 -7 -8 -7q-4 0 -6 1q-52 29 -92 55z" />
    <glyph glyph-name="Aacute" unicode="&#xc1;" horiz-adv-x="769" 
d="M542 145q-70 -92 -159 -77q-107 -86 -186 -111q-57 -19 -102 -13q-43 5 -68.5 32t-19.5 69q6 39 36 68.5t73 43.5q50 17 125 29q-25 57 -25 113q0 152 86 223q62 50 129 32q63 -16 83 -82q26 -84 -34 -205q-14 -28 -38 -64h45q20 20 121 161q17 24 47 62q11 70 10 87
q-2 48 -40 23q-15 -10 -34 -32t-22 -29q-5 -11 -11 -7q-4 3 -1 10q6 12 25 35t41 37q32 22 56 14t24 -45q0 -25 -12.5 -134.5t-15.5 -172.5q50 3 63 12q11 7 12 2q0 -7 -10 -13q-25 -15 -65 -21q-2 -99 7 -137t25.5 -54t34.5 -10.5t36 25t31 49.5q4 9 8.5 7t1.5 -11
q-13 -37 -40.5 -62t-56 -30.5t-53.5 17t-33 71.5q-8 52 -4 130q-15 -1 -125 -1q-53 -58 -114 -109q82 -8 143 73q4 5 6 -1q1 -2 0 -4zM429 202q24 35 41 70q66 133 19 216q-31 56 -93 58q-69 2 -116 -64q-49 -68 -49 -183q0 -60 24 -111q91 13 174 14zM253 165
q-96 -19 -144 -34q-82 -28 -89 -79q-5 -35 24.5 -56.5t68.5 -25.5q117 -15 248 103l-23 9q-133 -116 -257 -82q-5 1 -2 6q1 3 4 2q117 -31 245 80q-46 27 -75 77zM653 392q-12 -21 -28.5 -46t-29 -42l-36 -49.5t-34.5 -46.5q36 -2 109 1q3 78 19 183zM418 187
q-74 -7 -152 -20q30 -49 71 -71q43 39 81 91zM475 188q-18 2 -43 0q-39 -57 -85 -98q13 -5 23 -8q21 20 56 56.5t49 49.5zM757 658q-5 -8 -63 -35q-57 -27 -62 -25q-5 3 -2 9l82 61q14 10 27 10q4 0 12 -2q12 -6 6 -18z" />
    <glyph glyph-name="Acircumflex" unicode="&#xc2;" horiz-adv-x="769" 
d="M542 145q-70 -92 -159 -77q-107 -86 -186 -111q-57 -19 -102 -13q-43 5 -68.5 32t-19.5 69q6 39 36 68.5t73 43.5q50 17 125 29q-25 57 -25 113q0 152 86 223q62 50 129 32q63 -16 83 -82q26 -84 -34 -205q-14 -28 -38 -64h45q20 20 121 161q17 24 47 62q11 70 10 87
q-2 48 -40 23q-15 -10 -34 -32t-22 -29q-5 -11 -11 -7q-4 3 -1 10q6 12 25 35t41 37q32 22 56 14t24 -45q0 -25 -12.5 -134.5t-15.5 -172.5q50 3 63 12q11 7 12 2q0 -7 -10 -13q-25 -15 -65 -21q-2 -99 7 -137t25.5 -54t34.5 -10.5t36 25t31 49.5q4 9 8.5 7t1.5 -11
q-13 -37 -40.5 -62t-56 -30.5t-53.5 17t-33 71.5q-8 52 -4 130q-15 -1 -125 -1q-53 -58 -114 -109q82 -8 143 73q4 5 6 -1q1 -2 0 -4zM429 202q24 35 41 70q66 133 19 216q-31 56 -93 58q-69 2 -116 -64q-49 -68 -49 -183q0 -60 24 -111q91 13 174 14zM253 165
q-96 -19 -144 -34q-82 -28 -89 -79q-5 -35 24.5 -56.5t68.5 -25.5q117 -15 248 103l-23 9q-133 -116 -257 -82q-5 1 -2 6q1 3 4 2q117 -31 245 80q-46 27 -75 77zM653 392q-12 -21 -28.5 -46t-29 -42l-36 -49.5t-34.5 -46.5q36 -2 109 1q3 78 19 183zM418 187
q-74 -7 -152 -20q30 -49 71 -71q43 39 81 91zM747 602q0 -4 -2 -5q-5 0 -8 1q-6 2 -7 4l-37 58l-108 -58q-4 -4 -14 -4q-8 -2 -8 2l1 1v1l122 86q30 4 31 0zM475 188q-18 2 -43 0q-39 -57 -85 -98q13 -5 23 -8q21 20 56 56.5t49 49.5z" />
    <glyph glyph-name="Atilde" unicode="&#xc3;" horiz-adv-x="769" 
d="M542 145q-70 -92 -159 -77q-107 -86 -186 -111q-57 -19 -102 -13q-43 5 -68.5 32t-19.5 69q6 39 36 68.5t73 43.5q50 17 125 29q-25 57 -25 113q0 152 86 223q62 50 129 32q63 -16 83 -82q26 -84 -34 -205q-14 -28 -38 -64h45q20 20 121 161q17 24 47 62q11 70 10 87
q-2 48 -40 23q-15 -10 -34 -32t-22 -29q-5 -11 -11 -7q-4 3 -1 10q6 12 25 35t41 37q32 22 56 14t24 -45q0 -25 -12.5 -134.5t-15.5 -172.5q50 3 63 12q11 7 12 2q0 -7 -10 -13q-25 -15 -65 -21q-2 -99 7 -137t25.5 -54t34.5 -10.5t36 25t31 49.5q4 9 8.5 7t1.5 -11
q-13 -37 -40.5 -62t-56 -30.5t-53.5 17t-33 71.5q-8 52 -4 130q-15 -1 -125 -1q-53 -58 -114 -109q82 -8 143 73q4 5 6 -1q1 -2 0 -4zM429 202q24 35 41 70q66 133 19 216q-31 56 -93 58q-69 2 -116 -64q-49 -68 -49 -183q0 -60 24 -111q91 13 174 14zM253 165
q-96 -19 -144 -34q-82 -28 -89 -79q-5 -35 24.5 -56.5t68.5 -25.5q117 -15 248 103l-23 9q-133 -116 -257 -82q-5 1 -2 6q1 3 4 2q117 -31 245 80q-46 27 -75 77zM653 392q-12 -21 -28.5 -46t-29 -42l-36 -49.5t-34.5 -46.5q36 -2 109 1q3 78 19 183zM418 187
q-74 -7 -152 -20q30 -49 71 -71q43 39 81 91zM767 649q-23 -48 -56 -45q-15 2 -34 11q-24 11 -34 11q-19 2 -29 -19q-2 -2 -8 -1q-5 1 -5 2q25 46 55 43q16 -2 35 -11q21 -8 34 -10q21 -2 30 20q1 2 7 2q6 -2 5 -3zM475 188q-18 2 -43 0q-39 -57 -85 -98q13 -5 23 -8
q21 20 56 56.5t49 49.5z" />
    <glyph glyph-name="Adieresis" unicode="&#xc4;" horiz-adv-x="769" 
d="M542 145q-70 -92 -159 -77q-107 -86 -186 -111q-57 -19 -102 -13q-43 5 -68.5 32t-19.5 69q6 39 36 68.5t73 43.5q50 17 125 29q-25 57 -25 113q0 152 86 223q62 50 129 32q63 -16 83 -82q26 -84 -34 -205q-14 -28 -38 -64h45q20 20 121 161q17 24 47 62q11 70 10 87
q-2 48 -40 23q-15 -10 -34 -32t-22 -29q-5 -11 -11 -7q-4 3 -1 10q6 12 25 35t41 37q32 22 56 14t24 -45q0 -25 -12.5 -134.5t-15.5 -172.5q50 3 63 12q11 7 12 2q0 -7 -10 -13q-25 -15 -65 -21q-2 -99 7 -137t25.5 -54t34.5 -10.5t36 25t31 49.5q4 9 8.5 7t1.5 -11
q-13 -37 -40.5 -62t-56 -30.5t-53.5 17t-33 71.5q-8 52 -4 130q-15 -1 -125 -1q-53 -58 -114 -109q82 -8 143 73q4 5 6 -1q1 -2 0 -4zM429 202q24 35 41 70q66 133 19 216q-31 56 -93 58q-69 2 -116 -64q-49 -68 -49 -183q0 -60 24 -111q91 13 174 14zM253 165
q-96 -19 -144 -34q-82 -28 -89 -79q-5 -35 24.5 -56.5t68.5 -25.5q117 -15 248 103l-23 9q-133 -116 -257 -82q-5 1 -2 6q1 3 4 2q117 -31 245 80q-46 27 -75 77zM653 392q-12 -21 -28.5 -46t-29 -42l-36 -49.5t-34.5 -46.5q36 -2 109 1q3 78 19 183zM418 187
q-74 -7 -152 -20q30 -49 71 -71q43 39 81 91zM475 188q-18 2 -43 0q-39 -57 -85 -98q13 -5 23 -8q21 20 56 56.5t49 49.5zM651 619q0 -22 -21 -22q-23 0 -23 22t22 22t22 -22zM737 619q0 -22 -21 -22q-23 0 -23 22t22 22t22 -22z" />
    <glyph glyph-name="Aring" unicode="&#xc5;" horiz-adv-x="769" 
d="M723 601q0 -18 -13 -30q-9 -9 -22 -12q15 -13 15 -40q0 -25 -12.5 -134.5t-15.5 -172.5q50 3 63 12q11 7 12 2q0 -7 -10 -13q-25 -15 -65 -21q-2 -99 7 -137t25.5 -54t34.5 -10.5t36 25t31 49.5q4 9 8.5 7t1.5 -11q-13 -37 -40.5 -62t-56 -30.5t-53.5 17t-33 71.5
q-8 52 -4 130q-15 -1 -125 -1q-53 -58 -114 -109q82 -8 143 73q4 5 6 -1q1 -2 0 -4q-70 -92 -159 -77q-107 -86 -186 -111q-57 -19 -102 -13q-43 5 -68.5 32t-19.5 69q6 39 36 68.5t73 43.5q50 17 125 29q-25 57 -25 113q0 152 86 223q62 50 129 32q63 -16 83 -82
q26 -84 -34 -205q-14 -28 -38 -64h45q20 20 121 161q17 24 47 62q11 70 10 87q-2 48 -40 23q-15 -10 -34 -32t-22 -29q-5 -11 -11 -7q-4 3 -1 10q6 12 25 35t41 37q18 12 34 15q-1 1 -7 6q-12 12 -12 30t12 30q15 13 30 13q17 0 30 -13q13 -12 13 -30zM429 202q24 35 41 70
q66 133 19 216q-31 56 -93 58q-69 2 -116 -64q-49 -68 -49 -183q0 -60 24 -111q91 13 174 14zM253 165q-96 -19 -144 -34q-82 -28 -89 -79q-5 -35 24.5 -56.5t68.5 -25.5q117 -15 248 103l-23 9q-133 -116 -257 -82q-5 1 -2 6q1 3 4 2q117 -31 245 80q-46 27 -75 77z
M653 392q-12 -21 -28.5 -46t-29 -42l-36 -49.5t-34.5 -46.5q36 -2 109 1q3 78 19 183zM418 187q-74 -7 -152 -20q30 -49 71 -71q43 39 81 91zM475 188q-18 2 -43 0q-39 -57 -85 -98q13 -5 23 -8q21 20 56 56.5t49 49.5zM711 601q0 13 -9 22t-23 9q-12 0 -21 -9t-9 -22t9 -22
t21 -9q14 0 23 9t9 22z" />
    <glyph glyph-name="AE" unicode="&#xc6;" horiz-adv-x="969" 
d="M491 186q-75 -2 -166 -7l-90 -85q39 -32 102 -32q43 0 64 21q2 3 5 0t0 -6q-25 -23 -69 -23q-66 0 -109 34l-36 -33q-78 -72 -132 -104q31 -16 75 -20q8 0 8 -3q0 -6 -12 -4q-46 4 -82 21q-107 -63 -171 -60q-28 0 -28 18q0 7 6 18q3 10 11 13q-6 -14 -6 -23
q0 -15 22 -15q62 -2 154 55q-53 24 -53 69q0 29 26 63q49 60 139 85l23 6q-13 39 -13 92q0 66 21 123q36 96 91 144q47 44 99 44q36 0 60 -24q23 -23 23 -66q0 -39 -21 -84q-30 -65 -153 -204l-9 -10q12 1 43 5q72 70 153 171q112 140 112 190q0 24 -26 26q-6 0 -6 3
q0 6 11 6q50 -2 50 -42q0 -25 -22 -69q4 -6 1 -14q-22 -88 -56 -251q46 31 115 54l95 20q-51 0 -90 24q-38 26 -35 60q6 46 61 85q48 34 115 52q57 16 103 16q52 0 85 -22q27 -18 27 -46q0 -21 -17 -38t-46 -22q-12 0 -12 4q0 7 12 6q12 -2 22 13q10 13 10 31q0 23 -18 40
q-21 18 -65 18q-42 0 -101 -18q-55 -17 -92 -51q-39 -34 -42 -72q-5 -38 60 -60q54 -19 123 -16q22 1 22 -13q0 -15 -26 -13q-82 3 -174 -21q-85 -23 -131 -66q-42 -40 -42 -86q0 -48 44 -80q46 -34 126 -34q28 0 53 4q92 12 161 54q75 46 79 99q2 9 5 9t3 -10
q-3 -64 -83 -114q-73 -45 -174 -57q-118 -15 -190 24q-67 36 -67 99q0 49 45 95v4zM174 259q0 -44 11 -83q36 7 73 11q108 108 160 219q22 45 22 85q0 36 -19 58q-19 21 -50 21q-46 0 -90 -43q-51 -47 -85 -140q-22 -59 -22 -128zM194 128q-7 10 -11 20q-30 -10 -56 -23
q-111 -55 -111 -115q0 -29 32 -53q48 31 123 100l45 42q-8 8 -14 17q-71 -70 -104 -70q-3 0 -3 3q-1 3 1 4q54 38 98 75zM566 445q-45 -71 -102 -132q-30 -32 -119 -116q21 2 75 4q51 0 75 2q13 56 36 126zM294 175l-44 -9l-41 -43h1q8 -12 13 -17zM194 151l8 -16l30 27
q-35 -10 -38 -11z" />
    <glyph glyph-name="Ccedilla" unicode="&#xc7;" horiz-adv-x="586" 
d="M311 -143q0 -42 -46 -77q-23 -18 -67 -18q-25 0 -63 10q-48 14 -48 37q0 7 6 7q4 0 13 -11q21 -25 75 -25q64 0 85 36q12 22 12 42q0 28 -22 44l-7 5q-35 -3 -61 5q-3 -1 -17 -8q-21 -12 -22 -12q-17 0 -17 15q0 4 4 10q2 3 13 13q-58 38 -73 117q-53 65 -53 156.5
t61 180.5q57 84 165.5 125t205.5 13q48 -13 81.5 -46t32.5 -80q4 -1 12 -5q11 -6 8 -13q-1 -4 -10 1l-11 5q-7 -59 -61 -117.5t-119 -83.5q-38 -14 -73.5 -15.5t-61.5 7.5t-42 27t-18.5 40.5t12.5 51t48 55.5q39 33 105 51t130 14q0 50 -54 66q-68 19 -155 -30t-142 -149
q-43 -80 -52 -171q25 -67 84.5 -105t139.5 -33q18 1 52 7q22 40 17.5 81.5t-32.5 56.5q-2 1 -1.5 3.5t2 3.5t3.5 0q32 -17 39 -58.5t-14 -82.5q102 31 152 111q25 40 31 38q8 -3 -11 -36l-6 -10q-25 -37 -73.5 -74t-108.5 -56q-34 -45 -81 -61q33 -23 33 -58zM551 390
q-28 7 -55 8q-5 -27 -23 -52q-31 -46 -81 -69.5t-106 -21.5q-14 1 -15 4q0 6 17 5q55 -1 104 22t73 62q16 27 21 50q-60 0 -122.5 -19.5t-96.5 -49.5q-29 -25 -39.5 -52t-2 -46.5t29 -34t53.5 -14.5t73 12q66 23 118.5 81t51.5 115zM77 160q11 80 51 152q70 127 186 168
q87 31 144 0q42 -23 40 -67q27 -1 51 -9q-10 65 -94 96q-32 13 -75.5 13t-93 -13.5t-99 -54.5t-82.5 -104q-47 -92 -28 -181zM300 -36q-49 -5 -90 3q-38 -32 -38 -35q18 3 34 3q34 0 60 -13q43 13 75 49q-26 -6 -41 -7zM91 30q16 -63 65 -94l15 13l24 22q-64 17 -104 59z
" />
    <glyph glyph-name="Egrave" unicode="&#xc8;" horiz-adv-x="568" 
d="M423 -6q0 -49 -18 -86.5t-46 -56.5t-63 -21t-67.5 13t-60.5 51t-42 88q-67 35 -85 109t19 167q-6 -1 -18 -5q-7 -1 -7 6q1 15 15 25q3 1 5 2l20 4l6 12q58 110 173.5 179t231.5 48q32 -5 52 -25q27 33 43 45q9 7 13 1q2 -4 -3 -8q-23 -18 -45 -46q25 -32 12 -69
q-10 -27 -39 -35q-28 -7 -32 16q-2 7 0 16q2 14 15.5 34t23.5 30q-15 17 -44 21q-113 15 -205 -45t-152 -165q16 2 44 4q79 139 234 184q4 1 5.5 -3t-2.5 -5q-134 -36 -216 -175q35 2 254 2q11 0 12 -6q0 -7 -18 -7q-139 0 -262 -15q-48 -96 -48 -194q0 -37 4 -62
q12 -12 32 -22q54 -27 118.5 -19.5t122.5 43.5q-12 51 -52 98q-22 -13 -38 -26q-43 -34 -67 -63q-7 -8 -7 -3q0 8 4 12q36 40 75 73q21 16 23 17q-58 58 -123 59q-3 0 -4 2t0.5 4t3.5 2q69 -2 132 -61q24 15 63 32q49 15 78.5 5t29.5 -43t-35 -69q-26 -26 -66 -51
q0 -3 0.5 -9t0.5 -9zM142 -25q20 -71 65.5 -106t89.5 -30.5t77.5 46t33.5 109.5q0 7 -1 10q-61 -33 -128.5 -42.5t-126.5 9.5q-8 3 -10 4zM363 127q42 -45 55 -95q45 32 70 70q26 40 9 58t-75 -4q-24 -9 -59 -29zM115 40q-2 30 -2 48q0 96 42 187l-46 -7l-3 -7
q-29 -60 -26.5 -119.5t35.5 -101.5zM401 623q-6 6 -6 17q0 13 9 13q5 0 15 -8l84 -64q4 -3 4 -7q0 -7 -8 -7q-4 0 -6 1q-52 29 -92 55zM535 417q13 30 -2 61q-25 -37 -27 -64q-2 -13 7 -13q13 0 22 16z" />
    <glyph glyph-name="Eacute" unicode="&#xc9;" horiz-adv-x="568" 
d="M423 -6q0 -49 -18 -86.5t-46 -56.5t-63 -21t-67.5 13t-60.5 51t-42 88q-67 35 -85 109t19 167q-6 -1 -18 -5q-7 -1 -7 6q1 15 15 25q3 1 5 2l20 4l6 12q58 110 173.5 179t231.5 48q32 -5 52 -25q27 33 43 45q9 7 13 1q2 -4 -3 -8q-23 -18 -45 -46q25 -32 12 -69
q-10 -27 -39 -35q-28 -7 -32 16q-2 7 0 16q2 14 15.5 34t23.5 30q-15 17 -44 21q-113 15 -205 -45t-152 -165q16 2 44 4q79 139 234 184q4 1 5.5 -3t-2.5 -5q-134 -36 -216 -175q35 2 254 2q11 0 12 -6q0 -7 -18 -7q-139 0 -262 -15q-48 -96 -48 -194q0 -37 4 -62
q12 -12 32 -22q54 -27 118.5 -19.5t122.5 43.5q-12 51 -52 98q-22 -13 -38 -26q-43 -34 -67 -63q-7 -8 -7 -3q0 8 4 12q36 40 75 73q21 16 23 17q-58 58 -123 59q-3 0 -4 2t0.5 4t3.5 2q69 -2 132 -61q24 15 63 32q49 15 78.5 5t29.5 -43t-35 -69q-26 -26 -66 -51
q0 -3 0.5 -9t0.5 -9zM142 -25q20 -71 65.5 -106t89.5 -30.5t77.5 46t33.5 109.5q0 7 -1 10q-61 -33 -128.5 -42.5t-126.5 9.5q-8 3 -10 4zM363 127q42 -45 55 -95q45 32 70 70q26 40 9 58t-75 -4q-24 -9 -59 -29zM115 40q-2 30 -2 48q0 96 42 187l-46 -7l-3 -7
q-29 -60 -26.5 -119.5t35.5 -101.5zM539 624q-5 -8 -63 -35q-57 -27 -62 -25q-5 3 -2 9l82 61q14 10 27 10q4 0 12 -2q12 -6 6 -18zM535 417q13 30 -2 61q-25 -37 -27 -64q-2 -13 7 -13q13 0 22 16z" />
    <glyph glyph-name="Ecircumflex" unicode="&#xca;" horiz-adv-x="568" 
d="M423 -6q0 -49 -18 -86.5t-46 -56.5t-63 -21t-67.5 13t-60.5 51t-42 88q-67 35 -85 109t19 167q-6 -1 -18 -5q-7 -1 -7 6q1 15 15 25q3 1 5 2l20 4l6 12q58 110 173.5 179t231.5 48q32 -5 52 -25q27 33 43 45q9 7 13 1q2 -4 -3 -8q-23 -18 -45 -46q25 -32 12 -69
q-10 -27 -39 -35q-28 -7 -32 16q-2 7 0 16q2 14 15.5 34t23.5 30q-15 17 -44 21q-113 15 -205 -45t-152 -165q16 2 44 4q79 139 234 184q4 1 5.5 -3t-2.5 -5q-134 -36 -216 -175q35 2 254 2q11 0 12 -6q0 -7 -18 -7q-139 0 -262 -15q-48 -96 -48 -194q0 -37 4 -62
q12 -12 32 -22q54 -27 118.5 -19.5t122.5 43.5q-12 51 -52 98q-22 -13 -38 -26q-43 -34 -67 -63q-7 -8 -7 -3q0 8 4 12q36 40 75 73q21 16 23 17q-58 58 -123 59q-3 0 -4 2t0.5 4t3.5 2q69 -2 132 -61q24 15 63 32q49 15 78.5 5t29.5 -43t-35 -69q-26 -26 -66 -51
q0 -3 0.5 -9t0.5 -9zM142 -25q20 -71 65.5 -106t89.5 -30.5t77.5 46t33.5 109.5q0 7 -1 10q-61 -33 -128.5 -42.5t-126.5 9.5q-8 3 -10 4zM363 127q42 -45 55 -95q45 32 70 70q26 40 9 58t-75 -4q-24 -9 -59 -29zM115 40q-2 30 -2 48q0 96 42 187l-46 -7l-3 -7
q-29 -60 -26.5 -119.5t35.5 -101.5zM534 586q0 -4 -2 -5q-5 0 -8 1q-6 2 -7 4l-37 58l-108 -58q-4 -4 -14 -4q-8 -2 -8 2v1l1 1l122 86q30 4 31 0zM535 417q13 30 -2 61q-25 -37 -27 -64q-2 -13 7 -13q13 0 22 16z" />
    <glyph glyph-name="Edieresis" unicode="&#xcb;" horiz-adv-x="568" 
d="M423 -6q0 -49 -18 -86.5t-46 -56.5t-63 -21t-67.5 13t-60.5 51t-42 88q-67 35 -85 109t19 167q-6 -1 -18 -5q-7 -1 -7 6q1 15 15 25q3 1 5 2l20 4l6 12q58 110 173.5 179t231.5 48q32 -5 52 -25q27 33 43 45q9 7 13 1q2 -4 -3 -8q-23 -18 -45 -46q25 -32 12 -69
q-10 -27 -39 -35q-28 -7 -32 16q-2 7 0 16q2 14 15.5 34t23.5 30q-15 17 -44 21q-113 15 -205 -45t-152 -165q16 2 44 4q79 139 234 184q4 1 5.5 -3t-2.5 -5q-134 -36 -216 -175q35 2 254 2q11 0 12 -6q0 -7 -18 -7q-139 0 -262 -15q-48 -96 -48 -194q0 -37 4 -62
q12 -12 32 -22q54 -27 118.5 -19.5t122.5 43.5q-12 51 -52 98q-22 -13 -38 -26q-43 -34 -67 -63q-7 -8 -7 -3q0 8 4 12q36 40 75 73q21 16 23 17q-58 58 -123 59q-3 0 -4 2t0.5 4t3.5 2q69 -2 132 -61q24 15 63 32q49 15 78.5 5t29.5 -43t-35 -69q-26 -26 -66 -51
q0 -3 0.5 -9t0.5 -9zM142 -25q20 -71 65.5 -106t89.5 -30.5t77.5 46t33.5 109.5q0 7 -1 10q-61 -33 -128.5 -42.5t-126.5 9.5q-8 3 -10 4zM363 127q42 -45 55 -95q45 32 70 70q26 40 9 58t-75 -4q-24 -9 -59 -29zM115 40q-2 30 -2 48q0 96 42 187l-46 -7l-3 -7
q-29 -60 -26.5 -119.5t35.5 -101.5zM535 417q13 30 -2 61q-25 -37 -27 -64q-2 -13 7 -13q13 0 22 16zM529 599q0 -22 -21 -22q-23 0 -23 22t22 22t22 -22zM443 599q0 -22 -21 -22q-23 0 -23 22t22 22t22 -22z" />
    <glyph glyph-name="Igrave" unicode="&#xcc;" horiz-adv-x="504" 
d="M235 140q58 166 45 294q-2 19 -8 46q-125 -13 -167 -71q-32 -44 7 -83q29 -30 91 -41q7 -2 2 -6.5t-12 -2.5q-66 20 -101.5 47.5t-35.5 55t22.5 53t72 44.5t114.5 26q-29 76 -92 85q-60 8 -106 -48q-63 -76 -44 -208q15 -104 75.5 -151t136.5 -40zM295 482q6 -22 9 -50
q11 -123 -50 -289q20 4 34 10q28 85 46.5 181t19.5 148q-32 2 -59 0zM197 23q10 0 32 -2q30 46 55 119q-13 -4 -35 -8q-19 -53 -52 -109zM214 -1q-11 1 -31 1h-1q-11 -18 -27 -37q3 0 11 2q24 6 48 34zM409 27q27 -11 34 -30q6 -18 -20 -21q-15 -1 -38 4q-73 14 -138 18
q-26 -33 -51 -46q-22 -13 -52 -2q-38 -42 -77 -62q-28 -14 -53 -15t-42 18q-3 6 2 7q3 1 4 -1q26 -34 89 0q37 20 68 57q-32 14 -39 31q-2 8 5 8q3 0 4.5 -2t4.5 -6.5t8 -7.5q12 -10 25 -13q16 19 26 36q-141 -3 -141 -47q0 -10 10 -22.5t20 -18.5q8 -5 -2 -6q-8 -1 -14 3
q-41 28 -41 51q0 64 172 64q7 0 10 -1q27 46 49 107q-80 -6 -145.5 46t-79.5 156q-19 142 54 218q54 56 124 44q71 -14 103 -90h37.5t40.5 1l16 15q23 16 24 -14q95 -4 106 -14q2 -2 3 -4q1 -7 -1 -8t-10 0q-11 2 -20 2q-8 0 -38.5 0.5t-43.5 0.5q-25 -171 -70 -307
q51 36 61 90q1 5 5 1q3 -2 2 -5q-16 -65 -73 -101q-31 -89 -66 -143q68 -8 130 -23q36 -8 41 -1t-28 28q-4 3 0 5q2 1 5 0zM336 616q-6 6 -6 17q0 13 9 13q5 0 15 -8l84 -64q4 -3 4 -7q0 -7 -8 -7q-4 0 -6 1q-52 29 -92 55z" />
    <glyph glyph-name="Iacute" unicode="&#xcd;" horiz-adv-x="504" 
d="M235 140q58 166 45 294q-2 19 -8 46q-125 -13 -167 -71q-32 -44 7 -83q29 -30 91 -41q7 -2 2 -6.5t-12 -2.5q-66 20 -101.5 47.5t-35.5 55t22.5 53t72 44.5t114.5 26q-29 76 -92 85q-60 8 -106 -48q-63 -76 -44 -208q15 -104 75.5 -151t136.5 -40zM295 482q6 -22 9 -50
q11 -123 -50 -289q20 4 34 10q28 85 46.5 181t19.5 148q-32 2 -59 0zM197 23q10 0 32 -2q30 46 55 119q-13 -4 -35 -8q-19 -53 -52 -109zM214 -1q-11 1 -31 1h-1q-11 -18 -27 -37q3 0 11 2q24 6 48 34zM409 27q27 -11 34 -30q6 -18 -20 -21q-15 -1 -38 4q-73 14 -138 18
q-26 -33 -51 -46q-22 -13 -52 -2q-38 -42 -77 -62q-28 -14 -53 -15t-42 18q-3 6 2 7q3 1 4 -1q26 -34 89 0q37 20 68 57q-32 14 -39 31q-2 8 5 8q3 0 4.5 -2t4.5 -6.5t8 -7.5q12 -10 25 -13q16 19 26 36q-141 -3 -141 -47q0 -10 10 -22.5t20 -18.5q8 -5 -2 -6q-8 -1 -14 3
q-41 28 -41 51q0 64 172 64q7 0 10 -1q27 46 49 107q-80 -6 -145.5 46t-79.5 156q-19 142 54 218q54 56 124 44q71 -14 103 -90h37.5t40.5 1l16 15q23 16 24 -14q95 -4 106 -14q2 -2 3 -4q1 -7 -1 -8t-10 0q-11 2 -20 2q-8 0 -38.5 0.5t-43.5 0.5q-25 -171 -70 -307
q51 36 61 90q1 5 5 1q3 -2 2 -5q-16 -65 -73 -101q-31 -89 -66 -143q68 -8 130 -23q36 -8 41 -1t-28 28q-4 3 0 5q2 1 5 0zM512 626q-5 -8 -63 -35q-57 -27 -62 -25q-5 3 -2 9l82 61q14 10 27 10q4 0 12 -2q12 -6 6 -18z" />
    <glyph glyph-name="Icircumflex" unicode="&#xce;" horiz-adv-x="504" 
d="M235 140q58 166 45 294q-2 19 -8 46q-125 -13 -167 -71q-32 -44 7 -83q29 -30 91 -41q7 -2 2 -6.5t-12 -2.5q-66 20 -101.5 47.5t-35.5 55t22.5 53t72 44.5t114.5 26q-29 76 -92 85q-60 8 -106 -48q-63 -76 -44 -208q15 -104 75.5 -151t136.5 -40zM295 482q6 -22 9 -50
q11 -123 -50 -289q20 4 34 10q28 85 46.5 181t19.5 148q-32 2 -59 0zM197 23q10 0 32 -2q30 46 55 119q-13 -4 -35 -8q-19 -53 -52 -109zM214 -1q-11 1 -31 1h-1q-11 -18 -27 -37q3 0 11 2q24 6 48 34zM409 27q27 -11 34 -30q6 -18 -20 -21q-15 -1 -38 4q-73 14 -138 18
q-26 -33 -51 -46q-22 -13 -52 -2q-38 -42 -77 -62q-28 -14 -53 -15t-42 18q-3 6 2 7q3 1 4 -1q26 -34 89 0q37 20 68 57q-32 14 -39 31q-2 8 5 8q3 0 4.5 -2t4.5 -6.5t8 -7.5q12 -10 25 -13q16 19 26 36q-141 -3 -141 -47q0 -10 10 -22.5t20 -18.5q8 -5 -2 -6q-8 -1 -14 3
q-41 28 -41 51q0 64 172 64q7 0 10 -1q27 46 49 107q-80 -6 -145.5 46t-79.5 156q-19 142 54 218q54 56 124 44q71 -14 103 -90h37.5t40.5 1l16 15q23 16 24 -14q95 -4 106 -14q2 -2 3 -4q1 -7 -1 -8t-10 0q-11 2 -20 2q-8 0 -38.5 0.5t-43.5 0.5q-25 -171 -70 -307
q51 36 61 90q1 5 5 1q3 -2 2 -5q-16 -65 -73 -101q-31 -89 -66 -143q68 -8 130 -23q36 -8 41 -1t-28 28q-4 3 0 5q2 1 5 0zM480 553q0 -4 -2 -5q-5 0 -8 1q-6 2 -7 4l-37 58l-108 -58q-4 -4 -14 -4q-8 -2 -8 2q0 1 0.5 1t0.5 1l122 86q30 4 31 0z" />
    <glyph glyph-name="Idieresis" unicode="&#xcf;" horiz-adv-x="504" 
d="M235 140q58 166 45 294q-2 19 -8 46q-125 -13 -167 -71q-32 -44 7 -83q29 -30 91 -41q7 -2 2 -6.5t-12 -2.5q-66 20 -101.5 47.5t-35.5 55t22.5 53t72 44.5t114.5 26q-29 76 -92 85q-60 8 -106 -48q-63 -76 -44 -208q15 -104 75.5 -151t136.5 -40zM295 482q6 -22 9 -50
q11 -123 -50 -289q20 4 34 10q28 85 46.5 181t19.5 148q-32 2 -59 0zM197 23q10 0 32 -2q30 46 55 119q-13 -4 -35 -8q-19 -53 -52 -109zM214 -1q-11 1 -31 1h-1q-11 -18 -27 -37q3 0 11 2q24 6 48 34zM409 27q27 -11 34 -30q6 -18 -20 -21q-15 -1 -38 4q-73 14 -138 18
q-26 -33 -51 -46q-22 -13 -52 -2q-38 -42 -77 -62q-28 -14 -53 -15t-42 18q-3 6 2 7q3 1 4 -1q26 -34 89 0q37 20 68 57q-32 14 -39 31q-2 8 5 8q3 0 4.5 -2t4.5 -6.5t8 -7.5q12 -10 25 -13q16 19 26 36q-141 -3 -141 -47q0 -10 10 -22.5t20 -18.5q8 -5 -2 -6q-8 -1 -14 3
q-41 28 -41 51q0 64 172 64q7 0 10 -1q27 46 49 107q-80 -6 -145.5 46t-79.5 156q-19 142 54 218q54 56 124 44q71 -14 103 -90h37.5t40.5 1l16 15q23 16 24 -14q95 -4 106 -14q2 -2 3 -4q1 -7 -1 -8t-10 0q-11 2 -20 2q-8 0 -38.5 0.5t-43.5 0.5q-25 -171 -70 -307
q51 36 61 90q1 5 5 1q3 -2 2 -5q-16 -65 -73 -101q-31 -89 -66 -143q68 -8 130 -23q36 -8 41 -1t-28 28q-4 3 0 5q2 1 5 0zM465 583q0 -22 -21 -22q-23 0 -23 22t22 22t22 -22zM379 583q0 -22 -21 -22q-23 0 -23 22t22 22t22 -22z" />
    <glyph glyph-name="Eth" unicode="&#xd0;" horiz-adv-x="724" 
d="M458 -28q-27 -53 -66 -88.5t-76.5 -46.5t-74 -3t-59.5 42.5t-31.5 89.5t8.5 138q15 71 53 168q-24 -6 -54 -10q-79 -9 -116 29t-15.5 93t91.5 90q74 37 201 45q17 37 22 69q0 6 5 0q2 -2 2 -4q1 -19 -17 -65q25 1 52 0q22 31 44 42q38 18 82 -14q25 -18 18 -25
q-1 -2 -4 -2t-4.5 2t-4.5 6.5t-8 7.5q-24 18 -49 12q-17 -3 -37 -31q96 -8 169 -40t110.5 -81t46 -106.5t-22 -121t-96.5 -120.5t-169 -76zM486 40l-11 -31q77 24 131 73q58 53 82.5 111.5t13.5 110.5t-46.5 95.5t-99 72t-143.5 34.5q-21 -31 -40 -73q31 -16 59 -46
q44 27 73 57q8 8 9.5 7t0 -6t-3.5 -7q-29 -30 -71 -61q50 -62 62 -157.5t-16 -179.5zM443 125q-52 -1 -82 -6q-45 -6 -82 -7q-12 -2 -18 0q-21 -80 -24 -111q4 4 10.5 15l15.5 26.5t14 22.5q3 6 15 20.5t19 19.5q19 15 26 9q3 -2 -1 -5q-71 -62 -32 -95q35 -30 124 -16
q14 2 29 6q9 20 15 42q25 82 13.5 172.5t-57.5 150.5q-51 -34 -105 -58q-35 -98 -56 -174q12 7 23 11q18 6 50 6q31 0 103 -9q30 -3 30 -11t-30 -9zM226 275q-38 -104 -51 -172q-16 -91 -6 -150.5t43 -84t73 -22.5t83 35t73 88q-78 -10 -126 11.5t-31 72.5l-5 -4
q-26 -36 -48 -78q-3 -3 -11 -0.5t-15.5 12t-6.5 17.5q9 105 75 291q-32 -12 -47 -16zM222 298q28 71 65 150q-4 1 -12 1q-61 4 -101 -37.5t-30 -74.5q1 -4 -3 -5t-5 3q-10 38 29.5 81t109.5 41q11 0 16 -1l2 5q7 13 21 45q-113 -11 -183 -52q-69 -41 -88 -95q-18 -52 28 -70
q28 -12 75 -6q35 3 76 15zM297 447q-34 -69 -62 -145q24 6 48 15q23 63 52 120q-16 7 -38 10zM420 379q-25 28 -52 43q-17 -37 -35 -86q49 21 87 43zM325 507q-2 -6 -24 -52q18 -1 38 -8q20 38 36 61q-33 0 -50 -1z" />
    <glyph glyph-name="Ntilde" unicode="&#xd1;" horiz-adv-x="686" 
d="M320 379q-26 36 -27.5 80t17.5 72q-62 7 -123 -38t-91 -121q-10 -26 -15 -55t-3 -57t17.5 -45t43.5 -15q29 3 56.5 31t39.5 49q5 7 7 3q2 -3 0 -8q-10 -24 -47.5 -58.5t-69.5 -36.5q-43 -3 -61.5 33.5t-13.5 85t25 87.5q38 74 108.5 119.5t140.5 43.5q18 20 42 23
q30 5 56 -6t45 -36.5t33.5 -55t26 -71.5t18.5 -75t14 -75q20 -8 44 -25l16.5 76t19 72.5t26 70.5t32.5 54t44 40t55 13q38 0 61 -26t29 -53q2 -9 -4 -9q-2 0 -4 5q-5 17 -24.5 34t-47.5 17q-27 0 -50.5 -12t-41.5 -36.5t-32.5 -50.5t-27 -64.5t-20.5 -68.5t-18 -72
q20 -16 38 -40q33 -45 33 -92t-26 -59q-18 -8 -38 9.5t-37 62.5q-8 -27 -16 -43q33 -66 72 -66q16 0 32.5 10t27 20t11.5 10q2 0 2 -2t2 -3q1 -1 0 -2q-44 -46 -89 -46q-42 0 -78 49q-6 -5 -18 -5q-15 0 -15 9q0 2 3.5 3t10 2.5t10.5 3.5q-41 86 -62 221q-21 2 -42 -3
q-46 -122 -133 -218q46 -14 90 26q5 5 6 -2q1 -2 -1 -4q-46 -43 -101 -27q-30 -33 -61 -57q-87 -70 -175 -70q-29 0 -47 17t-18 46q0 34 25 66q0 3 4 3q2 0 2 -3l-8 -20q-8 -19 -8 -35q0 -25 15 -43.5t39 -18.5q110 0 217 122q-39 21 -44 63.5t37 87.5q59 58 140 75
q27 68 33 130q-38 118 -130 135q-19 -26 -18.5 -68.5t26.5 -78.5q1 -2 0 -4t-3 -2t-4 2zM411 252q-67 -18 -123 -71q-39 -42 -36 -79.5t36 -56.5q75 88 123 207zM512 266q19 -3 37 -9q-10 49 -23.5 96t-36 102t-54.5 85t-68 24q-16 -3 -33 -16q112 -12 147 -141
q16 -57 31 -141zM590 112q11 -33 24.5 -52.5t24 -24t19.5 -0.5q20 10 20.5 50t-30.5 88q-17 22 -34 36q-15 -65 -24 -97zM551 247q-16 7 -37 10q27 -136 49 -186q8 17 16 48q-12 35 -23 100zM692 594q-23 -48 -56 -45q-15 2 -34 11q-24 11 -34 11q-19 2 -29 -19q-2 -2 -8 -1
q-5 1 -5 2q25 46 55 43q16 -2 35 -11q21 -8 34 -10q21 -2 30 20q1 2 7 2q6 -2 5 -3zM560 243l4 -23q10 -56 19 -86q7 29 18 86q-21 14 -41 23zM441 269q12 1 37 1q-6 30 -13 84q-10 -44 -24 -85z" />
    <glyph glyph-name="Ograve" unicode="&#xd2;" horiz-adv-x="577" 
d="M125 420q-4 103 74 140q49 23 103 3t101 -76q67 -14 111 -62.5t44 -118.5q0 -86 -51 -164q-14 -90 -68 -146t-126 -56q-62 0 -116 28q-99 1 -134.5 59t-12.5 145q-11 41 -11 95v1q-1 65 54 122q14 15 32 30zM355 319q-14 -36 -40.5 -51t-55 -10t-55.5 21.5t-46 40.5
q-63 -70 -87 -144q18 -110 93 -173q13 -3 33 -1q82 4 169 59.5t130 138.5q-2 39 -10 77q-24 117 -93 199q-17 4 -40 4q-132 0 -215 -82q5 -26 13 -45l3 -5q90 86 181 86q12 0 12 -7q0 -6 -13 -6q-78 0 -169 -93q23 -33 58.5 -50.5t71 -7.5t52.5 52q1 4 5 2.5t3 -5.5z
M380 491q-43 47 -89 64t-88 -2q-71 -35 -67 -126q91 66 217 66q9 0 27 -2zM217 -31q45 -21 97 -21q62 0 110 46t64 122q-50 -64 -122.5 -103.5t-148.5 -43.5zM418 469q61 -82 84 -192q3 -16 7 -46q15 40 15 88q0 55 -29 94.5t-77 55.5zM145 340l-5 10q-7 22 -11 39
q-27 -30 -42 -62q-17 -33 -21 -69v-36q25 62 79 118zM341 606q-6 6 -6 17q0 13 9 13q5 0 15 -8l84 -64q4 -3 4 -7q0 -7 -8 -7q-4 0 -6 1q-52 29 -92 55zM143 6q-55 52 -82 126q-5 -47 16.5 -80.5t65.5 -45.5z" />
    <glyph glyph-name="Oacute" unicode="&#xd3;" horiz-adv-x="577" 
d="M125 420q-4 103 74 140q49 23 103 3t101 -76q67 -14 111 -62.5t44 -118.5q0 -86 -51 -164q-14 -90 -68 -146t-126 -56q-62 0 -116 28q-99 1 -134.5 59t-12.5 145q-11 41 -11 95v1q-1 65 54 122q14 15 32 30zM355 319q-14 -36 -40.5 -51t-55 -10t-55.5 21.5t-46 40.5
q-63 -70 -87 -144q18 -110 93 -173q13 -3 33 -1q82 4 169 59.5t130 138.5q-2 39 -10 77q-24 117 -93 199q-17 4 -40 4q-132 0 -215 -82q5 -26 13 -45l3 -5q90 86 181 86q12 0 12 -7q0 -6 -13 -6q-78 0 -169 -93q23 -33 58.5 -50.5t71 -7.5t52.5 52q1 4 5 2.5t3 -5.5z
M380 491q-43 47 -89 64t-88 -2q-71 -35 -67 -126q91 66 217 66q9 0 27 -2zM217 -31q45 -21 97 -21q62 0 110 46t64 122q-50 -64 -122.5 -103.5t-148.5 -43.5zM418 469q61 -82 84 -192q3 -16 7 -46q15 40 15 88q0 55 -29 94.5t-77 55.5zM145 340l-5 10q-7 22 -11 39
q-27 -30 -42 -62q-17 -33 -21 -69v-36q25 62 79 118zM517 603q-5 -8 -63 -35q-57 -27 -62 -25q-5 3 -2 9l82 61q14 10 27 10q4 0 12 -2q12 -6 6 -18zM143 6q-55 52 -82 126q-5 -47 16.5 -80.5t65.5 -45.5z" />
    <glyph glyph-name="Ocircumflex" unicode="&#xd4;" horiz-adv-x="577" 
d="M459 535q0 -4 -2 -5q-5 0 -8 1q-6 2 -7 4l-37 58l-78 -42q42 -24 76 -64q67 -14 111 -62.5t44 -118.5q0 -86 -51 -164q-14 -90 -68 -146t-126 -56q-62 0 -116 28q-99 1 -134.5 59t-12.5 145q-11 41 -11 95v1q-1 65 54 122q14 15 32 30q-4 103 74 140q51 26 111 -1l88 62
q30 4 31 0zM355 319q-14 -36 -40.5 -51t-55 -10t-55.5 21.5t-46 40.5q-63 -70 -87 -144q18 -110 93 -173q13 -3 33 -1q82 4 169 59.5t130 138.5q-2 39 -10 77q-24 117 -93 199q-17 4 -40 4q-132 0 -215 -82q5 -26 13 -45l3 -5q90 86 181 86q12 0 12 -7q0 -6 -13 -6
q-78 0 -169 -93q23 -33 58.5 -50.5t71 -7.5t52.5 52q1 4 5 2.5t3 -5.5zM380 491q-31 32 -66 53l-17 -9q-4 -4 -14 -4q-8 -2 -8 2q0 1 0.5 1t0.5 1l23 16q-53 24 -96 2q-71 -35 -67 -126q91 66 217 66q9 0 27 -2zM217 -31q45 -21 97 -21q62 0 110 46t64 122
q-50 -64 -122.5 -103.5t-148.5 -43.5zM418 469q61 -82 84 -192q3 -16 7 -46q15 40 15 88q0 55 -29 94.5t-77 55.5zM145 340l-5 10q-7 22 -11 39q-27 -30 -42 -62q-17 -33 -21 -69v-36q25 62 79 118zM143 6q-55 52 -82 126q-5 -47 16.5 -80.5t65.5 -45.5z" />
    <glyph glyph-name="Otilde" unicode="&#xd5;" horiz-adv-x="577" 
d="M125 420q-4 103 74 140q49 23 103 3t101 -76q67 -14 111 -62.5t44 -118.5q0 -86 -51 -164q-14 -90 -68 -146t-126 -56q-62 0 -116 28q-99 1 -134.5 59t-12.5 145q-11 41 -11 95v1q-1 65 54 122q14 15 32 30zM355 319q-14 -36 -40.5 -51t-55 -10t-55.5 21.5t-46 40.5
q-63 -70 -87 -144q18 -110 93 -173q13 -3 33 -1q82 4 169 59.5t130 138.5q-2 39 -10 77q-24 117 -93 199q-17 4 -40 4q-132 0 -215 -82q5 -26 13 -45l3 -5q90 86 181 86q12 0 12 -7q0 -6 -13 -6q-78 0 -169 -93q23 -33 58.5 -50.5t71 -7.5t52.5 52q1 4 5 2.5t3 -5.5z
M380 491q-43 47 -89 64t-88 -2q-71 -35 -67 -126q91 66 217 66q9 0 27 -2zM217 -31q45 -21 97 -21q62 0 110 46t64 122q-50 -64 -122.5 -103.5t-148.5 -43.5zM418 469q61 -82 84 -192q3 -16 7 -46q15 40 15 88q0 55 -29 94.5t-77 55.5zM145 340l-5 10q-7 22 -11 39
q-27 -30 -42 -62q-17 -33 -21 -69v-36q25 62 79 118zM439 637q-23 -48 -56 -45q-15 2 -34 11q-24 11 -34 11q-19 2 -29 -19q-2 -2 -8 -1q-5 1 -5 2q25 46 55 43q16 -2 35 -11q21 -8 34 -10q21 -2 30 20q1 2 7 2q6 -2 5 -3zM143 6q-55 52 -82 126q-5 -47 16.5 -80.5
t65.5 -45.5z" />
    <glyph glyph-name="Odieresis" unicode="&#xd6;" horiz-adv-x="577" 
d="M125 420q-4 103 74 140q49 23 103 3t101 -76q67 -14 111 -62.5t44 -118.5q0 -86 -51 -164q-14 -90 -68 -146t-126 -56q-62 0 -116 28q-99 1 -134.5 59t-12.5 145q-11 41 -11 95v1q-1 65 54 122q14 15 32 30zM355 319q-14 -36 -40.5 -51t-55 -10t-55.5 21.5t-46 40.5
q-63 -70 -87 -144q18 -110 93 -173q13 -3 33 -1q82 4 169 59.5t130 138.5q-2 39 -10 77q-24 117 -93 199q-17 4 -40 4q-132 0 -215 -82q5 -26 13 -45l3 -5q90 86 181 86q12 0 12 -7q0 -6 -13 -6q-78 0 -169 -93q23 -33 58.5 -50.5t71 -7.5t52.5 52q1 4 5 2.5t3 -5.5z
M380 491q-43 47 -89 64t-88 -2q-71 -35 -67 -126q91 66 217 66q9 0 27 -2zM217 -31q45 -21 97 -21q62 0 110 46t64 122q-50 -64 -122.5 -103.5t-148.5 -43.5zM418 469q61 -82 84 -192q3 -16 7 -46q15 40 15 88q0 55 -29 94.5t-77 55.5zM145 340l-5 10q-7 22 -11 39
q-27 -30 -42 -62q-17 -33 -21 -69v-36q25 62 79 118zM143 6q-55 52 -82 126q-5 -47 16.5 -80.5t65.5 -45.5zM491 601q0 -22 -21 -22q-23 0 -23 22t22 22t22 -22zM405 601q0 -22 -21 -22q-23 0 -23 22t22 22t22 -22z" />
    <glyph glyph-name="multiply" unicode="&#xd7;" horiz-adv-x="159" 
d="M143 131l-50 -53l29 -56q0 -2 -6 -7q-4 -6 -7 -6l-28 56l-49 -53q-1 0 -5 6l-2 8l49 53l-29 56l6 8l7 6l28 -57l49 53q2 0 5 -6t3 -8z" />
    <glyph glyph-name="Oslash" unicode="&#xd8;" horiz-adv-x="813" 
d="M770 557l-34 -45q74 -54 74 -139q0 -84 -70 -173q-80 -104 -226 -168q-94 -42 -190 -54l-66 -86h-28l63 83q-27 -3 -53 -3q-84 0 -125 34q-38 32 -38 85q0 37 20 85q-31 14 -50 42t-19 62q0 95 89 167q56 47 142 79q20 27 26 34q87 101 202 101q53 0 84 -30
q26 -24 32 -66q66 -12 113 -40l25 32h29zM282 181l8 -8q62 10 123 53q78 54 126 139q48 87 48 174v6q-40 4 -63 4q-80 0 -183 -31q-60 -18 -91 -32q-33 -64 -33 -143v-16q23 20 52 40q98 68 180 82q10 1 10 -4t-8 -7q-78 -15 -164 -84q-41 -34 -65 -62q12 -66 60 -111z
M708 231q65 83 65 156q0 63 -52 106l-292 -379q84 -8 148 40h1l2 1q2 0 4 -3q0 -3 -1 -5q-59 -42 -136 -42q-16 0 -24 1l-81 -105q217 36 366 230zM239 -7q25 0 71 4l87 112q-55 10 -102 46q-30 -5 -56 -5q-47 0 -98 14q-14 -39 -14 -69q0 -48 30 -75q29 -27 82 -27z
M203 343q0 71 29 135q-42 -19 -88 -51q-92 -66 -92 -144q0 -29 16 -51q15 -24 40 -35q36 65 96 118q-1 9 -1 28zM480 257q-76 -79 -171 -100q42 -31 94 -40l299 389q-42 26 -97 36v-3q0 -19 -5 -47q-27 -137 -120 -235zM506 573q37 0 79 -5q-6 33 -22 53q-25 33 -75 33
q-29 0 -65 -12q-80 -26 -140 -103l-5 -6l33 10q103 30 195 30zM275 171q-48 44 -65 108q-39 -48 -59 -96q48 -14 92 -14q22 0 32 2z" />
    <glyph glyph-name="Ugrave" unicode="&#xd9;" horiz-adv-x="707" 
d="M127 559q-59 24 -117.5 -21t-44.5 -106q5 -15 12 -27q24 43 73 77t103 50.5t107.5 13t85.5 -31.5q26 6 55 9q31 2 60.5 -12t37 -40t-33.5 -62q-30 -26 -89 -47q-11 -43 -46 -110.5t-58 -125.5t-17 -105q30 6 60 21q29 14 51 35.5t33 43.5t15.5 42.5t0.5 36t-14 21.5
q-6 4 -1 6q2 1 4 0q17 -10 21.5 -35.5t-4 -54.5t-33.5 -59t-60 -47q-35 -18 -70 -24q9 -37 48 -37q77 0 173 161q32 53 79 165t87 233q2 11 17 14t28.5 -4t11.5 -20q-111 -262 -111 -431q0 -38 6 -61t14.5 -30t19 -6.5t18.5 5.5t14 11q26 26 40 63q1 2 4 2.5t5 -1.5t1 -4
q-16 -45 -42 -72q-39 -43 -79.5 -22t-42.5 95q-3 59 13 173q-47 -85 -65 -114q-109 -177 -194 -177q-60 0 -79 54q-45 -1 -84 16.5t-64 50t-35.5 73.5t0 91t42.5 99q-55 12 -88 41l-2 -4q-7 -16 -10 -33t-0.5 -35t16 -34t37.5 -25q5 -2 1.5 -6t-9.5 -1q-60 31 -68 74
q-8 42 13 87q-12 17 -16 34q-10 42 16 80t70.5 54t85.5 0q5 -2 3 -6q-1 -2 -5 -1zM105 329q-56 -87 -54.5 -157.5t50 -114.5t120.5 -41l-1 4q-9 49 9 104t54.5 123t48.5 102q-128 -34 -218 -21q-3 1 -9 1zM-2 382q34 -28 90 -41q20 27 26 34q80 92 204 131q-27 26 -73 24
t-93 -20.5t-90 -53.5t-64 -74zM110 337q9 -2 30 -4q89 -5 195 26q17 49 10 94q-4 25 -19 45q-115 -39 -196 -136zM378 372q57 22 81 43q47 45 22 74t-77 26q-32 -4 -50 -9q21 -25 27 -58q7 -34 -3 -76zM455 600q-6 6 -6 17q0 13 9 13q5 0 15 -8l84 -64q4 -3 4 -7q0 -7 -8 -7
q-4 0 -6 1q-52 29 -92 55z" />
    <glyph glyph-name="Uacute" unicode="&#xda;" horiz-adv-x="707" 
d="M127 559q-59 24 -117.5 -21t-44.5 -106q5 -15 12 -27q24 43 73 77t103 50.5t107.5 13t85.5 -31.5q26 6 55 9q31 2 60.5 -12t37 -40t-33.5 -62q-30 -26 -89 -47q-11 -43 -46 -110.5t-58 -125.5t-17 -105q30 6 60 21q29 14 51 35.5t33 43.5t15.5 42.5t0.5 36t-14 21.5
q-6 4 -1 6q2 1 4 0q17 -10 21.5 -35.5t-4 -54.5t-33.5 -59t-60 -47q-35 -18 -70 -24q9 -37 48 -37q77 0 173 161q32 53 79 165t87 233q2 11 17 14t28.5 -4t11.5 -20q-111 -262 -111 -431q0 -38 6 -61t14.5 -30t19 -6.5t18.5 5.5t14 11q26 26 40 63q1 2 4 2.5t5 -1.5t1 -4
q-16 -45 -42 -72q-39 -43 -79.5 -22t-42.5 95q-3 59 13 173q-47 -85 -65 -114q-109 -177 -194 -177q-60 0 -79 54q-45 -1 -84 16.5t-64 50t-35.5 73.5t0 91t42.5 99q-55 12 -88 41l-2 -4q-7 -16 -10 -33t-0.5 -35t16 -34t37.5 -25q5 -2 1.5 -6t-9.5 -1q-60 31 -68 74
q-8 42 13 87q-12 17 -16 34q-10 42 16 80t70.5 54t85.5 0q5 -2 3 -6q-1 -2 -5 -1zM105 329q-56 -87 -54.5 -157.5t50 -114.5t120.5 -41l-1 4q-9 49 9 104t54.5 123t48.5 102q-128 -34 -218 -21q-3 1 -9 1zM-2 382q34 -28 90 -41q20 27 26 34q80 92 204 131q-27 26 -73 24
t-93 -20.5t-90 -53.5t-64 -74zM110 337q9 -2 30 -4q89 -5 195 26q17 49 10 94q-4 25 -19 45q-115 -39 -196 -136zM378 372q57 22 81 43q47 45 22 74t-77 26q-32 -4 -50 -9q21 -25 27 -58q7 -34 -3 -76zM633 606q-5 -8 -63 -35q-57 -27 -62 -25q-5 3 -2 9l82 61q14 10 27 10
q4 0 12 -2q12 -6 6 -18z" />
    <glyph glyph-name="Ucircumflex" unicode="&#xdb;" horiz-adv-x="707" 
d="M127 559q-59 24 -117.5 -21t-44.5 -106q5 -15 12 -27q24 43 73 77t103 50.5t107.5 13t85.5 -31.5q26 6 55 9q31 2 60.5 -12t37 -40t-33.5 -62q-30 -26 -89 -47q-11 -43 -46 -110.5t-58 -125.5t-17 -105q30 6 60 21q29 14 51 35.5t33 43.5t15.5 42.5t0.5 36t-14 21.5
q-6 4 -1 6q2 1 4 0q17 -10 21.5 -35.5t-4 -54.5t-33.5 -59t-60 -47q-35 -18 -70 -24q9 -37 48 -37q77 0 173 161q32 53 79 165t87 233q2 11 17 14t28.5 -4t11.5 -20q-111 -262 -111 -431q0 -38 6 -61t14.5 -30t19 -6.5t18.5 5.5t14 11q26 26 40 63q1 2 4 2.5t5 -1.5t1 -4
q-16 -45 -42 -72q-39 -43 -79.5 -22t-42.5 95q-3 59 13 173q-47 -85 -65 -114q-109 -177 -194 -177q-60 0 -79 54q-45 -1 -84 16.5t-64 50t-35.5 73.5t0 91t42.5 99q-55 12 -88 41l-2 -4q-7 -16 -10 -33t-0.5 -35t16 -34t37.5 -25q5 -2 1.5 -6t-9.5 -1q-60 31 -68 74
q-8 42 13 87q-12 17 -16 34q-10 42 16 80t70.5 54t85.5 0q5 -2 3 -6q-1 -2 -5 -1zM105 329q-56 -87 -54.5 -157.5t50 -114.5t120.5 -41l-1 4q-9 49 9 104t54.5 123t48.5 102q-128 -34 -218 -21q-3 1 -9 1zM-2 382q34 -28 90 -41q20 27 26 34q80 92 204 131q-27 26 -73 24
t-93 -20.5t-90 -53.5t-64 -74zM110 337q9 -2 30 -4q89 -5 195 26q17 49 10 94q-4 25 -19 45q-115 -39 -196 -136zM378 372q57 22 81 43q47 45 22 74t-77 26q-32 -4 -50 -9q21 -25 27 -58q7 -34 -3 -76zM620 564q0 -4 -2 -5q-5 0 -8 1q-6 2 -7 4l-37 58l-108 -58
q-4 -4 -14 -4q-8 -2 -8 2v1l1 1l122 86q30 4 31 0z" />
    <glyph glyph-name="Udieresis" unicode="&#xdc;" horiz-adv-x="707" 
d="M127 559q-59 24 -117.5 -21t-44.5 -106q5 -15 12 -27q24 43 73 77t103 50.5t107.5 13t85.5 -31.5q26 6 55 9q31 2 60.5 -12t37 -40t-33.5 -62q-30 -26 -89 -47q-11 -43 -46 -110.5t-58 -125.5t-17 -105q30 6 60 21q29 14 51 35.5t33 43.5t15.5 42.5t0.5 36t-14 21.5
q-6 4 -1 6q2 1 4 0q17 -10 21.5 -35.5t-4 -54.5t-33.5 -59t-60 -47q-35 -18 -70 -24q9 -37 48 -37q77 0 173 161q32 53 79 165t87 233q2 11 17 14t28.5 -4t11.5 -20q-111 -262 -111 -431q0 -38 6 -61t14.5 -30t19 -6.5t18.5 5.5t14 11q26 26 40 63q1 2 4 2.5t5 -1.5t1 -4
q-16 -45 -42 -72q-39 -43 -79.5 -22t-42.5 95q-3 59 13 173q-47 -85 -65 -114q-109 -177 -194 -177q-60 0 -79 54q-45 -1 -84 16.5t-64 50t-35.5 73.5t0 91t42.5 99q-55 12 -88 41l-2 -4q-7 -16 -10 -33t-0.5 -35t16 -34t37.5 -25q5 -2 1.5 -6t-9.5 -1q-60 31 -68 74
q-8 42 13 87q-12 17 -16 34q-10 42 16 80t70.5 54t85.5 0q5 -2 3 -6q-1 -2 -5 -1zM105 329q-56 -87 -54.5 -157.5t50 -114.5t120.5 -41l-1 4q-9 49 9 104t54.5 123t48.5 102q-128 -34 -218 -21q-3 1 -9 1zM-2 382q34 -28 90 -41q20 27 26 34q80 92 204 131q-27 26 -73 24
t-93 -20.5t-90 -53.5t-64 -74zM110 337q9 -2 30 -4q89 -5 195 26q17 49 10 94q-4 25 -19 45q-115 -39 -196 -136zM378 372q57 22 81 43q47 45 22 74t-77 26q-32 -4 -50 -9q21 -25 27 -58q7 -34 -3 -76zM532 566q0 -22 -21 -22q-23 0 -23 22t22 22t22 -22zM618 566
q0 -22 -21 -22q-23 0 -23 22t22 22t22 -22z" />
    <glyph glyph-name="Yacute" unicode="&#xdd;" horiz-adv-x="707" 
d="M564 246q-13 -28 -23 -69t-21 -97.5t-19 -88.5q32 12 40 16q0 2 3.5 28l8 57t14 77.5t21 91t30.5 95.5t42 93q-40 -48 -79 -107.5t-77.5 -125.5t-48.5 -82q-79 -119 -101 -119q-3 0 -4.5 2.5t0.5 4.5q23 55 37 138.5t10 160.5q-6 -4 -27 -13q1 -43 -3 -92
q-9 -99 -40 -195q-1 -5 -5 -2q-3 1 -2 4q29 89 37 194q4 46 3 86l-7 -3q-57 -27 -62 -25q-5 3 -2 9l61 46q-98 -8 -170 33q-56 32 -80 68q-4 -6 -15 -31q-11 -28 -12 -57t14 -52t49 -23q43 0 79 49q4 6 4 1q0 -2 -2 -6q-7 -18 -35.5 -39t-57.5 -21q-38 0 -56 28.5t-15 65
t19 67.5q12 22 19 31q-14 25 -15.5 51t8.5 45.5t28.5 32.5t42 16t52.5 -7.5t57 -34.5q51 2 92 -27t60 -88q11 -32 14 -79q44 15 71 39.5t29 56.5q0 2 2 3t4 0t2 -4q-6 -70 -107 -103q4 -79 -16 -167t-51 -149q9 4 24 24t27 40.5l27 47l18 31.5q9 15 41 72.5l57 100.5
t66 97.5t81 89.5q9 8 18 4.5t-1 -19.5q-47 -69 -77.5 -158t-40 -153.5t-14.5 -120t-6 -58.5q28 12 79 41q19 11 18 6q-2 -7 -22 -20q-54 -36 -80 -48q-23 -92 -77 -178t-137 -143q-63 -43 -130 -61q-57 -17 -113.5 -6t-79.5 51q-21 34 -3 77q-24 38 -25.5 78.5t16.5 69
t45 47t62 17.5t65 -24q24 -18 36 -44q35 15 75.5 30.5l92 34t79.5 29.5q10 36 23 94.5t24 101t23 69.5q5 11 9 7q3 -3 0 -10zM246 -136q11 -49 -16 -97q-1 -2 -3.5 -2t-3.5 1.5t0 4.5q23 40 11 87q-69 -32 -118 -65q-41 -30 -58 -57q39 -46 105 -55q70 -9 143.5 38.5
t119.5 120.5q30 45 54 125q-140 -55 -234 -101zM358 338q-11 83 -66 159q-17 22 -31 36q-43 5 -86 -20.5t-71 -73.5q26 -39 80 -69q72 -41 174 -32zM496 -28q-23 -86 -55 -136q-50 -75 -128 -123.5t-152 -38.5q-68 8 -108 53q-12 -25 1 -46q19 -33 80 -37t106 11
q107 28 190 118t108 216zM224 -116q-12 22 -31 36q-28 22 -60 24t-56.5 -13.5t-40.5 -41t-15 -61.5t23 -72q21 35 62 63q51 35 118 65zM247 545q-30 25 -60.5 33t-52.5 -0.5t-37.5 -27t-15 -45t14.5 -54.5q61 82 151 94zM307 499q52 -76 61 -156l3 2q11 8 23 10
q-5 38 -14 63q-29 90 -97 110q16 -18 24 -29z" />
    <glyph glyph-name="Thorn" unicode="&#xde;" horiz-adv-x="358" 
d="M394 644q7 -8 2 -9t-8 2q-25 13 -54 12q-72 -1 -162 -282q18 30 62 80t58 62q13 12 35.5 10t28.5 -22q8 -26 -5.5 -87t-44.5 -110q-34 -51 -89.5 -78.5t-99.5 -18.5l-13 -44q-40 -137 -46 -191q0 -3 -2 -15.5t-3 -20t-2 -20.5t1 -21.5t5 -18t10.5 -14.5t17.5 -7
q14 -3 13 -8q0 -6 -28 -1q-33 4 -50.5 47t-7.5 91q14 66 70 241q-14 15 -12 36t19 37q2 -18 7 -33l27 81q18 65 76 200q16 38 39.5 75t44.5 46q4 1 33.5 1t35.5 -1q26 -3 42 -19zM293 478q-35 -18 -77 -74t-74 -121q-5 -14 -19 -61q38 -24 84 18.5t70 90.5q35 71 30 126
q-2 24 -12 22q-1 0 -2 -1z" />
    <glyph glyph-name="germandbls" unicode="&#xdf;" horiz-adv-x="508" 
d="M510 377q0 -33 -33 -67q-28 -33 -74 -57q-14 -6 -14 -17q0 -6 6 -8q74 -27 74 -97q0 -58 -52 -107q-58 -53 -145 -59q-7 -1 -19 -1q-28 0 -28 7t23 8q79 3 132 52q50 47 50 101q0 46 -41 70q-25 15 -25 31q0 17 31 38q70 47 71 102q2 58 -53 76q-6 2 -8 2q-15 0 -30 -18
t-24 -42q-142 -417 -218 -505q-82 -97 -158 -103q-66 -4 -71 44q-2 20 12 35t33 15q13 0 22 -9q8 -10 7 -23q-2 -14 -12 -23q-10 -10 -24 -10q-12 0 -20 8q7 -19 39 -19q6 0 14 2q58 15 98 65q34 43 86 162l161 374q11 27 28 44q21 21 51 18q56 -5 85 -31q26 -22 26 -58z
" />
    <glyph glyph-name="agrave" unicode="&#xe0;" horiz-adv-x="269" 
d="M324 67q-3 -7 -20.5 -24.5t-48.5 -34t-56 -8.5q-37 13 -37 102l-4 -6q-3 -5 -9.5 -15l-14.5 -21.5t-18 -23.5t-20 -21.5t-21 -14.5t-20 -4q-32 5 -32.5 44t25 88t62.5 84q69 63 128 33q18 -11 17 -32t-19 -24q16 28 -5 39q-26 13 -66 -21q-29 -25 -58 -64.5t-43 -72.5
q-15 -39 -7 -50t41 20q22 21 74 97q7 9 12.5 14t10 6.5t7 -4t2.5 -17.5q-4 -51 0 -76q6 -32 18.5 -40.5t41.5 5.5q8 4 15.5 10t14 12l11 10.5l8.5 8.5l4 5q1 1 3 0t3 -3zM131 351q-6 6 -6 17q0 13 9 13q5 0 15 -8l84 -64q4 -3 4 -7q0 -7 -8 -7q-4 0 -6 1q-52 29 -92 55z" />
    <glyph glyph-name="aacute" unicode="&#xe1;" horiz-adv-x="269" 
d="M324 67q-3 -7 -20.5 -24.5t-48.5 -34t-56 -8.5q-37 13 -37 102l-4 -6q-3 -5 -9.5 -15l-14.5 -21.5t-18 -23.5t-20 -21.5t-21 -14.5t-20 -4q-32 5 -32.5 44t25 88t62.5 84q69 63 128 33q18 -11 17 -32t-19 -24q16 28 -5 39q-26 13 -66 -21q-29 -25 -58 -64.5t-43 -72.5
q-15 -39 -7 -50t41 20q22 21 74 97q7 9 12.5 14t10 6.5t7 -4t2.5 -17.5q-4 -51 0 -76q6 -32 18.5 -40.5t41.5 5.5q8 4 15.5 10t14 12l11 10.5l8.5 8.5l4 5q1 1 3 0t3 -3zM291 361q-5 -8 -63 -35q-57 -27 -62 -25q-5 3 -2 9l82 61q14 10 27 10q4 0 12 -2q12 -6 6 -18z" />
    <glyph glyph-name="acircumflex" unicode="&#xe2;" horiz-adv-x="269" 
d="M324 67q-3 -7 -20.5 -24.5t-48.5 -34t-56 -8.5q-37 13 -37 102l-4 -6q-3 -5 -9.5 -15l-14.5 -21.5t-18 -23.5t-20 -21.5t-21 -14.5t-20 -4q-32 5 -32.5 44t25 88t62.5 84q69 63 128 33q18 -11 17 -32t-19 -24q16 28 -5 39q-26 13 -66 -21q-29 -25 -58 -64.5t-43 -72.5
q-15 -39 -7 -50t41 20q22 21 74 97q7 9 12.5 14t10 6.5t7 -4t2.5 -17.5q-4 -51 0 -76q6 -32 18.5 -40.5t41.5 5.5q8 4 15.5 10t14 12l11 10.5l8.5 8.5l4 5q1 1 3 0t3 -3zM284 278q0 -4 -2 -5q-5 0 -8 1q-6 2 -7 4l-37 58l-108 -58q-4 -4 -14 -4q-8 -2 -8 2v1l1 1l122 86
q30 4 31 0z" />
    <glyph glyph-name="atilde" unicode="&#xe3;" horiz-adv-x="269" 
d="M324 67q-3 -7 -20.5 -24.5t-48.5 -34t-56 -8.5q-37 13 -37 102l-4 -6q-3 -5 -9.5 -15l-14.5 -21.5t-18 -23.5t-20 -21.5t-21 -14.5t-20 -4q-32 5 -32.5 44t25 88t62.5 84q69 63 128 33q18 -11 17 -32t-19 -24q16 28 -5 39q-26 13 -66 -21q-29 -25 -58 -64.5t-43 -72.5
q-15 -39 -7 -50t41 20q22 21 74 97q7 9 12.5 14t10 6.5t7 -4t2.5 -17.5q-4 -51 0 -76q6 -32 18.5 -40.5t41.5 5.5q8 4 15.5 10t14 12l11 10.5l8.5 8.5l4 5q1 1 3 0t3 -3zM289 330q-23 -48 -56 -45q-15 2 -34 11q-24 11 -34 11q-19 2 -29 -19q-2 -2 -8 -1q-5 1 -5 2
q25 46 55 43q16 -2 35 -11q21 -8 34 -10q21 -2 30 20q1 2 7 2q6 -2 5 -3z" />
    <glyph glyph-name="adieresis" unicode="&#xe4;" horiz-adv-x="269" 
d="M324 67q-3 -7 -20.5 -24.5t-48.5 -34t-56 -8.5q-37 13 -37 102l-4 -6q-3 -5 -9.5 -15l-14.5 -21.5t-18 -23.5t-20 -21.5t-21 -14.5t-20 -4q-32 5 -32.5 44t25 88t62.5 84q69 63 128 33q18 -11 17 -32t-19 -24q16 28 -5 39q-26 13 -66 -21q-29 -25 -58 -64.5t-43 -72.5
q-15 -39 -7 -50t41 20q22 21 74 97q7 9 12.5 14t10 6.5t7 -4t2.5 -17.5q-4 -51 0 -76q6 -32 18.5 -40.5t41.5 5.5q8 4 15.5 10t14 12l11 10.5l8.5 8.5l4 5q1 1 3 0t3 -3zM271 318q0 -22 -21 -22q-23 0 -23 22t22 22t22 -22zM185 318q0 -22 -21 -22q-23 0 -23 22t22 22
t22 -22z" />
    <glyph glyph-name="aring" unicode="&#xe5;" horiz-adv-x="269" 
d="M324 67q-3 -7 -20.5 -24.5t-48.5 -34t-56 -8.5q-37 13 -37 102l-4 -6q-3 -5 -9.5 -15l-14.5 -21.5t-18 -23.5t-20 -21.5t-21 -14.5t-20 -4q-32 5 -32.5 44t25 88t62.5 84q69 63 128 33q18 -11 17 -32t-19 -24q16 28 -5 39q-26 13 -66 -21q-29 -25 -58 -64.5t-43 -72.5
q-15 -39 -7 -50t41 20q22 21 74 97q7 9 12.5 14t10 6.5t7 -4t2.5 -17.5q-4 -51 0 -76q6 -32 18.5 -40.5t41.5 5.5q8 4 15.5 10t14 12l11 10.5l8.5 8.5l4 5q1 1 3 0t3 -3zM273 315q0 -18 -13 -30q-13 -13 -30 -13q-15 0 -30 13q-12 12 -12 30t12 30q15 13 30 13q17 0 30 -13
q13 -12 13 -30zM261 315q0 13 -9 22t-23 9q-12 0 -21 -9t-9 -22t9 -22t21 -9q14 0 23 9t9 22z" />
    <glyph glyph-name="ae" unicode="&#xe6;" horiz-adv-x="327" 
d="M344 77q-25 -30 -76 -56q-57 -30 -99 -30q-62 0 -62 68v10q-21 -28 -46 -48q-25 -22 -44 -22q-24 0 -24 32q0 27 18 55q44 67 98 91q22 11 43 11q12 0 20 -4q24 21 47 21q33 0 33 -33q0 -20 -17 -43q-30 -37 -89 -52q-3 -13 -3 -24q0 -46 42 -46q34 0 83 28q43 23 67 50
q13 15 13 1q0 -5 -4 -9zM133 165q-55 0 -95 -78q-11 -22 -11 -38q0 -18 12 -18q11 0 32 16q33 28 45 59q7 38 17 59zM221 139q13 22 13 37q0 12 -8 12q-12 0 -38 -33q-24 -31 -38 -66q51 16 71 50z" />
    <glyph glyph-name="ccedilla" unicode="&#xe7;" horiz-adv-x="199" 
d="M142 -80q0 -28 -34 -50q-16 -12 -51 -12q-18 0 -48 7q-36 9 -36 24q0 5 4 5q2 0 10 -8q16 -16 57 -16q49 0 64 24q10 13 10 27q0 17 -17 29q-13 9 -33 9q-13 0 -31 -8l-17 -8q-13 0 -13 10q0 3 3 6l26 21q2 1 4 3.5t3 2.5q-24 10 -29 44t5 66q20 76 73 133q45 46 86 10
q5 -4 9.5 -15.5t1.5 -18.5t-8 3q0 1 -1 3q-6 11 -22 11q-28 0 -57 -46t-43 -87q-8 -21 -10 -41t7.5 -35.5t33.5 -10.5q55 10 112 76q7 7 7 0q0 -5 -6 -12q-17 -21 -47.5 -44.5t-60.5 -33.5q-26 -8 -41 -5q-16 -12 -16 -14q18 2 26 2q27 0 51 -11q28 -15 28 -40z" />
    <glyph glyph-name="egrave" unicode="&#xe8;" horiz-adv-x="225" 
d="M243 70q-20 -24 -56 -46.5t-78.5 -33t-70.5 15.5q-29 27 -19 90q6 30 24.5 66.5t44.5 61.5q47 45 102 11q21 -17 18.5 -41t-21.5 -50h20q15 0 -6 -7q-11 -4 -25 -7q-10 -12 -20 -19q-16 -12 -15 -4q0 4 5 9l10 11q-81 -6 -86 -7q-10 -24 -11 -52q-2 -36 16 -50.5
t41 -10.5q64 11 124 74q6 6 8 1q2 -4 -5 -12zM181 179q6 28 -3.5 36.5t-25 1.5t-29.5 -21q-28 -26 -43 -55q74 2 86 2q12 24 15 36zM87 335q-6 6 -6 17q0 13 9 13q5 0 15 -8l84 -64q4 -3 4 -7q0 -7 -8 -7q-4 0 -6 1q-52 29 -92 55z" />
    <glyph glyph-name="eacute" unicode="&#xe9;" horiz-adv-x="225" 
d="M243 70q-20 -24 -56 -46.5t-78.5 -33t-70.5 15.5q-29 27 -19 90q6 30 24.5 66.5t44.5 61.5q47 45 102 11q21 -17 18.5 -41t-21.5 -50h20q15 0 -6 -7q-11 -4 -25 -7q-10 -12 -20 -19q-16 -12 -15 -4q0 4 5 9l10 11q-81 -6 -86 -7q-10 -24 -11 -52q-2 -36 16 -50.5
t41 -10.5q64 11 124 74q6 6 8 1q2 -4 -5 -12zM181 179q6 28 -3.5 36.5t-25 1.5t-29.5 -21q-28 -26 -43 -55q74 2 86 2q12 24 15 36zM265 340q-5 -8 -63 -35q-57 -27 -62 -25q-5 3 -2 9l82 61q14 10 27 10q4 0 12 -2q12 -6 6 -18z" />
    <glyph glyph-name="ecircumflex" unicode="&#xea;" horiz-adv-x="225" 
d="M243 70q-20 -24 -56 -46.5t-78.5 -33t-70.5 15.5q-29 27 -19 90q6 30 24.5 66.5t44.5 61.5q47 45 102 11q21 -17 18.5 -41t-21.5 -50h20q15 0 -6 -7q-11 -4 -25 -7q-10 -12 -20 -19q-16 -12 -15 -4q0 4 5 9l10 11q-81 -6 -86 -7q-10 -24 -11 -52q-2 -36 16 -50.5
t41 -10.5q64 11 124 74q6 6 8 1q2 -4 -5 -12zM239 273q0 -4 -2 -5q-5 0 -8 1q-6 2 -7 4l-37 58l-108 -58q-4 -4 -14 -4q-8 -2 -8 2q0 1 0.5 1t0.5 1l122 86q30 4 31 0zM181 179q6 28 -3.5 36.5t-25 1.5t-29.5 -21q-28 -26 -43 -55q74 2 86 2q12 24 15 36z" />
    <glyph glyph-name="edieresis" unicode="&#xeb;" horiz-adv-x="225" 
d="M243 70q-20 -24 -56 -46.5t-78.5 -33t-70.5 15.5q-29 27 -19 90q6 30 24.5 66.5t44.5 61.5q47 45 102 11q21 -17 18.5 -41t-21.5 -50h20q15 0 -6 -7q-11 -4 -25 -7q-10 -12 -20 -19q-16 -12 -15 -4q0 4 5 9l10 11q-81 -6 -86 -7q-10 -24 -11 -52q-2 -36 16 -50.5
t41 -10.5q64 11 124 74q6 6 8 1q2 -4 -5 -12zM181 179q6 28 -3.5 36.5t-25 1.5t-29.5 -21q-28 -26 -43 -55q74 2 86 2q12 24 15 36zM242 314q0 -22 -21 -22q-23 0 -23 22t22 22t22 -22zM156 314q0 -22 -21 -22q-23 0 -23 22t22 22t22 -22z" />
    <glyph glyph-name="igrave" unicode="&#xec;" horiz-adv-x="136" 
d="M180 86q-15 -25 -62 -60q-45 -35 -69.5 -22.5t-18.5 78.5q2 18 9.5 47.5t15 56t8.5 30.5q2 8 23 7.5t20 -11.5q0 -11 -7.5 -29.5t-17.5 -20.5q-2 0 -15 -86q-3 -22 -0.5 -35.5t13.5 -17t33 16.5q59 48 61 51q4 3 6.5 1t0.5 -6zM43 329q-6 6 -6 17q0 13 9 13q5 0 15 -8
l84 -64q4 -3 4 -7q0 -7 -8 -7q-4 0 -6 1q-52 29 -92 55z" />
    <glyph glyph-name="iacute" unicode="&#xed;" horiz-adv-x="136" 
d="M180 86q-15 -25 -62 -60q-45 -35 -69.5 -22.5t-18.5 78.5q2 18 9.5 47.5t15 56t8.5 30.5q2 8 23 7.5t20 -11.5q0 -11 -7.5 -29.5t-17.5 -20.5q-2 0 -15 -86q-3 -22 -0.5 -35.5t13.5 -17t33 16.5q59 48 61 51q4 3 6.5 1t0.5 -6zM210 328q-5 -8 -63 -35q-57 -27 -62 -25
q-5 3 -2 9l82 61q14 10 27 10q4 0 12 -2q12 -6 6 -18z" />
    <glyph glyph-name="icircumflex" unicode="&#xee;" horiz-adv-x="136" 
d="M180 86q-15 -25 -62 -60q-45 -35 -69.5 -22.5t-18.5 78.5q2 18 9.5 47.5t15 56t8.5 30.5q2 8 23 7.5t20 -11.5q0 -11 -7.5 -29.5t-17.5 -20.5q-2 0 -15 -86q-3 -22 -0.5 -35.5t13.5 -17t33 16.5q59 48 61 51q4 3 6.5 1t0.5 -6zM172 243q0 -4 -2 -5q-5 0 -8 1q-6 2 -7 4
l-37 58l-108 -58q-4 -4 -14 -4q-8 -2 -8 2q0 1 0.5 1t0.5 1l122 86q30 4 31 0z" />
    <glyph glyph-name="idieresis" unicode="&#xef;" horiz-adv-x="136" 
d="M180 86q-15 -25 -62 -60q-45 -35 -69.5 -22.5t-18.5 78.5q2 18 9.5 47.5t15 56t8.5 30.5q2 8 23 7.5t20 -11.5q0 -11 -7.5 -29.5t-17.5 -20.5q-2 0 -15 -86q-3 -22 -0.5 -35.5t13.5 -17t33 16.5q59 48 61 51q4 3 6.5 1t0.5 -6zM173 299q0 -22 -21 -22q-23 0 -23 22t22 22
t22 -22zM87 299q0 -22 -21 -22q-23 0 -23 22t22 22t22 -22z" />
    <glyph glyph-name="eth" unicode="&#xf0;" horiz-adv-x="340" 
d="M319 320l-4 3v-2l-2 3q-2 0 -2 5l1 1q0 2 1 7t3 11q5 18 5 28q0 37 -48 37q-60 0 -139 -74q-78 -75 -78 -135q0 -35 31 -35q23 0 63 20q35 17 57 34q15 11 39 38q34 37 37 40q1 3 6 3q8 0 17 -9q9 -10 9 -15q0 -4 -54 -88q-94 -148 -108 -219q-3 -13 -4 -17
q-3 -11 -12 -11q-8 0 -8 12q3 78 94 255q-38 -28 -70 -43q-47 -22 -78 -22q-59 0 -54 77q4 66 95 138q86 70 156 70q71 0 71 -55q0 -18 -8 -36q-9 -18 -16 -21z" />
    <glyph glyph-name="ntilde" unicode="&#xf1;" horiz-adv-x="253" 
d="M268 24q4 4 4 -3q1 -10 -10 -21q-10 -11 -29 -19.5t-38 -5.5q-23 4 -33 25t-7 51t8.5 56.5t14 53t8.5 27.5q-9 -12 -40.5 -47.5l-56.5 -65.5t-29 -42q-9 -24 -31 -31q-12 -4 -12 4q-1 2 0 4q0 1 7 27t12 47.5t8.5 53t0.5 56.5q-2 20 23 31q23 11 28 -3q1 -3 0 -9
q-2 -10 -9 -47.5t-12.5 -64t-7.5 -30.5q59 54 127 160q5 9 23.5 7t20.5 -10q2 -6 -2 -19t-12.5 -38t-14.5 -48q-6 -25 -10 -48t-5 -44t3.5 -33t14.5 -11q29 4 56 37zM250 325q-23 -48 -56 -45q-15 2 -34 11q-24 11 -34 11q-19 2 -29 -19q-2 -2 -8 -1q-5 1 -5 2q25 46 55 43
q16 -2 35 -11q21 -8 34 -10q21 -2 30 20q1 2 7 2q6 -2 5 -3z" />
    <glyph glyph-name="ograve" unicode="&#xf2;" horiz-adv-x="235" 
d="M293 185q6 0 0 -7q-2 -4 -8 -7q-19 -9 -45 -11t-37 4q2 -15 -8.5 -47.5t-27.5 -61.5q-21 -37 -46 -54t-44 -12t-33.5 22.5t-15.5 49t10 68.5q37 112 91 117q14 17 44.5 -2t33.5 -47q10 -12 23.5 -15t35 0t27.5 3zM183 169q-19 3 -30 14t-12 20l-1 9q-17 -4 -37 -39
t-31 -76q-19 -72 9.5 -86.5t65.5 44.5q17 27 28 64t8 50zM95 350q-6 6 -6 17q0 13 9 13q5 0 15 -8l84 -64q4 -3 4 -7q0 -7 -8 -7q-4 0 -6 1q-52 29 -92 55z" />
    <glyph glyph-name="oacute" unicode="&#xf3;" horiz-adv-x="235" 
d="M293 185q6 0 0 -7q-2 -4 -8 -7q-19 -9 -45 -11t-37 4q2 -15 -8.5 -47.5t-27.5 -61.5q-21 -37 -46 -54t-44 -12t-33.5 22.5t-15.5 49t10 68.5q37 112 91 117q14 17 44.5 -2t33.5 -47q10 -12 23.5 -15t35 0t27.5 3zM183 169q-19 3 -30 14t-12 20l-1 9q-17 -4 -37 -39
t-31 -76q-19 -72 9.5 -86.5t65.5 44.5q17 27 28 64t8 50zM256 360q-5 -8 -63 -35q-57 -27 -62 -25q-5 3 -2 9l82 61q14 10 27 10q4 0 12 -2q12 -6 6 -18z" />
    <glyph glyph-name="ocircumflex" unicode="&#xf4;" horiz-adv-x="235" 
d="M293 185q6 0 0 -7q-2 -4 -8 -7q-19 -9 -45 -11t-37 4q2 -15 -8.5 -47.5t-27.5 -61.5q-21 -37 -46 -54t-44 -12t-33.5 22.5t-15.5 49t10 68.5q37 112 91 117q14 17 44.5 -2t33.5 -47q10 -12 23.5 -15t35 0t27.5 3zM183 169q-19 3 -30 14t-12 20l-1 9q-17 -4 -37 -39
t-31 -76q-19 -72 9.5 -86.5t65.5 44.5q17 27 28 64t8 50zM241 266q0 -4 -2 -5q-5 0 -8 1q-6 2 -7 4l-37 58l-108 -58q-4 -4 -14 -4q-8 -2 -8 2l1 1v1l122 86q30 4 31 0z" />
    <glyph glyph-name="otilde" unicode="&#xf5;" horiz-adv-x="235" 
d="M293 185q6 0 0 -7q-2 -4 -8 -7q-19 -9 -45 -11t-37 4q2 -15 -8.5 -47.5t-27.5 -61.5q-21 -37 -46 -54t-44 -12t-33.5 22.5t-15.5 49t10 68.5q37 112 91 117q14 17 44.5 -2t33.5 -47q10 -12 23.5 -15t35 0t27.5 3zM183 169q-19 3 -30 14t-12 20l-1 9q-17 -4 -37 -39
t-31 -76q-19 -72 9.5 -86.5t65.5 44.5q17 27 28 64t8 50zM252 335q-23 -48 -56 -45q-15 2 -34 11q-24 11 -34 11q-19 2 -29 -19q-2 -2 -8 -1q-5 1 -5 2q25 46 55 43q16 -2 35 -11q21 -8 34 -10q21 -2 30 20q1 2 7 2q6 -2 5 -3z" />
    <glyph glyph-name="odieresis" unicode="&#xf6;" horiz-adv-x="235" 
d="M293 185q6 0 0 -7q-2 -4 -8 -7q-19 -9 -45 -11t-37 4q2 -15 -8.5 -47.5t-27.5 -61.5q-21 -37 -46 -54t-44 -12t-33.5 22.5t-15.5 49t10 68.5q37 112 91 117q14 17 44.5 -2t33.5 -47q10 -12 23.5 -15t35 0t27.5 3zM183 169q-19 3 -30 14t-12 20l-1 9q-17 -4 -37 -39
t-31 -76q-19 -72 9.5 -86.5t65.5 44.5q17 27 28 64t8 50zM233 316q0 -22 -21 -22q-23 0 -23 22t22 22t22 -22zM147 316q0 -22 -21 -22q-23 0 -23 22t22 22t22 -22z" />
    <glyph glyph-name="divide" unicode="&#xf7;" horiz-adv-x="160" 
d="M224 138l-229 1v14h229v-15zM187 242q0 -13 -9 -22q-10 -9 -23 -9t-23 9q-9 9 -9 22t9 22q10 9 23 9t23 -9q9 -9 9 -22zM131 27q0 -13 -10 -22q-9 -9 -22 -9q-14 0 -23 9t-9 22q0 12 9 21t23 9q13 0 22 -9q10 -9 10 -21z" />
    <glyph glyph-name="oslash" unicode="&#xf8;" 
 />
    <glyph glyph-name="ugrave" unicode="&#xf9;" horiz-adv-x="281" 
d="M340 67q-2 -6 -20 -24.5t-48.5 -34.5t-55.5 -8q-18 6 -28.5 35t-12.5 54.5t-1 26.5l-4 -6q-4 -6 -10.5 -17.5t-15.5 -24.5t-19.5 -26.5t-21 -24t-22 -16.5t-20.5 -5q-33 5 -37 41.5t16 88.5t56 106q9 14 41 7q15 -6 14 -11q-24 -24 -50.5 -72t-39.5 -85q-13 -38 -2 -50
t45 19q8 7 19 22l20 27.5t22 33t19 28.5q8 12 15.5 17.5t12 1t3.5 -20.5q-3 -125 36 -131q13 -3 30 7q8 4 15.5 10t14 12l11 10.5l8.5 8.5l4 5q3 1 6 -4zM119 313q-6 6 -6 17q0 13 9 13q5 0 15 -8l84 -64q4 -3 4 -7q0 -7 -8 -7q-4 0 -6 1q-52 29 -92 55z" />
    <glyph glyph-name="uacute" unicode="&#xfa;" horiz-adv-x="281" 
d="M340 67q-2 -6 -20 -24.5t-48.5 -34.5t-55.5 -8q-18 6 -28.5 35t-12.5 54.5t-1 26.5l-4 -6q-4 -6 -10.5 -17.5t-15.5 -24.5t-19.5 -26.5t-21 -24t-22 -16.5t-20.5 -5q-33 5 -37 41.5t16 88.5t56 106q9 14 41 7q15 -6 14 -11q-24 -24 -50.5 -72t-39.5 -85q-13 -38 -2 -50
t45 19q8 7 19 22l20 27.5t22 33t19 28.5q8 12 15.5 17.5t12 1t3.5 -20.5q-3 -125 36 -131q13 -3 30 7q8 4 15.5 10t14 12l11 10.5l8.5 8.5l4 5q3 1 6 -4zM291 318q-5 -8 -63 -35q-57 -27 -62 -25q-5 3 -2 9l82 61q14 10 27 10q4 0 12 -2q12 -6 6 -18z" />
    <glyph glyph-name="ucircumflex" unicode="&#xfb;" horiz-adv-x="281" 
d="M340 67q-2 -6 -20 -24.5t-48.5 -34.5t-55.5 -8q-18 6 -28.5 35t-12.5 54.5t-1 26.5l-4 -6q-4 -6 -10.5 -17.5t-15.5 -24.5t-19.5 -26.5t-21 -24t-22 -16.5t-20.5 -5q-33 5 -37 41.5t16 88.5t56 106q9 14 41 7q15 -6 14 -11q-24 -24 -50.5 -72t-39.5 -85q-13 -38 -2 -50
t45 19q8 7 19 22l20 27.5t22 33t19 28.5q8 12 15.5 17.5t12 1t3.5 -20.5q-3 -125 36 -131q13 -3 30 7q8 4 15.5 10t14 12l11 10.5l8.5 8.5l4 5q3 1 6 -4zM271 258q0 -4 -2 -5q-5 0 -8 1q-6 2 -7 4l-37 58l-108 -58q-4 -4 -14 -4q-8 -2 -8 2l1 1v1l122 86q30 4 31 0z" />
    <glyph glyph-name="udieresis" unicode="&#xfc;" horiz-adv-x="281" 
d="M340 67q-2 -6 -20 -24.5t-48.5 -34.5t-55.5 -8q-18 6 -28.5 35t-12.5 54.5t-1 26.5l-4 -6q-4 -6 -10.5 -17.5t-15.5 -24.5t-19.5 -26.5t-21 -24t-22 -16.5t-20.5 -5q-33 5 -37 41.5t16 88.5t56 106q9 14 41 7q15 -6 14 -11q-24 -24 -50.5 -72t-39.5 -85q-13 -38 -2 -50
t45 19q8 7 19 22l20 27.5t22 33t19 28.5q8 12 15.5 17.5t12 1t3.5 -20.5q-3 -125 36 -131q13 -3 30 7q8 4 15.5 10t14 12l11 10.5l8.5 8.5l4 5q3 1 6 -4zM269 277q0 -22 -21 -22q-23 0 -23 22t22 22t22 -22zM183 277q0 -22 -21 -22q-23 0 -23 22t22 22t22 -22z" />
    <glyph glyph-name="yacute" unicode="&#xfd;" horiz-adv-x="242" 
d="M225 208q0 -28 -18 -107t-31 -108q31 7 34 24q1 6 4.5 9t6 0.5t1.5 -10.5q-4 -29 -54 -41q-30 -83 -84.5 -163.5t-117.5 -123.5q-46 -31 -96 -39q-45 -7 -82.5 11.5t-51.5 60.5q-12 38 3.5 74.5t52.5 61.5q90 61 349 128q7 17 14 49t16 79t10 53q-41 -74 -87 -128
q-6 -21 -26 -35q-18 -13 -17 7q0 5 1 11q35 152 -10 146q-8 -1 -19 -8q-9 -6 -10.5 -0.5t8.5 12.5q38 29 62 15q14 -8 17 -38.5t0 -55.5t-5 -27q0 -7 89 118q5 33 28 33q13 0 13 -8zM136 -31q-68 -16 -177 -60.5t-161 -79.5q-28 -19 -45 -45t-8 -53q12 -34 51 -46t80 -7
q30 4 56.5 15t46 23.5t39 35t31.5 38.5t27 45.5l22 44t20 47t18 42.5zM183 335q-5 -8 -63 -35q-57 -27 -62 -25q-5 3 -2 9l82 61q14 10 27 10q4 0 12 -2q12 -6 6 -18z" />
    <glyph glyph-name="thorn" unicode="&#xfe;" horiz-adv-x="250" 
d="M239 149q-42 -25 -42 -26q-2 -54 -24 -85t-56 -40q-39 -9 -37 22q1 26 23 53q4 5 19 17l28 22l12 11q0 21 -16 55t-34 42q-1 1 -27 -72.5t-54 -165.5t-32 -131q0 -3 -1.5 -12l-2.5 -15.5t-1.5 -15.5t0.5 -16t3.5 -14t8 -11t13.5 -5q10 -2 10 -6q1 -5 -21 -1
q-25 4 -38.5 36.5t-5.5 68.5q10 47 39 139t53 161l25 68q-1 0 -4 1.5t-4.5 2t-3 2.5t-0.5 4q2 8 8 13.5t10.5 8t4.5 1.5t23.5 67.5l48 142.5t26.5 86v9.5t-2 7t-3 4.5t-3.5 3t-3.5 3q-7 3 1 6q4 1 9 0q20 -5 30 -16t8 -19q-3 -10 -52.5 -157.5t-48.5 -146.5q61 -39 71 -110
q0 -1 6.5 2t18 10t18.5 10q12 6 12 1q0 -7 -12 -15zM162 109q-37 -32 -53 -57q-17 -29 -0.5 -34t34.5 16l6 10q9 18 12 37.5t1 27.5z" />
    <glyph glyph-name="ydieresis" unicode="&#xff;" horiz-adv-x="242" 
d="M225 208q0 -28 -18 -107t-31 -108q31 7 34 24q1 6 4.5 9t6 0.5t1.5 -10.5q-4 -29 -54 -41q-30 -83 -84.5 -163.5t-117.5 -123.5q-46 -31 -96 -39q-45 -7 -82.5 11.5t-51.5 60.5q-12 38 3.5 74.5t52.5 61.5q90 61 349 128q7 17 14 49t16 79t10 53q-41 -74 -87 -128
q-6 -21 -26 -35q-18 -13 -17 7q0 5 1 11q35 152 -10 146q-8 -1 -19 -8q-9 -6 -10.5 -0.5t8.5 12.5q38 29 62 15q14 -8 17 -38.5t0 -55.5t-5 -27q0 -7 89 118q5 33 28 33q13 0 13 -8zM136 -31q-68 -16 -177 -60.5t-161 -79.5q-28 -19 -45 -45t-8 -53q12 -34 51 -46t80 -7
q30 4 56.5 15t46 23.5t39 35t31.5 38.5t27 45.5l22 44t20 47t18 42.5zM186 309q0 -22 -21 -22q-23 0 -23 22t22 22t22 -22zM100 309q0 -22 -21 -22q-23 0 -23 22t22 22t22 -22z" />
    <glyph glyph-name="hbar" unicode="&#x127;" horiz-adv-x="242" 
d="M477 512q14 -37 0 -74t-50 -64q-40 -31 -107 -61.5t-109.5 -45l-124.5 -40.5q-16 -43 -34 -160q14 21 44 59.5l39 50.5q5 22 25 36q17 13 17 -6q0 -5 -1 -11q-12 -76 -12 -108q0 -46 11 -58.5t43 8.5q13 9 26.5 24t23.5 27.5t11 13.5q2 2 4 -4l1 -2q-8 -20 -55 -66
t-81 -29q-17 8 -22 44.5t-2 67.5t5 33q0 1 -2.5 -1.5t-8 -9l-11.5 -13.5t-14 -18t-14.5 -18.5t-15.5 -19t-13 -17.5q-3 -36 -26 -50q-10 -6 -10 0q-1 28 12.5 108t24.5 109q-31 -8 -33 -25q-2 -12 -7 -11t-4 11q1 28 51 43q12 42 34 89h-56l14 32h57q62 120 138 176
q43 34 94 45q44 9 83 -8t55 -57zM205 356l-14 -32h-72l-29 -80q67 19 173.5 68.5t156.5 87.5q67 52 48 101q-13 34 -52.5 44t-80.5 2q-77 -15 -124 -65t-79 -126h73z" />
    <glyph glyph-name="Itilde" unicode="&#x128;" horiz-adv-x="441" 
d="M235 140q58 166 45 294q-2 19 -8 46q-125 -13 -167 -71q-32 -44 7 -83q29 -30 91 -41q7 -2 2 -6.5t-12 -2.5q-66 20 -101.5 47.5t-35.5 55t22.5 53t72 44.5t114.5 26q-29 76 -92 85q-60 8 -106 -48q-63 -76 -44 -208q15 -104 75.5 -151t136.5 -40zM295 482q6 -22 9 -50
q11 -123 -50 -289q20 4 34 10q28 85 46.5 181t19.5 148q-32 2 -59 0zM197 23q10 0 32 -2q30 46 55 119q-13 -4 -35 -8q-19 -53 -52 -109zM214 -1q-11 1 -31 1h-1q-11 -18 -27 -37q3 0 11 2q24 6 48 34zM409 27q27 -11 34 -30q6 -18 -20 -21q-15 -1 -38 4q-73 14 -138 18
q-26 -33 -51 -46q-22 -13 -52 -2q-38 -42 -77 -62q-28 -14 -53 -15t-42 18q-3 6 2 7q3 1 4 -1q26 -34 89 0q37 20 68 57q-32 14 -39 31q-2 8 5 8q3 0 4.5 -2t4.5 -6.5t8 -7.5q12 -10 25 -13q16 19 26 36q-141 -3 -141 -47q0 -10 10 -22.5t20 -18.5q8 -5 -2 -6q-8 -1 -14 3
q-41 28 -41 51q0 64 172 64q7 0 10 -1q27 46 49 107q-80 -6 -145.5 46t-79.5 156q-19 142 54 218q54 56 124 44q71 -14 103 -90h37.5t40.5 1l16 15q23 16 24 -14q95 -4 106 -14q2 -2 3 -4q1 -7 -1 -8t-10 0q-11 2 -20 2q-8 0 -38.5 0.5t-43.5 0.5q-25 -171 -70 -307
q51 36 61 90q1 5 5 1q3 -2 2 -5q-16 -65 -73 -101q-31 -89 -66 -143q68 -8 130 -23q36 -8 41 -1t-28 28q-4 3 0 5q2 1 5 0zM478 628q-23 -48 -56 -45q-15 2 -34 11q-24 11 -34 11q-19 2 -29 -19q-2 -2 -8 -1q-5 1 -5 2q25 46 55 43q16 -2 35 -11q21 -8 34 -10q21 -2 30 20
q1 2 7 2q6 -2 5 -3z" />
    <glyph glyph-name="itilde" unicode="&#x129;" horiz-adv-x="136" 
d="M180 86q-15 -25 -62 -60q-45 -35 -69.5 -22.5t-18.5 78.5q2 18 9.5 47.5t15 56t8.5 30.5q2 8 23 7.5t20 -11.5q0 -11 -7.5 -29.5t-17.5 -20.5q-2 0 -15 -86q-3 -22 -0.5 -35.5t13.5 -17t33 16.5q59 48 61 51q4 3 6.5 1t0.5 -6zM189 333q-23 -48 -56 -45q-15 2 -34 11
q-24 11 -34 11q-19 2 -29 -19q-2 -2 -8 -1q-5 1 -5 2q25 46 55 43q16 -2 35 -11q21 -8 34 -10q21 -2 30 20q1 2 7 2q6 -2 5 -3z" />
    <glyph glyph-name="dotlessi" unicode="&#x131;" horiz-adv-x="136" 
d="M180 86q-15 -25 -62 -60q-45 -35 -69.5 -22.5t-18.5 78.5q2 18 9.5 47.5t15 56t8.5 30.5q2 8 23 7.5t20 -11.5q0 -11 -7.5 -29.5t-17.5 -20.5q-2 0 -15 -86q-3 -22 -0.5 -35.5t13.5 -17t33 16.5q59 48 61 51q4 3 6.5 1t0.5 -6z" />
    <glyph glyph-name="IJ" unicode="&#x132;" horiz-adv-x="862" 
d="M722 152q37 169 -33 263q-15 18 -27 29q-56 -26 -74.5 -63.5t-3.5 -69.5t50.5 -56t78.5 -27q8 -1 2.5 -7t-13.5 -5q-68 13 -109 42t-48.5 64t16.5 72t79 65q-59 32 -117 -8q-38 -25 -52.5 -73t-5.5 -94t42 -81.5t82 -37.5q15 -1 14 -4t-15 -2q-71 3 -110 60.5t-28 128.5
t69 110q69 45 135 8q21 9 52 19q42 12 136 18l20 2l4 3q3 3 7.5 7t10 7t10 3t6.5 -4q1 -2 1 -6v-6.5t1 -2.5q94 -4 105 -14q3 -2 3 -4q1 -7 -1 -8t-10 0q-11 2 -20 2l-81 1q-18 -145 -79 -315l44 3q21 2 23 -3q2 -3 -5 -6q-5 -2 -12 -2q-27 -2 -54 -6q-110 -305 -244 -388
q-60 -37 -111.5 -50.5t-85 -4.5t-52 35t-18 62t22.5 81.5t65 89.5q-3 1 -7 1q-73 14 -138 18q-26 -33 -51 -46q-22 -13 -52 -2q-38 -42 -77 -62q-28 -14 -53 -15t-42 18q-3 6 2 7q3 1 4 -1q26 -34 89 0q37 20 68 57q-32 14 -39 31q-2 8 5 8q3 0 4.5 -2t4.5 -6.5t8 -7.5
q12 -10 25 -13q16 19 26 36q-141 -3 -141 -47q0 -10 10 -22.5t20 -18.5q8 -5 -2 -6q-8 -1 -14 3q-41 28 -41 51q0 64 172 64q7 0 10 -1q27 46 49 107q-80 -6 -145.5 46t-79.5 156q-19 142 54 218q54 56 124 44q71 -14 103 -90h37.5t40.5 1l16 15q23 16 24 -14q95 -4 106 -14
q2 -2 3 -4q1 -7 -1 -8t-10 0q-11 2 -20 2q-8 0 -38.5 0.5t-43.5 0.5q-25 -171 -70 -307q51 36 61 90q1 5 5 1q3 -2 2 -5q-16 -65 -73 -101q-31 -89 -66 -143q68 -8 130 -23l14 -3l13 12l5 4q-12 10 -19 14q-4 3 0 5q2 1 5 0q9 -4 20 -13q117 99 293 138zM772 147
q-17 -2 -41 -8q-26 -102 -82 -192t-134 -144.5t-153 -43.5q-2 0 -3 2t0.5 4t3.5 2q73 -11 147.5 42t128.5 140t79 186q-171 -45 -275 -140q3 -15 -18 -18q-4 -4 -5 -6q-45 -48 -69 -92.5t-25.5 -76t15 -51.5t46.5 -24t75 11t96 50q116 81 214 359zM235 140q58 166 45 294
q-2 19 -8 46q-125 -13 -167 -71q-32 -44 7 -83q29 -30 91 -41q7 -2 2 -6.5t-12 -2.5q-66 20 -101.5 47.5t-35.5 55t22.5 53t72 44.5t114.5 26q-29 76 -92 85q-60 8 -106 -48q-63 -76 -44 -208q15 -104 75.5 -151t136.5 -40zM702 422q72 -95 33 -267l42 7q62 189 74 319
q-94 -7 -110 -11q-35 -9 -64 -20q17 -17 25 -28zM295 482q6 -22 9 -50q11 -123 -50 -289q20 4 34 10q28 85 46.5 181t19.5 148q-32 2 -59 0zM197 23q10 0 32 -2q30 46 55 119q-13 -4 -35 -8q-19 -53 -52 -109zM214 -1q-11 1 -31 1h-1q-11 -18 -27 -37q3 0 11 2q24 6 48 34z
" />
    <glyph glyph-name="ij" unicode="&#x133;" horiz-adv-x="272" 
d="M234 220l-2 -10q-1 -11 -4 -22.5t-8.5 -22t-13.5 -11.5l-13.5 -68l-16 -78.5t-19.5 -69t-28 -63.5q-21 -34 -59 -54t-80 -6q-17 5 -12 34q1 9 5 10t4 -9q-1 -10 8.5 -20.5t26.5 -9.5q28 1 53 31q51 60 89 219q-21 -22 -50 -44q-44 -35 -68.5 -22.5t-18.5 78.5
q3 28 33 134q2 8 22.5 7.5t20.5 -11.5t-7.5 -29.5t-17.5 -20.5q-5 -1 -15 -86q-3 -22 -1 -35.5t13 -17t34 16.5q55 45 59 49q7 31 13.5 64.5t9.5 52.5t4 21q3 10 29 1q10 -5 10 -8zM278 303q0 -5 -12.5 -19.5t-22.5 -17.5q-14 -4 -28 6q-5 3 -2 6q37 30 60 29q5 0 5 -4z
M145 303q0 -5 -12 -19.5t-22 -17.5q-17 -4 -29 6q-4 3 -1 6q36 30 58 29q6 0 6 -4z" />
    <glyph glyph-name="Jcircumflex" unicode="&#x134;" horiz-adv-x="421" 
d="M281 152q37 169 -33 263q-15 18 -27 29q-56 -26 -74.5 -63.5t-3.5 -69.5t50.5 -56t78.5 -27q8 -1 2.5 -7t-13.5 -5q-68 13 -109 42t-48.5 64t16.5 72t79 65q-59 32 -117 -8q-38 -25 -52.5 -73t-5.5 -94t42 -81.5t82 -37.5q15 -1 14 -4t-15 -2q-71 3 -110 60.5t-28 128.5
t69 110q69 45 135 8q21 9 52 19q42 12 136 18l20 2l3 3q4 3 8.5 7t10 7t10 3t6.5 -4q1 -2 1 -6v-6.5t1 -2.5q94 -4 105 -14q3 -2 3 -4q1 -7 -1 -8t-10 0q-11 2 -20 2l-81 1q-18 -145 -79 -315l44 3q21 2 23 -3q2 -3 -5 -6q-5 -2 -12 -2q-27 -2 -54 -6q-110 -305 -244 -388
q-62 -39 -115.5 -51.5t-87 -1.5t-50 40t-12.5 68.5t32.5 88.5t79.5 94q120 108 304 148zM331 147q-17 -2 -41 -8q-26 -102 -82 -192t-134 -144.5t-153 -43.5q-2 0 -3 2t0.5 4t3.5 2q73 -11 147.5 42t128.5 140t79 186q-194 -50 -298 -164q-45 -48 -69 -92.5t-25.5 -76
t15 -51.5t46.5 -24t75 11t96 50q116 81 214 359zM261 422q72 -95 33 -267l42 7q62 189 74 319q-94 -7 -110 -11q-35 -9 -64 -20q17 -17 25 -28zM536 546q0 -4 -2 -5q-5 0 -8 1q-6 2 -7 4l-37 58l-108 -58q-4 -4 -14 -4q-8 -2 -8 2v1l1 1l122 86q30 4 31 0z" />
    <glyph glyph-name="jcircumflex" unicode="&#x135;" horiz-adv-x="138" 
d="M120 220l-2 -10q-1 -11 -4 -22.5t-8.5 -22t-13.5 -11.5l-13.5 -68l-16 -78.5t-19.5 -69t-28 -63.5q-21 -34 -59 -54t-80 -6q-17 5 -12 34q1 9 5 10t4 -9q-1 -10 8.5 -20.5t26.5 -9.5q28 1 53 31q19 22 36.5 59.5t29.5 76.5t23 82.5t16.5 75t9.5 57.5l5 25q3 10 29 1
q10 -5 10 -8zM191 272q0 -4 -2 -5q-5 0 -8 1q-6 2 -7 4l-37 58l-108 -58q-4 -4 -14 -4q-8 -2 -8 2l1 1v1l122 86q30 4 31 0z" />
    <glyph glyph-name="kcommaaccent" unicode="&#x137;" horiz-adv-x="207" 
d="M285 486q6 -9 4.5 -11.5t-4.5 -1.5t-6 3q-21 19 -55 18q-44 0 -85 -77t-64.5 -170t-33.5 -176q13 42 31 73l-4 12q-5 22 2 25q4 1 8 -7q2 -4 4 -10v-1q27 45 59 77q37 36 82 44.5t56 -14.5q3 -5 -3 -7q-3 -1 -5 2q-6 8 -22 5t-41.5 -19.5t-51.5 -41.5q-35 -35 -62 -70
q23 -42 69 -84t81 -50q6 -1 -3 -4q-32 -9 -54 -1q-2 1 -8 3t-8.5 3t-7.5 4t-8.5 6t-8.5 8.5l-11 12.5q-31 40 -53 85q-36 -54 -45 -111v-5q0 -18 -23 5q-9 10 -11 11q0 32 17.5 123t42.5 172q44 144 126 186q63 33 96 -17zM99 -77q2 -24 -39.5 -71.5t-70.5 -55.5q-3 -2 -3 2
q0 6 13 21q19 19 51 71q-18 3 -18 28q0 12 11 23q11 10 31 10q22 0 25 -28z" />
    <glyph glyph-name="kgreenlandic" unicode="&#x138;" horiz-adv-x="207" 
d="M250 377q6 -9 4.5 -11.5t-4.5 -1.5t-6 3q-21 19 -55 18q-112 -1 -148 -314q13 42 31 73l-4 12q-5 22 2 25q4 1 8 -7q2 -4 4 -10v-1q27 45 59 77q37 36 82 44.5t56 -14.5q3 -5 -3 -7q-3 -1 -5 2q-6 8 -22 5t-41.5 -19.5t-51.5 -41.5q-35 -35 -62 -70q23 -42 69 -84t81 -50
q6 -1 -3 -4q-32 -9 -54 -1q-2 1 -8 3t-8.5 3t-7.5 4t-8.5 6t-8.5 8.5l-11 12.5q-31 40 -53 85q-36 -54 -45 -111v-5q0 -18 -23 5q-9 10 -11 11q0 50 25 186q11 62 45.5 112t80.5 74q63 33 96 -17z" />
    <glyph glyph-name="Ldotaccent" unicode="&#x13f;" horiz-adv-x="433" 
d="M105 315q-45 64 -33 146.5t75 114.5q51 26 96 -18.5t45 -154.5q0 -68 -22 -157q15 0 35 5q31 163 71 234q58 107 114 100q39 -5 55 -63q22 -78 -21 -166q-27 -56 -82 -103.5t-129 -69.5q-17 -56 -40 -103q18 -11 47 -27t101 -45.5t122 -34.5q70 -7 87 40q4 9 8 8t1 -9
q-14 -39 -54 -54.5t-81 -10.5q-45 5 -105.5 33.5t-98.5 54.5l-37 26q-61 -93 -157 -75q-76 13 -101 69q-20 46 9 79q30 33 91 22q38 -8 109 -43q11 22 23 58q-84 -4 -120.5 38t-7.5 106zM253 246q19 89 19 155q0 132 -58 166q-41 25 -83 -11q-49 -43 -45 -124q3 -49 28 -101
q16 27 43 45q7 5 9 1q1 -1 -1 -2q-32 -26 -43 -60q20 -31 56 -49.5t75 -19.5zM495 367q39 85 29 153q-6 43 -30 41q-46 -5 -110 -160l-21 -54q-14 -37 -28 -83q58 30 92 99q2 5 6 1q3 -2 1 -4q-38 -77 -102 -107l-17 -50q123 34 180 164zM243 71l-35 18q-45 -74 -103 -71
q-6 0 -4 5q0 3 3 3q55 -3 95 67q-54 24 -76 28q-67 12 -90 -28q-19 -33 8 -65q21 -26 64 -31q28 -3 53 3t39.5 17.5t25.5 23.5t15 21zM251 238q-82 3 -132 59q-5 -48 32.5 -77.5t86.5 -29.5q5 16 13 48zM245 172q-14 -39 -26 -64l34 -18q10 20 32 89q-14 -3 -40 -7zM437 135
q0 -13 -9 -20q-9 -9 -23 -9q-13 0 -22 9q-10 7 -10 20t10 22q9 9 22 9q14 0 23 -9t9 -22zM299 242q-16 -4 -35 -4q-8 -32 -13 -48q18 2 39 6z" />
    <glyph glyph-name="ldot" unicode="&#x140;" horiz-adv-x="300" 
d="M282 485q-1 -39 -19 -81t-55 -87.5t-59.5 -69.5t-65.5 -66q-40 -142 -11 -163q18 -13 59.5 6t63.5 48q14 17 13 5q0 -10 -6 -18q-17 -22 -63.5 -45.5t-71.5 -17.5q-58 14 -30 142q-11 -2 -10 6q1 9 18 27q60 250 158 332q17 14 36 17.5t31 -6t12 -29.5zM267 479
q1 39 -27 23q-13 -8 -26 -24q-29 -34 -69.5 -124.5t-58.5 -150.5q55 52 117.5 137.5t63.5 138.5zM255 204q0 -12 -9 -20q-9 -9 -23 -9q-13 0 -22 9q-10 7 -10 20t10 22q9 9 22 9q14 0 23 -9t9 -22z" />
    <glyph glyph-name="Lslash" unicode="&#x141;" horiz-adv-x="433" 
d="M331 125l-43 -2l-19 -43q18 -11 47 -27t101 -45.5t122 -34.5q70 -7 87 40q4 9 8 8t1 -9q-14 -39 -54 -54.5t-81 -10.5q-45 5 -105.5 33.5t-98.5 54.5l-37 26q-61 -93 -157 -75q-76 13 -101 69q-20 46 9 79q30 33 91 22q2 -1 9 -2.5t11 -3.5q17 4 60 4q31 0 46 -1l6 18
q-84 -4 -120.5 38t-7.5 106q-45 64 -33 146.5t75 114.5q51 26 96 -18.5t45 -154.5q0 -68 -22 -157q15 0 35 5q31 163 71 234q58 107 114 100q39 -5 55 -63q22 -78 -21 -166q-27 -56 -82 -103.5t-129 -69.5l-11 -34l33 -4q29 -3 29 -11t-29 -9zM253 246q19 89 19 155
q0 132 -58 166q-41 25 -83 -11q-49 -43 -45 -124q3 -49 28 -101q16 27 43 45q7 5 9 1q1 -1 -1 -2q-32 -26 -43 -60q20 -31 56 -49.5t75 -19.5zM495 367q39 85 29 153q-6 43 -30 41q-46 -5 -110 -160l-21 -54q-14 -37 -28 -83q58 30 92 99q2 5 6 1q3 -2 1 -4
q-38 -77 -102 -107l-17 -50q123 34 180 164zM243 71l-35 18q-45 -74 -103 -71q-6 0 -4 5q0 3 3 3q55 -3 95 67q-45 19 -52 21q-36 -2 -47 -2q-28 -2 -28 8q-20 -5 -32.5 -18.5t-13 -29.5t6.5 -32t26 -28t46 -15q28 -3 53 3t39.5 17.5t25.5 23.5t15 21zM251 238
q-82 3 -132 59q-5 -48 32.5 -77.5t86.5 -29.5q5 16 13 48zM299 242q-16 -4 -35 -4q-8 -32 -13 -48q18 2 39 6zM253 90q9 17 14 32l-43 -2l-5 -12zM245 172l-7 -19l38 -3l9 29q-14 -3 -40 -7zM210 113l3 6q-5 -1 -13 -1z" />
    <glyph glyph-name="lslash" unicode="&#x142;" horiz-adv-x="166" 
d="M198 125q-56 -2 -116 -6q-2 -1 -7 -1h-7q-17 -85 4 -100q18 -13 59.5 6t63.5 48q14 17 13 5q0 -10 -6 -18q-17 -22 -63.5 -45.5t-71.5 -17.5q-53 12 -35 119q-10 0 -32.5 -1.5t-32.5 -1.5q-28 -2 -28 8q0 5 13 15q15 9 26 13q15 5 53 6q9 12 14 17q60 250 158 332
q17 14 36 17.5t31 -6t12 -29.5q-1 -39 -19 -81t-55 -87.5t-59.5 -69.5t-65.5 -66q-2 -4 -4.5 -13.5l-3.5 -13.5q63 -1 123 -9q29 -3 29 -11t-29 -9zM267 479q1 39 -27 23q-13 -8 -26 -24q-29 -34 -69.5 -124.5t-58.5 -150.5q55 52 117.5 137.5t63.5 138.5z" />
    <glyph glyph-name="Nacute" unicode="&#x143;" horiz-adv-x="686" 
d="M320 379q-26 36 -27.5 80t17.5 72q-62 7 -123 -38t-91 -121q-10 -26 -15 -55t-3 -57t17.5 -45t43.5 -15q29 3 56.5 31t39.5 49q5 7 7 3q2 -3 0 -8q-10 -24 -47.5 -58.5t-69.5 -36.5q-43 -3 -61.5 33.5t-13.5 85t25 87.5q38 74 108.5 119.5t140.5 43.5q18 20 42 23
q30 5 56 -6t45 -36.5t33.5 -55t26 -71.5t18.5 -75t14 -75q20 -8 44 -25l16.5 76t19 72.5t26 70.5t32.5 54t44 40t55 13q38 0 61 -26t29 -53q2 -9 -4 -9q-2 0 -4 5q-5 17 -24.5 34t-47.5 17q-27 0 -50.5 -12t-41.5 -36.5t-32.5 -50.5t-27 -64.5t-20.5 -68.5t-18 -72
q20 -16 38 -40q33 -45 33 -92t-26 -59q-18 -8 -38 9.5t-37 62.5q-8 -27 -16 -43q33 -66 72 -66q16 0 32.5 10t27 20t11.5 10q2 0 2 -2t2 -3q1 -1 0 -2q-44 -46 -89 -46q-42 0 -78 49q-6 -5 -18 -5q-15 0 -15 9q0 2 3.5 3t10 2.5t10.5 3.5q-41 86 -62 221q-21 2 -42 -3
q-46 -122 -133 -218q46 -14 90 26q5 5 6 -2q1 -2 -1 -4q-46 -43 -101 -27q-30 -33 -61 -57q-87 -70 -175 -70q-29 0 -47 17t-18 46q0 34 25 66q0 3 4 3q2 0 2 -3l-8 -20q-8 -19 -8 -35q0 -25 15 -43.5t39 -18.5q110 0 217 122q-39 21 -44 63.5t37 87.5q59 58 140 75
q27 68 33 130q-38 118 -130 135q-19 -26 -18.5 -68.5t26.5 -78.5q1 -2 0 -4t-3 -2t-4 2zM411 252q-67 -18 -123 -71q-39 -42 -36 -79.5t36 -56.5q75 88 123 207zM512 266q19 -3 37 -9q-10 49 -23.5 96t-36 102t-54.5 85t-68 24q-16 -3 -33 -16q112 -12 147 -141
q16 -57 31 -141zM590 112q11 -33 24.5 -52.5t24 -24t19.5 -0.5q20 10 20.5 50t-30.5 88q-17 22 -34 36q-15 -65 -24 -97zM551 247q-16 7 -37 10q27 -136 49 -186q8 17 16 48q-12 35 -23 100zM678 601q-5 -8 -63 -35q-57 -27 -62 -25q-5 3 -2 9l82 61q14 10 27 10q4 0 12 -2
q12 -6 6 -18zM560 243l4 -23q10 -56 19 -86q7 29 18 86q-21 14 -41 23zM441 269q12 1 37 1q-6 30 -13 84q-10 -44 -24 -85z" />
    <glyph glyph-name="nacute" unicode="&#x144;" horiz-adv-x="253" 
d="M268 24q4 4 4 -3q1 -10 -10 -21q-10 -11 -29 -19.5t-38 -5.5q-23 4 -33 25t-7 51t8.5 56.5t14 53t8.5 27.5q-9 -12 -40.5 -47.5l-56.5 -65.5t-29 -42q-9 -24 -31 -31q-12 -4 -12 4q-1 2 0 4q0 1 7 27t12 47.5t8.5 53t0.5 56.5q-2 20 23 31q23 11 28 -3q1 -3 0 -9
q-2 -10 -9 -47.5t-12.5 -64t-7.5 -30.5q59 54 127 160q5 9 23.5 7t20.5 -10q2 -6 -2 -19t-12.5 -38t-14.5 -48q-6 -25 -10 -48t-5 -44t3.5 -33t14.5 -11q29 4 56 37zM265 365q-5 -8 -63 -35q-57 -27 -62 -25q-5 3 -2 9l82 61q14 10 27 10q4 0 12 -2q12 -6 6 -18z" />
    <glyph glyph-name="OE" unicode="&#x152;" horiz-adv-x="1131" 
d="M585 567q-13 87 -97 87q-29 0 -65 -12q-85 -28 -144 -107q100 33 196 37q55 3 110 -5zM211 279q-39 -47 -60 -96q48 -14 92 -14q12 0 32 2q-48 45 -64 108zM231 479q-83 -42 -128 -90q-51 -53 -51 -106q0 -29 16 -51q15 -24 40 -35q36 64 96 118q-1 9 -1 28q0 73 28 136z
M587 545q-49 7 -114 2q-114 -11 -222 -60q-34 -65 -34 -144q0 -2 0.5 -7.5t0.5 -8.5q61 51 121 82t110 40q10 1 10 -4t-8 -7q-55 -11 -113 -48q-66 -41 -115 -98q13 -71 67 -119q116 18 200 122q72 88 93 196q5 33 4 54zM781 263q25 8 111 25q-54 0 -91 25q-6 -20 -20 -50z
M603 120q19 61 104 110l1 1q49 65 61 119q-3 12 -2 22q2 13 6 23q-3 58 -48 95q-47 39 -120 52q0 -20 -5 -50q-22 -116 -98 -209q-81 -99 -193 -125q61 -45 140 -45q73 0 128 41h1l2 1q2 0 4 -3q0 -3 -1 -5q-59 -42 -136 -42q-85 0 -152 50q-32 -5 -56 -5q-47 0 -98 14
q-14 -39 -14 -69q0 -48 30 -75q29 -27 82 -27q210 0 364 127zM1111 135q-3 -66 -82 -114q-73 -45 -174 -57q-42 -4 -59 -4q-89 0 -142 34q-50 31 -56 81q-80 -49 -175 -76t-183 -27q-84 0 -125 34q-38 32 -38 85q0 37 20 85q-31 14 -50 42t-19 62q0 80 67 147q64 62 164 100
q38 56 99 94q66 40 129 40q47 0 77 -24q33 -24 39 -72q155 -28 196 -132q49 51 144 76q55 16 102 16q52 0 85 -22q27 -18 27 -46q0 -22 -16 -38q-17 -17 -46 -22q-13 0 -13 4q0 7 12 6t23 13q10 15 10 31q0 23 -18 40q-23 18 -66 18q-41 0 -101 -18q-51 -15 -86 -46
q-37 -31 -46 -66q0 -17 -1 -25q9 -33 70 -49q55 -16 112 -13q22 1 22 -13t-25 -13q-82 3 -175 -21q-34 -11 -54 -19q-44 -67 -117 -121q-1 -4 -1 -12q0 -49 44 -80q46 -34 125 -34q29 0 53 4q91 12 162 54q73 45 78 99q1 9 6 9q3 0 2 -10z" />
    <glyph glyph-name="oe" unicode="&#x153;" horiz-adv-x="348" 
d="M116 205l-3 -2q40 -13 52 -51q7 10 22 25q30 28 54 28q34 0 34 -33q0 -20 -18 -43q-30 -37 -89 -52q-3 -13 -3 -24q0 -46 42 -46q34 0 83 28q43 23 67 50q13 13 13 1q0 -4 -3 -9q-22 -27 -76 -56q-59 -30 -100 -30q-47 0 -58 39q-40 -49 -86 -49q-44 0 -44 54q0 38 19 86
q-1 8 -1 24q0 55 54 61q14 17 26 17q18 0 18 -11q0 -2 -3 -7zM103 193q-32 -35 -50 -82q12 -55 71 -63l5 10v1q0 26 17 60q1 5 1 13q0 23 -11 42q-12 17 -33 19zM244 139q13 24 13 37q0 12 -8 12q-13 0 -39 -33q-24 -31 -38 -66q52 16 72 50zM41 74v-1q-6 -21 -6 -37
q0 -36 26 -36q31 0 54 33q-48 6 -74 41z" />
    <glyph glyph-name="Racute" unicode="&#x154;" horiz-adv-x="688" 
d="M84 -19q47 -2 87 22t67.5 66.5t45.5 84.5t32 91q7 27 11 46q-21 -4 -60 -10q-64 -6 -98.5 14t-32.5 56q-29 11 -50 32.5t-26 48.5q-8 44 9.5 81t50 55t73 20.5t77.5 -23.5q35 -23 56 -64q75 18 162 18q26 27 55 33q7 1 7 -4q0 -8 -10 -10q-15 -3 -31 -20q96 -4 160.5 -36
t60.5 -88q-5 -62 -93.5 -114t-216.5 -65l43.5 -65l51 -75.5t46.5 -57t57 -51.5q35 -24 60 -24q38 0 38 51q0 45 -29 84q-4 6 0 6t8 -5q32 -37 32 -83q0 -32 -19.5 -53.5t-51.5 -21.5q-47 0 -97 44q-25 22 -49 55.5t-38.5 60t-36.5 70.5t-33 63h-2l-9 -27q-90 -246 -278 -246
q-79 0 -101 57q-21 56 25 121q61 85 190 107q13 3 27 4q6 1 6 -5t-7 -8q-119 -19 -187 -99q-52 -61 -39 -112t85 -51q47 0 86 22.5t67.5 62.5t46.5 76.5t35 83.5l39 109l-42 -13q-4 -25 -12 -51q-14 -48 -33.5 -91.5t-49.5 -87.5t-73 -69t-92 -23q-6 1 -4 6q1 3 4 2z
M502 508q-26 -37 -60 -158q58 26 103 58q12 9 12 0q0 -7 -10 -13q-61 -42 -111 -65l-29 -97l4 -6q43 5 44 5q113 24 173.5 70t64.5 94q4 46 -52 77.5t-139 34.5zM317 499q-19 38 -51 59q-34 22 -72 22t-66.5 -18t-44.5 -52.5t-8 -75.5q9 -49 62 -73q7 40 53.5 78t126.5 60z
M332 315q15 99 -8 167q-67 -23 -113 -59.5t-55 -68.5q59 -14 100 26q5 5 6 -2q1 -2 -1 -4q-43 -43 -107 -28q-3 -25 23.5 -37t82.5 -6q36 3 72 12zM333 485q28 -68 14 -167q20 5 47 14q45 127 85 177q-77 -1 -146 -24zM713 607q-5 -8 -63 -35q-57 -27 -62 -25q-5 3 -2 9
l82 61q14 10 27 10q4 0 12 -2q12 -6 6 -18z" />
    <glyph glyph-name="Rcommaaccent" unicode="&#x156;" horiz-adv-x="688" 
d="M84 -19q47 -2 87 22t67.5 66.5t45.5 84.5t32 91q7 27 11 46q-21 -4 -60 -10q-64 -6 -98.5 14t-32.5 56q-29 11 -50 32.5t-26 48.5q-8 44 9.5 81t50 55t73 20.5t77.5 -23.5q35 -23 56 -64q75 18 162 18q26 27 55 33q7 1 7 -4q0 -8 -10 -10q-15 -3 -31 -20q96 -4 160.5 -36
t60.5 -88q-5 -62 -93.5 -114t-216.5 -65l43.5 -65l51 -75.5t46.5 -57t57 -51.5q35 -24 60 -24q38 0 38 51q0 45 -29 84q-4 6 0 6t8 -5q32 -37 32 -83q0 -32 -19.5 -53.5t-51.5 -21.5q-47 0 -97 44q-25 22 -49 55.5t-38.5 60t-36.5 70.5t-33 63h-2l-9 -27q-90 -246 -278 -246
q-79 0 -101 57q-21 56 25 121q61 85 190 107q13 3 27 4q6 1 6 -5t-7 -8q-119 -19 -187 -99q-52 -61 -39 -112t85 -51q47 0 86 22.5t67.5 62.5t46.5 76.5t35 83.5l39 109l-42 -13q-4 -25 -12 -51q-14 -48 -33.5 -91.5t-49.5 -87.5t-73 -69t-92 -23q-6 1 -4 6q1 3 4 2z
M502 508q-26 -37 -60 -158q58 26 103 58q12 9 12 0q0 -7 -10 -13q-61 -42 -111 -65l-29 -97l4 -6q43 5 44 5q113 24 173.5 70t64.5 94q4 46 -52 77.5t-139 34.5zM317 499q-19 38 -51 59q-34 22 -72 22t-66.5 -18t-44.5 -52.5t-8 -75.5q9 -49 62 -73q7 40 53.5 78t126.5 60z
M332 315q15 99 -8 167q-67 -23 -113 -59.5t-55 -68.5q59 -14 100 26q5 5 6 -2q1 -2 -1 -4q-43 -43 -107 -28q-3 -25 23.5 -37t82.5 -6q36 3 72 12zM333 485q28 -68 14 -167q20 5 47 14q45 127 85 177q-77 -1 -146 -24zM355 -89q2 -24 -39.5 -71.5t-70.5 -55.5q-3 -2 -3 2
q0 6 13 21q19 19 51 71q-18 3 -18 28q0 12 11 23q11 10 31 10q22 0 25 -28z" />
    <glyph glyph-name="rcommaaccent" unicode="&#x157;" horiz-adv-x="177" 
d="M99 -77q2 -24 -39.5 -71.5t-70.5 -55.5q-3 -2 -3 2q0 6 13 21q19 19 51 71q-18 3 -18 28q0 12 11 23q11 10 31 10q22 0 25 -28zM207 192q-24 47 -85 -20q-20 -22 -39 -51q-29 -44 -50 -115q-1 -6 -6 -7.5t-9 1.5t-3 8q6 25 15.5 104.5t10.5 103.5q1 17 27 25q24 7 26 -7
q0 -3 -1 -6q-1 -4 -14.5 -53.5t-17.5 -58.5q24 42 61.5 82t57.5 39q27 0 35 -33q5 -19 -1 -19q-3 -1 -7 7z" />
    <glyph glyph-name="Rcaron" unicode="&#x158;" horiz-adv-x="688" 
d="M84 -19q47 -2 87 22t67.5 66.5t45.5 84.5t32 91q7 27 11 46q-21 -4 -60 -10q-64 -6 -98.5 14t-32.5 56q-29 11 -50 32.5t-26 48.5q-8 44 9.5 81t50 55t73 20.5t77.5 -23.5q35 -23 56 -64q75 18 162 18q26 27 55 33q7 1 7 -4q0 -8 -10 -10q-15 -3 -31 -20q96 -4 160.5 -36
t60.5 -88q-5 -62 -93.5 -114t-216.5 -65l43.5 -65l51 -75.5t46.5 -57t57 -51.5q35 -24 60 -24q38 0 38 51q0 45 -29 84q-4 6 0 6t8 -5q32 -37 32 -83q0 -32 -19.5 -53.5t-51.5 -21.5q-47 0 -97 44q-25 22 -49 55.5t-38.5 60t-36.5 70.5t-33 63h-2l-9 -27q-90 -246 -278 -246
q-79 0 -101 57q-21 56 25 121q61 85 190 107q13 3 27 4q6 1 6 -5t-7 -8q-119 -19 -187 -99q-52 -61 -39 -112t85 -51q47 0 86 22.5t67.5 62.5t46.5 76.5t35 83.5l39 109l-42 -13q-4 -25 -12 -51q-14 -48 -33.5 -91.5t-49.5 -87.5t-73 -69t-92 -23q-6 1 -4 6q1 3 4 2z
M502 508q-26 -37 -60 -158q58 26 103 58q12 9 12 0q0 -7 -10 -13q-61 -42 -111 -65l-29 -97l4 -6q43 5 44 5q113 24 173.5 70t64.5 94q4 46 -52 77.5t-139 34.5zM317 499q-19 38 -51 59q-34 22 -72 22t-66.5 -18t-44.5 -52.5t-8 -75.5q9 -49 62 -73q7 40 53.5 78t126.5 60z
M332 315q15 99 -8 167q-67 -23 -113 -59.5t-55 -68.5q59 -14 100 26q5 5 6 -2q1 -2 -1 -4q-43 -43 -107 -28q-3 -25 23.5 -37t82.5 -6q36 3 72 12zM333 485q28 -68 14 -167q20 5 47 14q45 127 85 177q-77 -1 -146 -24zM657 564q0 -4 -2 -5q-5 0 -8 1q-6 2 -7 4l-37 58
l-108 -58q-4 -4 -14 -4q-8 -2 -8 2l1 1v1l122 86q30 4 31 0z" />
    <glyph glyph-name="rcaron" unicode="&#x159;" horiz-adv-x="177" 
d="M207 192q-24 47 -85 -20q-20 -22 -39 -51q-29 -44 -50 -115q-1 -6 -6 -7.5t-9 1.5t-3 8q6 25 15.5 104.5t10.5 103.5q1 17 27 25q24 7 26 -7q0 -3 -1 -6q-1 -4 -14.5 -53.5t-17.5 -58.5q24 42 61.5 82t57.5 39q27 0 35 -33q5 -19 -1 -19q-3 -1 -7 7zM231 287q0 -4 -2 -5
q-5 0 -8 1q-6 2 -7 4l-37 58l-108 -58q-4 -4 -14 -4q-8 -2 -8 2q0 1 0.5 1t0.5 1l122 86q30 4 31 0z" />
    <glyph glyph-name="Ydieresis" unicode="&#x178;" horiz-adv-x="707" 
d="M369 339l3 1q16 2 23 4q-5 46 -15 74q-29 90 -97 110q16 -18 24 -29q53 -77 62 -160zM247 545q-30 25 -60.5 33t-52.5 -0.5t-37.5 -27t-15 -45t14.5 -54.5q61 82 151 94zM358 338q-11 83 -66 159q-17 22 -31 36q-43 5 -86 -20.5t-71 -73.5q26 -39 80 -69q72 -41 174 -32z
M224 -116q-12 22 -31 36q-28 22 -60 24t-56.5 -13.5t-40.5 -41t-15 -61.5t23 -72q21 35 62 63q51 35 118 65zM246 -136q11 -49 -16 -97q-1 -2 -3.5 -2t-3.5 1.5t0 4.5q23 40 11 87q-69 -32 -118 -65q-41 -30 -58 -57q39 -46 105 -55q70 -9 143.5 38.5t119.5 120.5
q30 45 54 125q-140 -55 -234 -101zM496 -28q-23 -86 -55 -136q-50 -75 -128 -123.5t-152 -38.5q-68 8 -108 53q-12 -25 1 -46q19 -33 80 -37t106 11q107 28 190 118t108 216zM564 246q-13 -28 -23 -69t-21 -97.5t-19 -88.5q32 12 40 16q0 2 3.5 28l8 57t14 77.5t21 91
t30.5 95.5t42 93q-40 -48 -79 -107.5t-77.5 -125.5t-48.5 -82q-79 -119 -101 -119q-3 0 -4.5 2.5t0.5 4.5q24 59 38.5 147t7.5 167q-9 -2 -23 -4h-4q4 -50 -2 -116q-9 -99 -40 -195q-1 -5 -5 -2q-3 1 -2 4q29 89 37 194q6 65 2 114q-104 -10 -179 32q-56 32 -80 68
q-4 -6 -15 -31q-11 -28 -12 -57t14 -52t49 -23q43 0 79 49q4 6 4 1q0 -2 -2 -6q-7 -18 -35.5 -39t-57.5 -21q-38 0 -56 28.5t-15 65t19 67.5q12 22 19 31q-14 25 -15.5 51t8.5 45.5t28.5 32.5t42 16t52.5 -7.5t57 -34.5q51 2 92 -27t60 -88q11 -32 14 -79q44 15 71 39.5
t29 56.5q0 2 2 3t4 0t2 -4q-6 -70 -107 -103q4 -79 -16 -167t-51 -149q9 4 24 24t27 40.5l27 47l18 31.5q9 15 41 72.5l57 100.5t66 97.5t81 89.5q9 8 18 4.5t-1 -19.5q-47 -69 -77.5 -158t-40 -153.5t-14.5 -120t-6 -58.5q28 12 79 41q19 11 18 6q-2 -7 -22 -20
q-54 -36 -80 -48q-23 -92 -77 -178t-137 -143q-63 -43 -130 -61q-57 -17 -113.5 -6t-79.5 51q-21 34 -3 77q-24 38 -25.5 78.5t16.5 69t45 47t62 17.5t65 -24q24 -18 36 -44q35 15 75.5 30.5l92 34t79.5 29.5q10 36 23 94.5t24 101t23 69.5q5 11 9 7q3 -3 0 -10zM596 548
q0 -22 -21 -22q-23 0 -23 22t22 22t22 -22zM510 548q0 -22 -21 -22q-23 0 -23 22t22 22t22 -22z" />
    <glyph glyph-name="florin" unicode="&#x192;" 
 />
    <glyph glyph-name="circumflex" unicode="&#x2c6;" horiz-adv-x="323" 
d="M267 249q0 -4 -2 -5q-5 0 -8 1q-6 2 -7 4l-37 58l-108 -58q-4 -4 -14 -4q-8 -2 -8 2q0 1 0.5 1t0.5 1l122 86q30 4 31 0z" />
    <glyph glyph-name="caron" unicode="&#x2c7;" horiz-adv-x="323" 
d="M267 249q0 -4 -2 -5q-5 0 -8 1q-6 2 -7 4l-37 58l-108 -58q-4 -4 -14 -4q-8 -2 -8 2q0 1 0.5 1t0.5 1l122 86q30 4 31 0z" />
    <glyph glyph-name="breve" unicode="&#x2d8;" horiz-adv-x="222" 
d="M219 343q0 -14 -53 -35q-48 -18 -69 -18q-20 0 -38 9q-20 11 -20 30q0 8 4 19q5 11 12 11q5 0 9 -16q7 -24 47 -24q20 0 54 14t50 14z" />
    <glyph glyph-name="dotaccent" unicode="&#x2d9;" horiz-adv-x="181" 
d="M141 371q0 -24 -19 -43q-18 -19 -42 -19q-27 0 -27 26q0 21 19 46t40 25q14 0 21 -10q8 -9 8 -25z" />
    <glyph glyph-name="ring" unicode="&#x2da;" horiz-adv-x="208" 
d="M155 288q0 -18 -13 -30q-13 -13 -30 -13q-15 0 -30 13q-12 12 -12 30t12 30q15 13 30 13q17 0 30 -13q13 -12 13 -30zM143 288q0 13 -9 22t-23 9q-12 0 -21 -9t-9 -22t9 -22t21 -9q14 0 23 9t9 22z" />
    <glyph glyph-name="ogonek" unicode="&#x2db;" horiz-adv-x="222" 
d="M206 -73q0 -9 -32 -20q-24 -8 -40 -8q-37 0 -37 28q0 19 13 46q15 32 29 32l2 -2q-22 -31 -22 -58q0 -28 30 -28q9 0 30 8q7 3 15 6l5 2q7 0 7 -6z" />
    <glyph glyph-name="tilde" unicode="&#x2dc;" horiz-adv-x="323" 
d="M259 306q-23 -48 -56 -45q-15 2 -34 11q-24 11 -34 11q-19 2 -29 -19q-2 -2 -8 -1q-5 1 -5 2q25 46 55 43q16 -2 35 -11q21 -8 34 -10q21 -2 30 20q1 2 7 2q6 -2 5 -3z" />
    <glyph glyph-name="hungarumlaut" unicode="&#x2dd;" horiz-adv-x="131" 
 />
    <glyph glyph-name="pi" unicode="&#x3c0;" horiz-adv-x="281" 
d="M271 240q0 -15 -18 -33q-14 -17 -30 -24q-5 -3 -18 -3l-39 -182h-12l39 183q-26 8 -42 14q-14 6 -41 16l-45 -215h-12l46 217q-10 2 -14 2q-2 0 -4.5 -0.5t-3.5 -0.5q-17 -3 -23 -17q-8 -14 -10 -14q-3 0 -3 4q0 12 14 31q14 18 28 24q6 3 14 3q20 0 62 -18
q40 -18 62 -18q23 0 35 17l13 17l2 -2v-1z" />
    <glyph glyph-name="endash" unicode="&#x2013;" horiz-adv-x="400" 
d="M280 125q-56 -2 -116 -6q-113 -7 -115 -7q-28 -2 -28 8q0 5 13 15q15 9 26 13q18 6 70 6q78 0 150 -9q29 -3 29 -11t-29 -9z" />
    <glyph glyph-name="emdash" unicode="&#x2014;" horiz-adv-x="492" 
d="M444 125q-177 -3 -395 -13q-28 -2 -28 8q0 5 13 15q15 9 26 13q18 6 118 6q194 0 266 -9q29 -3 29 -11t-29 -9z" />
    <glyph glyph-name="quoteleft" unicode="&#x2018;" horiz-adv-x="187" 
d="M29 273q-3 17 26 58q29 38 33 42q17 16 20.5 7.5t-12.5 -25.5q-23 -26 -27 -48q16 -1 16 -27q0 -17 -12.5 -27.5t-26.5 -6t-17 26.5z" />
    <glyph glyph-name="quoteright" unicode="&#x2019;" horiz-adv-x="173" 
d="M187 351q3 -19 -26 -58q-21 -32 -33 -42q-17 -16 -20.5 -7.5t12.5 25.5q7 7 16.5 23t10.5 25q-16 2 -16 27q0 27 25.5 33.5t30.5 -26.5z" />
    <glyph glyph-name="quotesinglbase" unicode="&#x201a;" horiz-adv-x="103" 
d="M184 91q3 -17 -26 -58q-30 -40 -62 -60q-16 -9 -23 -9q-2 0 -2 3q0 7 12 20q28 31 50 72q-16 2 -16 26q0 13 11 24q10 10 29 10q23 -2 27 -28z" />
    <glyph glyph-name="quotedblleft" unicode="&#x201c;" horiz-adv-x="288" 
d="M69 462q-3 17 26 58q29 38 33 42q18 16 21.5 7.5t-13.5 -25.5q-23 -26 -27 -48q16 -1 16 -27q0 -17 -12.5 -27.5t-26.5 -6t-17 26.5zM155 462q-3 17 26 58q29 38 33 42q17 16 20.5 7.5t-12.5 -25.5q-23 -26 -27 -48q16 -1 16 -27q0 -17 -12.5 -27.5t-26.5 -6t-17 26.5z
" />
    <glyph glyph-name="quotedblright" unicode="&#x201d;" horiz-adv-x="288" 
d="M259 553q3 -17 -26 -57q-29 -38 -33 -42q-17 -16 -20.5 -7.5t12.5 25.5q23 26 27 48q-16 1 -16 27q0 17 12.5 27.5t26.5 5.5t17 -27zM173 553q3 -17 -26 -57q-29 -38 -33 -42q-17 -16 -20.5 -7.5t12.5 25.5q7 7 16.5 23t10.5 25q-16 2 -16 27q0 17 12.5 27.5t26.5 5.5
t17 -27z" />
    <glyph glyph-name="quotedblbase" unicode="&#x201e;" horiz-adv-x="163" 
d="M201 189q0 -17 -27 -84q-14 -38 -35 -86h-10l19 158q2 14 11 22q11 9 23 9q19 0 19 -19zM97 189q0 -20 -26 -84q-14 -38 -35 -86h-9l18 158q2 13 11 21q10 10 23 10q18 0 18 -19z" />
    <glyph glyph-name="dagger" unicode="&#x2020;" horiz-adv-x="331" 
d="M320 293q0 -9 -17 -19h-110l-162 -337h-22l163 337h-99q-1 10 17 19h91l73 151h21l-72 -151h117z" />
    <glyph glyph-name="daggerdbl" unicode="&#x2021;" horiz-adv-x="331" 
d="M320 293q0 -9 -17 -19h-110l-58 -120h124q1 -10 -17 -19h-116l-95 -198h-22l96 198h-93q0 11 17 19h85l58 120h-99q-1 10 17 19h91l73 151h21l-72 -151h117z" />
    <glyph glyph-name="bullet" unicode="&#x2022;" horiz-adv-x="451" 
d="M225 117q-57 0 -97 40q-40 42 -40 96q0 55 40 97q42 40 97 40q54 0 96 -40q40 -40 40 -97q0 -56 -40 -96t-96 -40z" />
    <glyph glyph-name="ellipsis" unicode="&#x2026;" horiz-adv-x="358" 
d="M336 18q-1 -11 -11 -19q-9 -8 -21 -8q-13 0 -18 8q-6 8 -5 19t11 19q9 8 21 8q13 0 18 -8q7 -7 5 -19zM199 18q-3 -13 -12 -19q-8 -8 -20 -8q-13 0 -18 8q-7 7 -5 19q1 11 11 19q8 8 21 8t18 -8q6 -8 5 -19zM69 18q-1 -11 -11 -19q-8 -8 -21 -8q-11 0 -18 8q-6 7 -4 19
t11 19q8 8 21 8q11 0 18 -8t4 -19z" />
    <glyph glyph-name="perthousand" unicode="&#x2030;" horiz-adv-x="459" 
d="M439 117q0 -40 -27 -82q-30 -49 -68 -49q-24 0 -39 20q-12 18 -12 43q0 43 28 80q29 39 70 39q23 0 35 -14q13 -13 13 -37zM325 434l-282 -444h-22l208 317q-11 -8 -24 -8q-9 0 -16 4q-29 -48 -64 -48q-24 0 -36 21q-12 18 -12 43q0 41 28 78q28 40 70 40q22 0 32 -14
q12 -15 12 -36q0 -47 -28 -78l1 -2q6 -3 13 -3t18 6q10 4 14 12l67 112h21zM278 117q0 -40 -27 -82q-31 -49 -68 -49q-24 0 -38 20q-12 18 -12 43q0 44 26 80q30 39 71 39q23 0 35 -14q13 -13 13 -37zM213 381q0 47 -30 47q-26 0 -48 -31q-19 -25 -27 -54q-5 -18 -5 -35
q0 -47 26 -47q33 0 54 44l2 2q-10 14 -10 31q0 13 7 29q8 15 23 15q3 0 8 -1zM429 123q0 36 -30 36q-26 0 -48 -31q-19 -24 -27 -54q-5 -20 -5 -35q0 -46 24 -46q32 0 61 50q25 47 25 80zM267 123q0 36 -29 36q-25 0 -49 -31q-16 -22 -26 -54q-5 -20 -5 -35q0 -46 25 -46
q31 0 60 50q24 45 24 80z" />
    <glyph glyph-name="guilsinglleft" unicode="&#x2039;" horiz-adv-x="295" 
d="M100 217l46 43.5l45.5 43.5t47.5 41q8 8 10 -0.5t-13 -25.5q-43 -52 -102 -107q52 -104 56 -114q9 -22 -1 -27q-7 -4 -15 11q-30 47 -79 96q-10 10 -11 16.5t1 8.5t15 14z" />
    <glyph glyph-name="guilsinglright" unicode="&#x203a;" horiz-adv-x="285" 
d="M234 210l-46.5 -43.5l-45 -42.5l-47.5 -42q-8 -7 -10 1t12 25q5 5 15.5 17.5l18 21t25.5 27l44 43.5q-49 92 -56 112q-9 23 0 27q7 4 16 -11q27 -44 79 -96q12 -16 11 -19.5t-16 -19.5z" />
    <glyph glyph-name="fraction" unicode="&#x2044;" horiz-adv-x="365" 
d="M563 517q10 -7 10 -14q0 -5 -5 -5q-4 0 -12 5q-8 4 -17 4q-43 0 -142 -110q-59 -65 -186 -228q-114 -146 -182 -191q-7 -5 -11 -5q-5 0 -5 4q0 5 6 10q96 88 170 198l81 120q61 89 123 149q78 73 132 73q18 0 38 -10z" />
    <glyph glyph-name="Euro" unicode="&#x20ac;" horiz-adv-x="907" 
d="M427 248q-74 -2 -231 -8q-42 -98 7 -165q36 -48 114 -69.5t184 -11.5q214 18 306 102q12 12 12 0q-1 -7 -6 -12q-98 -93 -310 -118q-109 -14 -193.5 11t-126.5 78q-53 69 -19 183l-57 -2q-28 -1 -34 5t4.5 14t26.5 13t74 7q22 45 46 76l-52 -2q-28 -1 -34 5t4.5 14
t26.5 13q22 6 87 8q88 90 214 143q138 59 278 59q48 0 81.5 -11.5t50 -29.5t22.5 -41t2 -44.5t-14 -40.5q-11 -21 -26 -26q-7 -2 -6 6q0 5 5 15q38 83 -41 118q-82 36 -226 2q-37 -9 -74 -22q-125 -46 -215 -128q117 2 185 -6q23 -3 30 -8.5t-2 -9.5t-28 -4q-73 -2 -222 -8
q-35 -40 -56 -77q152 2 213 -6q23 -3 30 -8.5t-2 -9.5t-28 -4z" />
    <glyph glyph-name="trademark" unicode="&#x2122;" horiz-adv-x="636" 
d="M333 374q0 -12 -22 -12q-12 0 -30 6q-20 -22 -41 -71q-22 -53 -61 -86q-45 -36 -98 -36q-26 0 -48 17q-21 17 -21 43q0 27 19 47q17 20 44 25q-1 5 -1 15q0 39 27 60q26 20 64 20q32 0 114 -29q19 13 38 13q16 0 16 -12zM275 370q-66 22 -101 22q-34 0 -61 -19
q-28 -22 -28 -56q0 -2 0.5 -4.5t0.5 -3.5h5q36 2 44 -29q14 6 27 19q13 16 13 28q0 2 2 2q1 0 1 -1q0 -13 -14 -30q-13 -16 -28 -21q0 -1 0.5 -5t0.5 -5q0 -19 -16 -35q-17 -14 -38 -14q-2 0 -2 2t4 2q48 6 48 47q0 2 -1 4v2q-10 -2 -15 -2q-31 0 -40 30q-23 -8 -38 -29
q-14 -20 -14 -44q0 -50 60 -50q57 0 104 74q26 42 40 62q26 40 46 54zM633 390q0 -3 -4 -13q-4 -7 -9 -7q-1 0 -1 1q1 1 4 5q4 4 4 11q0 12 -16 12q-20 0 -44 -12q-54 -25 -126 -105q-36 -41 -50 -53q-37 -32 -64 -32q-9 0 -9 2l21 11q6 5 20 32l18 36l21 42q13 24 26 39
l-9 4q-37 -21 -79 -79q-74 -103 -147 -103q-8 0 -10 2q2 2 10 2q40 0 82 36q16 13 70 76q45 53 70 68q-68 31 -109 31q-21 0 -27 -13q-2 -2 -3 -2q-3 0 -3 7t13 11q9 3 19 3q30 0 112 -35q17 10 34 10q27 0 27 -18q0 -12 -13 -12q-6 0 -33 10q-14 -18 -35 -78
q-16 -52 -40 -71q36 20 88 83q99 117 160 117q32 0 32 -18zM555 374l-7 -9q-18 -20 -28 -36q-20 -29 -35 -63q-21 -46 -21 -67q0 -10 5 -10t12 6l12 8l2 2l1 -1q0 -4 -14 -12t-19 -8q-15 0 -15 25q0 30 15 60q3 7 19 29q11 14 36 41q32 34 37 35zM131 279q-6 27 -38 27
q-4 0 -6 -1q6 -29 31 -29q7 0 13 3zM466 360q0 14 -20 14q-12 0 -28 -9l8 -4q7 8 12 8l-8 -9q24 -8 28 -8q8 0 8 8zM330 374q0 11 -15 11q-14 0 -30 -14q16 -6 26 -6q19 0 19 9z" />
    <glyph glyph-name="Omega" unicode="&#x2126;" horiz-adv-x="169" 
 />
    <glyph glyph-name="partialdiff" unicode="&#x2202;" horiz-adv-x="245" 
d="M241 251q0 -45 -12 -92q-17 -62 -49 -106q-42 -56 -95 -56q-22 0 -34 22q-9 17 -9 41q0 20 6 43q10 39 48 74q41 38 78 38q33 0 33 -39q0 -18 -8 -40q18 42 18 93q0 61 -23 108q-30 62 -81 62q-2 0 -12 -2q-6 -1 -12 -1q-8 0 -8 5q0 14 39 14q62 0 95 -54q26 -44 26 -110
zM203 175q0 35 -24 35q-27 0 -58 -42q-25 -34 -36 -66q-14 -40 -14 -71q0 -30 17 -30q37 0 95 106q20 33 20 68z" />
    <glyph glyph-name="Delta" unicode="&#x2206;" 
 />
    <glyph glyph-name="product" unicode="&#x220f;" 
 />
    <glyph glyph-name="summation" unicode="&#x2211;" 
 />
    <glyph glyph-name="minus" unicode="&#x2212;" horiz-adv-x="249" 
d="M241 138l-170 1v14h170v-15z" />
    <glyph glyph-name="radical" unicode="&#x221a;" 
 />
    <glyph glyph-name="infinity" unicode="&#x221e;" horiz-adv-x="337" 
d="M317 253q0 -29 -18 -51q-19 -25 -48 -25q-22 0 -50 20q-23 17 -37 39q-21 -26 -33 -36q-21 -18 -42 -18q-27 0 -43 19t-16 46q0 29 18 49t48 20q54 0 84 -52q20 25 31 35q20 19 41 19q28 0 46 -19q19 -18 19 -46zM310 249q0 23 -21 38q-19 14 -42 14q-32 0 -58 -31
q-1 -2 -6 -11q18 -29 18 -30q13 -16 28 -23q14 -7 30 -7q22 0 36 14q15 15 15 36zM161 241q-31 54 -76 54q-21 0 -34 -15q-12 -15 -12 -36q0 -20 15 -30q14 -11 35 -11q34 0 72 38z" />
    <glyph glyph-name="integral" unicode="&#x222b;" 
 />
    <glyph glyph-name="approxequal" unicode="&#x2248;" horiz-adv-x="249" 
d="M211 201q0 -9 -18 -23q-19 -17 -38 -17q-14 0 -44 12t-48 12q-17 0 -26 -10q-9 -11 -10 -11q-2 0 -2 3q0 11 18 25q17 13 31 13q16 0 46 -12q32 -12 47 -12q20 0 30 11l12 11q1 -1 2 -1v-1zM211 137q0 -9 -18 -23q-19 -17 -38 -17q-14 0 -44 12t-48 12q-17 0 -26 -10
q-9 -11 -10 -11q-2 0 -2 3q0 11 18 25q17 13 31 13q16 0 46 -12q32 -12 47 -12q20 0 30 11l12 11q1 -1 2 -1v-1z" />
    <glyph glyph-name="notequal" unicode="&#x2260;" horiz-adv-x="305" 
d="M261 141q-49 0 -104 -6l-28 -36q-5 -8 -15 -8q-5 0 -5 3q0 1 2 5q18 23 26 34l-28 -4q-4 0 -7 6q-4 5 -4 14q0 12 11 12h51l36 44q-26 -1 -87 -9q-4 0 -7 6q-4 5 -4 13q0 13 11 13q53 0 104 -1l20 26q6 10 16 10q3 0 3 -3q0 -1 -2 -5l-21 -29l30 -1q14 0 14 -10
q0 -8 -12 -8q-32 0 -48 -1l-36 -45l82 -2q14 -2 14 -11q0 -7 -12 -7z" />
    <glyph glyph-name="lessequal" unicode="&#x2264;" horiz-adv-x="167" 
d="M141 61q0 -5 -4 -5q-6 0 -50 28q-46 29 -52 34q-4 3 -4 15q0 13 4 16l52 50l47 42q2 0 2 -8q0 -10 -11 -24l-19 -20l-43 -48l70 -67q8 -8 8 -13zM139 14l-1 -1l-128 1v14l1 1h127l1 -1v-14z" />
    <glyph glyph-name="greaterequal" unicode="&#x2265;" horiz-adv-x="167" 
d="M146 133q0 -10 -5 -15q-3 -3 -52 -35q-45 -27 -50 -27q-4 0 -4 5q0 4 9 13l69 67l-43 48q-19 21 -29 35q-1 3 -1 9q0 7 3 8l1 -1l64 -59l33 -32q5 -3 5 -16zM139 14l-1 -1l-128 1v14l1 1h127l1 -1v-14z" />
    <glyph glyph-name="lozenge" unicode="&#x25ca;" horiz-adv-x="586" 
d="M275 -14q-13 0 -22 18q-4 8 -10 24t-7 20q-16 39 -36.5 79.5l-49 92.5l-41.5 77q-4 9 -4 20q1 31 103 200t122 169q11 0 24 -21l58 -141l47.5 -86l38.5 -69q0 -3 0.5 -8t0.5 -8q-1 -25 -73 -147t-125 -202q-8 -18 -26 -18zM312 615q-118 -202 -159 -278q16 -43 69.5 -141
t69.5 -148l86 147.5l78 134.5q-17 43 -72.5 138t-71.5 147z" />
    <glyph glyph-name="apple" unicode="&#xf8ff;" horiz-adv-x="581" 
d="M350 -20q-19 12 -50.5 12t-49.5 -12q-27 -17 -59 -17q-23 0 -42 15.5t-47 48.5q-55 66 -72 165.5t22 179.5q18 32 43 53t45.5 26.5t39.5 8t25 -2.5q38 -15 68 -23q24 -7 54 1q44 11 68 22q23 9 69.5 -3t76.5 -61q-75 -44 -71 -136q2 -42 26 -75.5t62 -48.5
q-22 -66 -62.5 -118t-87.5 -52q-27 0 -58 17zM330 554q18 27 48.5 43t43.5 12q15 -18 10 -45.5t-19.5 -53.5t-44.5 -44t-65 -16q-4 15 2.5 46t24.5 58zM299 314v-2q1 0 2 1q1 0 1 0.5t1 0.5l1 2v7h-5v-5h3q0 -2 -1 -2q0 -2 -2 -2z" />
    <glyph glyph-name="fi" unicode="&#xfb01;" horiz-adv-x="293" 
d="M318 452q5 17 -2 26.5t-22 9.5q-32 -1 -72 -54.5t-66 -107.5t-39 -92h88q8 0 8 -2q2 -5 -18 -9q-52 -12 -85 -12q-27 -66 -45 -194q-18 -140 -1 -187q6 -15 14 -23q5 -5 15 -10q7 -4 3 -6q-19 -7 -46 10.5t-31 52.5q-7 63 16 175.5t45 177.5q-27 -4 -35 13q-3 8 3 9
q5 1 19.5 2t18.5 2q50 129 82 181q69 115 140 94q20 -7 23 -28t-13 -28zM328 86q-15 -25 -63 -60q-44 -35 -68.5 -22.5t-18.5 78.5q3 28 33 134q1 8 22 7.5t21 -11.5t-7.5 -29.5t-17.5 -20.5q-5 -1 -15 -86q-3 -22 -1 -35.5t13 -17t34 16.5q59 48 61 51q4 3 6.5 1t0.5 -6z
M296 303q0 -5 -12 -19.5t-22 -17.5q-17 -4 -29 6q-4 3 -1 6q36 30 58 29q6 0 6 -4z" />
    <glyph glyph-name="fl" unicode="&#xfb02;" horiz-adv-x="780" 
 />
  </font>
</defs>
</svg>
